<svg version="1.1" viewBox="0.0 0.0 960.0 384.0" fill="none" stroke="none" stroke-linecap="square" stroke-miterlimit="10" xmlns:xlink="http://www.w3.org/1999/xlink" xmlns="http://www.w3.org/2000/svg"><clipPath id="p.0"><path d="m0 0l960.0 0l0 384.0l-960.0 0l0 -384.0z" clip-rule="nonzero"/></clipPath><g clip-path="url(#p.0)"><path fill="#000000" fill-opacity="0.0" d="m0 0l960.0 0l0 384.0l-960.0 0z" fill-rule="evenodd"/><path fill="#b6d7a8" d="m221.93927 33.291477l68.529236 0l0 54.27515l-68.529236 0z" fill-rule="evenodd"/><path stroke="#000000" stroke-width="3.0" stroke-linejoin="round" stroke-linecap="butt" d="m221.93927 33.291477l68.529236 0l0 54.27515l-68.529236 0z" fill-rule="evenodd"/><path fill="#000000" d="m263.2742 72.149055l-13.15625 0l0 -22.843754l13.15625 0l0 3.96875l-8.3125 0l0 5.015625l7.734375 0l0 3.96875l-7.734375 0l0 5.890629l8.3125 0l0 4.0z" fill-rule="nonzero"/><path fill="#b6d7a8" d="m128.10406 119.0059l68.52925 0l0 54.275154l-68.52925 0z" fill-rule="evenodd"/><path stroke="#000000" stroke-width="3.0" stroke-linejoin="round" stroke-linecap="butt" d="m128.10406 119.0059l68.52925 0l0 54.275154l-68.52925 0z" fill-rule="evenodd"/><path fill="#000000" d="m164.7515 138.72285q-1.390625 0 -2.46875 0.546875q-1.0625 0.53125 -1.796875 1.546875q-0.71875 1.015625 -1.09375 2.453125q-0.375 1.4375 -0.375 3.234375q0 2.421875 0.59375 4.140625q0.609375 1.703125 1.875 2.609375q1.265625 0.890625 3.265625 0.890625q1.390625 0 2.78125 -0.3125q1.40625 -0.3125 3.046875 -0.890625l0 4.0625q-1.515625 0.625 -2.984375 0.890625q-1.46875 0.28125 -3.296875 0.28125q-3.53125 0 -5.8125 -1.453125q-2.265625 -1.46875 -3.359375 -4.09375q-1.09375 -2.640625 -1.09375 -6.15625q0 -2.59375 0.703125 -4.75q0.703125 -2.15625 2.0625 -3.734375q1.359375 -1.578125 3.359375 -2.4375q2.0 -0.859375 4.59375 -0.859375q1.703125 0 3.40625 0.4375q1.71875 0.421875 3.28125 1.171875l-1.5625 3.9375q-1.28125 -0.609375 -2.578125 -1.0625q-1.296875 -0.453125 -2.546875 -0.453125z" fill-rule="nonzero"/><path fill="#b6d7a8" d="m315.77448 119.0059l68.529236 0l0 54.275154l-68.529236 0z" fill-rule="evenodd"/><path stroke="#000000" stroke-width="3.0" stroke-linejoin="round" stroke-linecap="butt" d="m315.77448 119.0059l68.529236 0l0 54.275154l-68.529236 0z" fill-rule="evenodd"/><path fill="#000000" d="m358.5391 157.86348l-17.0 0l0 -3.140625l10.953125 -15.703125l-10.65625 0l0 -4.0l16.40625 0l0 3.125l-10.9375 15.71875l11.234375 0l0 4.0z" fill-rule="nonzero"/><path fill="#b6d7a8" d="m75.316635 207.67114l68.52925 0l0 54.275146l-68.52925 0z" fill-rule="evenodd"/><path stroke="#000000" stroke-width="3.0" stroke-linejoin="round" stroke-linecap="butt" d="m75.316635 207.67114l68.52925 0l0 54.275146l-68.52925 0z" fill-rule="evenodd"/><path fill="#000000" d="m101.70626 223.68497l7.109375 0q4.5625 0 6.90625 1.28125q2.34375 1.28125 2.34375 4.5q0 1.296875 -0.421875 2.34375q-0.40625 1.046875 -1.1875 1.71875q-0.78125 0.671875 -1.90625 0.875l0 0.15625q1.140625 0.234375 2.0625 0.8125q0.921875 0.5625 1.46875 1.65625q0.5625 1.078125 0.5625 2.875q0 2.078125 -1.015625 3.5625q-1.015625 1.484375 -2.90625 2.28125q-1.875 0.78125 -4.46875 0.78125l-8.546875 0l0 -22.84375zm4.84375 9.046875l2.8125 0q2.109375 0 2.921875 -0.65625q0.8125 -0.671875 0.8125 -1.96875q0 -1.3125 -0.96875 -1.875q-0.953125 -0.578125 -3.03125 -0.578125l-2.546875 0l0 5.078125zm0 3.84375l0 5.953125l3.15625 0q2.1875 0 3.046875 -0.84375q0.859375 -0.84375 0.859375 -2.265625q0 -0.84375 -0.375 -1.484375q-0.375 -0.640625 -1.265625 -1.0q-0.875 -0.359375 -2.421875 -0.359375l-3.0 0z" fill-rule="nonzero"/><path fill="#b6d7a8" d="m173.53224 207.72803l68.52925 0l0 54.275146l-68.52925 0z" fill-rule="evenodd"/><path stroke="#000000" stroke-width="3.0" stroke-linejoin="round" stroke-linecap="butt" d="m173.53224 207.72803l68.52925 0l0 54.275146l-68.52925 0z" fill-rule="evenodd"/><path fill="#000000" d="m217.78123 234.94498q0 3.859375 -1.484375 6.453125q-1.46875 2.578125 -4.265625 3.890625q-2.796875 1.296875 -6.734375 1.296875l-6.46875 0l0 -22.84375l7.171875 0q3.59375 0 6.234375 1.28125q2.640625 1.265625 4.09375 3.765625q1.453125 2.484375 1.453125 6.15625zm-5.03125 0.125q0 -2.53125 -0.75 -4.15625q-0.734375 -1.640625 -2.1875 -2.421875q-1.4375 -0.78125 -3.5625 -0.78125l-2.578125 0l0 14.875l2.078125 0q3.546875 0 5.265625 -1.890625q1.734375 -1.890625 1.734375 -5.625z" fill-rule="nonzero"/><path fill="#b6d7a8" d="m264.51093 207.72803l68.52927 0l0 54.275146l-68.52927 0z" fill-rule="evenodd"/><path stroke="#000000" stroke-width="3.0" stroke-linejoin="round" stroke-linecap="butt" d="m264.51093 207.72803l68.52927 0l0 54.275146l-68.52927 0z" fill-rule="evenodd"/><path fill="#000000" d="m298.77554 233.1481l4.765625 -9.40625l5.21875 0l-7.578125 13.953125l0 8.890625l-4.8125 0l0 -8.734375l-7.578125 -14.109375l5.25 0l4.734375 9.40625z" fill-rule="nonzero"/><path fill="#000000" fill-opacity="0.0" d="m162.36868 119.0059l93.82678 -31.433067" fill-rule="evenodd"/><path stroke="#000000" stroke-width="3.0" stroke-linejoin="round" stroke-linecap="butt" d="m162.36868 119.0059l93.82678 -31.433067" fill-rule="evenodd"/><path fill="#000000" fill-opacity="0.0" d="m350.0391 119.0059l-93.82678 -31.433067" fill-rule="evenodd"/><path stroke="#000000" stroke-width="3.0" stroke-linejoin="round" stroke-linecap="butt" d="m350.0391 119.0059l-93.82678 -31.433067" fill-rule="evenodd"/><path fill="#000000" fill-opacity="0.0" d="m109.58125 207.67114l52.7874 -34.393692" fill-rule="evenodd"/><path stroke="#000000" stroke-width="3.0" stroke-linejoin="round" stroke-linecap="butt" d="m109.58125 207.67114l52.7874 -34.393692" fill-rule="evenodd"/><path fill="#000000" fill-opacity="0.0" d="m162.36868 173.28105l45.417328 34.456696" fill-rule="evenodd"/><path stroke="#000000" stroke-width="3.0" stroke-linejoin="round" stroke-linecap="butt" d="m162.36868 173.28105l45.417328 34.456696" fill-rule="evenodd"/><path fill="#000000" fill-opacity="0.0" d="m350.0391 173.28105l-51.275604 34.456696" fill-rule="evenodd"/><path stroke="#000000" stroke-width="3.0" stroke-linejoin="round" stroke-linecap="butt" d="m350.0391 173.28105l-51.275604 34.456696" fill-rule="evenodd"/><path fill="#f0ecf8" d="m48.00508 296.43854l68.52925 0l0 54.275146l-68.52925 0z" fill-rule="evenodd"/><path stroke="#000000" stroke-width="3.0" stroke-linejoin="round" stroke-linecap="butt" d="m48.00508 296.43854l68.52925 0l0 54.275146l-68.52925 0z" fill-rule="evenodd"/><path fill="#000000" d="m88.09002 335.2961l-1.65625 -5.4375l-8.328125 0l-1.65625 5.4375l-5.21875 0l8.0625 -22.9375l5.921875 0l8.09375 22.9375l-5.21875 0zm-2.8125 -9.5l-1.65625 -5.3125q-0.15625 -0.53125 -0.421875 -1.359375q-0.25 -0.84375 -0.515625 -1.703125q-0.25 -0.875 -0.40625 -1.515625q-0.15625 0.640625 -0.4375 1.59375q-0.265625 0.9375 -0.515625 1.78125q-0.25 0.84375 -0.359375 1.203125l-1.640625 5.3125l5.953125 0z" fill-rule="nonzero"/><path fill="#000000" fill-opacity="0.0" d="m109.58125 261.9463l-27.307083 34.48819" fill-rule="evenodd"/><path stroke="#000000" stroke-width="3.0" stroke-linejoin="round" stroke-linecap="butt" d="m109.58125 261.9463l-27.307083 34.48819" fill-rule="evenodd"/><path fill="#b6d7a8" d="m696.8461 33.288708l68.529236 0l0 54.27515l-68.529236 0z" fill-rule="evenodd"/><path stroke="#000000" stroke-width="3.0" stroke-linejoin="round" stroke-linecap="butt" d="m696.8461 33.288708l68.529236 0l0 54.27515l-68.529236 0z" fill-rule="evenodd"/><path fill="#000000" d="m741.0951 60.505657q0 3.8593788 -1.484375 6.453129q-1.46875 2.578125 -4.265625 3.890625q-2.796875 1.296875 -6.734375 1.296875l-6.46875 0l0 -22.843754l7.171875 0q3.59375 0 6.234375 1.28125q2.640625 1.265625 4.09375 3.765625q1.453125 2.484375 1.453125 6.15625zm-5.03125 0.125q0 -2.53125 -0.75 -4.15625q-0.734375 -1.640625 -2.1875 -2.421875q-1.4375 -0.78125 -3.5625 -0.78125l-2.578125 0l0 14.875004l2.078125 0q3.546875 0 5.265625 -1.890625q1.734375 -1.890625 1.734375 -5.625004z" fill-rule="nonzero"/><path fill="#b6d7a8" d="m603.0109 119.00313l68.529236 0l0 54.275146l-68.529236 0z" fill-rule="evenodd"/><path stroke="#000000" stroke-width="3.0" stroke-linejoin="round" stroke-linecap="butt" d="m603.0109 119.00313l68.529236 0l0 54.275146l-68.529236 0z" fill-rule="evenodd"/><path fill="#000000" d="m629.4006 135.01695l7.109375 0q4.5625 0 6.90625 1.28125q2.34375 1.28125 2.34375 4.5q0 1.296875 -0.421875 2.34375q-0.40625 1.046875 -1.1875 1.71875q-0.78125 0.671875 -1.90625 0.875l0 0.15625q1.140625 0.234375 2.0625 0.8125q0.921875 0.5625 1.46875 1.65625q0.5625 1.078125 0.5625 2.875q0 2.078125 -1.015625 3.5625q-1.015625 1.484375 -2.90625 2.28125q-1.875 0.78125 -4.46875 0.78125l-8.546875 0l0 -22.84375zm4.84375 9.046875l2.8125 0q2.109375 0 2.921875 -0.65625q0.8125 -0.671875 0.8125 -1.96875q0 -1.3125 -0.96875 -1.875q-0.953125 -0.578125 -3.03125 -0.578125l-2.546875 0l0 5.078125zm0 3.84375l0 5.953125l3.15625 0q2.1875 0 3.046875 -0.84375q0.859375 -0.84375 0.859375 -2.265625q0 -0.84375 -0.375 -1.484375q-0.375 -0.640625 -1.265625 -1.0q-0.875 -0.359375 -2.421875 -0.359375l-3.0 0z" fill-rule="nonzero"/><path fill="#b6d7a8" d="m790.68134 119.00313l68.529236 0l0 54.275146l-68.529236 0z" fill-rule="evenodd"/><path stroke="#000000" stroke-width="3.0" stroke-linejoin="round" stroke-linecap="butt" d="m790.68134 119.00313l68.529236 0l0 54.275146l-68.529236 0z" fill-rule="evenodd"/><path fill="#000000" d="m824.9459 144.4232l4.765625 -9.40625l5.21875 0l-7.578125 13.953125l0 8.890625l-4.8125 0l0 -8.734375l-7.578125 -14.109375l5.25 0l4.734375 9.40625z" fill-rule="nonzero"/><path fill="#b6d7a8" d="m550.2235 207.66838l68.529236 0l0 54.27516l-68.529236 0z" fill-rule="evenodd"/><path stroke="#000000" stroke-width="3.0" stroke-linejoin="round" stroke-linecap="butt" d="m550.2235 207.66838l68.529236 0l0 54.27516l-68.529236 0z" fill-rule="evenodd"/><path fill="#000000" d="m590.3084 246.52596l-1.65625 -5.4375l-8.328125 0l-1.65625 5.4375l-5.21875 0l8.0625 -22.9375l5.921875 0l8.09375 22.9375l-5.21875 0zm-2.8125 -9.5l-1.65625 -5.3125q-0.15625 -0.53125 -0.421875 -1.359375q-0.25 -0.84375 -0.515625 -1.703125q-0.25 -0.875 -0.40625 -1.515625q-0.15625 0.640625 -0.4375 1.59375q-0.265625 0.9375 -0.515625 1.78125q-0.25 0.84375 -0.359375 1.203125l-1.640625 5.3125l5.953125 0z" fill-rule="nonzero"/><path fill="#b6d7a8" d="m648.4391 207.72527l68.529236 0l0 54.27516l-68.529236 0z" fill-rule="evenodd"/><path stroke="#000000" stroke-width="3.0" stroke-linejoin="round" stroke-linecap="butt" d="m648.4391 207.72527l68.529236 0l0 54.27516l-68.529236 0z" fill-rule="evenodd"/><path fill="#000000" d="m685.08655 227.44221q-1.390625 0 -2.46875 0.546875q-1.0625 0.53125 -1.796875 1.546875q-0.71875 1.015625 -1.09375 2.453125q-0.375 1.4375 -0.375 3.234375q0 2.421875 0.59375 4.140625q0.609375 1.703125 1.875 2.609375q1.265625 0.890625 3.265625 0.890625q1.390625 0 2.78125 -0.3125q1.40625 -0.3125 3.046875 -0.890625l0 4.0625q-1.515625 0.625 -2.984375 0.890625q-1.46875 0.28125 -3.296875 0.28125q-3.53125 0 -5.8125 -1.453125q-2.265625 -1.46875 -3.359375 -4.09375q-1.09375 -2.640625 -1.09375 -6.15625q0 -2.59375 0.703125 -4.75q0.703125 -2.15625 2.0625 -3.734375q1.359375 -1.578125 3.359375 -2.4375q2.0 -0.859375 4.59375 -0.859375q1.703125 0 3.40625 0.4375q1.71875 0.421875 3.28125 1.171875l-1.5625 3.9375q-1.28125 -0.609375 -2.578125 -1.0625q-1.296875 -0.453125 -2.546875 -0.453125z" fill-rule="nonzero"/><path fill="#b6d7a8" d="m739.4178 207.72527l68.529236 0l0 54.27516l-68.529236 0z" fill-rule="evenodd"/><path stroke="#000000" stroke-width="3.0" stroke-linejoin="round" stroke-linecap="butt" d="m739.4178 207.72527l68.529236 0l0 54.27516l-68.529236 0z" fill-rule="evenodd"/><path fill="#000000" d="m780.75275 246.58284l-13.15625 0l0 -22.84375l13.15625 0l0 3.96875l-8.3125 0l0 5.015625l7.734375 0l0 3.96875l-7.734375 0l0 5.890625l8.3125 0l0 4.0z" fill-rule="nonzero"/><path fill="#b6d7a8" d="m843.4665 207.72527l68.5293 0l0 54.27516l-68.5293 0z" fill-rule="evenodd"/><path stroke="#000000" stroke-width="3.0" stroke-linejoin="round" stroke-linecap="butt" d="m843.4665 207.72527l68.5293 0l0 54.27516l-68.5293 0z" fill-rule="evenodd"/><path fill="#000000" d="m886.23114 246.58284l-17.0 0l0 -3.140625l10.953125 -15.703125l-10.65625 0l0 -4.0l16.40625 0l0 3.125l-10.9375 15.71875l11.234375 0l0 4.0z" fill-rule="nonzero"/><path fill="#000000" fill-opacity="0.0" d="m637.2756 119.00313l93.82672 -31.433067" fill-rule="evenodd"/><path stroke="#000000" stroke-width="3.0" stroke-linejoin="round" stroke-linecap="butt" d="m637.2756 119.00313l93.82672 -31.433067" fill-rule="evenodd"/><path fill="#000000" fill-opacity="0.0" d="m824.9459 119.00313l-93.82672 -31.433067" fill-rule="evenodd"/><path stroke="#000000" stroke-width="3.0" stroke-linejoin="round" stroke-linecap="butt" d="m824.9459 119.00313l-93.82672 -31.433067" fill-rule="evenodd"/><path fill="#000000" fill-opacity="0.0" d="m584.4881 207.66838l52.787415 -34.393707" fill-rule="evenodd"/><path stroke="#000000" stroke-width="3.0" stroke-linejoin="round" stroke-linecap="butt" d="m584.4881 207.66838l52.787415 -34.393707" fill-rule="evenodd"/><path fill="#000000" fill-opacity="0.0" d="m637.2756 173.27827l45.417297 34.456696" fill-rule="evenodd"/><path stroke="#000000" stroke-width="3.0" stroke-linejoin="round" stroke-linecap="butt" d="m637.2756 173.27827l45.417297 34.456696" fill-rule="evenodd"/><path fill="#000000" fill-opacity="0.0" d="m824.9459 173.27827l-51.275574 34.456696" fill-rule="evenodd"/><path stroke="#000000" stroke-width="3.0" stroke-linejoin="round" stroke-linecap="butt" d="m824.9459 173.27827l-51.275574 34.456696" fill-rule="evenodd"/><path fill="#000000" fill-opacity="0.0" d="m824.9459 173.27827l52.787415 34.456696" fill-rule="evenodd"/><path stroke="#000000" stroke-width="3.0" stroke-linejoin="round" stroke-linecap="butt" d="m824.9459 173.27827l52.787415 34.456696" fill-rule="evenodd"/><path fill="#000000" fill-opacity="0.0" d="m423.8594 147.64438l144.28348 0" fill-rule="evenodd"/><path stroke="#000000" stroke-width="8.0" stroke-linejoin="round" stroke-linecap="butt" d="m423.8594 147.64438l96.28348 0" fill-rule="evenodd"/><path fill="#000000" stroke="#000000" stroke-width="8.0" stroke-linecap="butt" d="m520.1429 160.85823l36.30475 -13.213852l-36.30475 -13.213867z" fill-rule="evenodd"/></g></svg>