<svg version="1.1" viewBox="0.0 0.0 960.0 336.0" fill="none" stroke="none" stroke-linecap="square" stroke-miterlimit="10" xmlns:xlink="http://www.w3.org/1999/xlink" xmlns="http://www.w3.org/2000/svg"><clipPath id="p.0"><path d="m0 0l960.0 0l0 336.0l-960.0 0l0 -336.0z" clip-rule="nonzero"/></clipPath><g clip-path="url(#p.0)"><path fill="#000000" fill-opacity="0.0" d="m0 0l960.0 0l0 336.0l-960.0 0z" fill-rule="evenodd"/><path fill="#f4cccc" d="m439.99722 52.636482l45.7323 0l0 30.29921l-45.7323 0z" fill-rule="evenodd"/><path stroke="#000000" stroke-width="2.0" stroke-linejoin="round" stroke-linecap="butt" d="m439.99722 52.636482l45.7323 0l0 30.29921l-45.7323 0z" fill-rule="evenodd"/><path fill="#000000" d="m457.29214 75.26609l0 -15.15625l4.65625 0q2.0 0 3.578125 0.90625q1.578125 0.890625 2.453125 2.546875q0.890625 1.65625 0.890625 3.78125l0 0.6875q0 2.125 -0.875 3.765625q-0.859375 1.640625 -2.4375 2.546875q-1.578125 0.90625 -3.578125 0.921875l-4.6875 0zm3.125 -12.625l0 10.109375l1.5 0q1.84375 0 2.8125 -1.1875q0.96875 -1.203125 0.984375 -3.4375l0 -0.796875q0 -2.3125 -0.96875 -3.5q-0.953125 -1.1875 -2.796875 -1.1875l-1.53125 0z" fill-rule="nonzero"/><path fill="#a4c2f4" d="m344.51236 111.590775l45.7323 0l0 30.29921l-45.7323 0z" fill-rule="evenodd"/><path stroke="#000000" stroke-width="2.0" stroke-linejoin="round" stroke-linecap="butt" d="m344.51236 111.590775l45.7323 0l0 30.29921l-45.7323 0z" fill-rule="evenodd"/><path fill="#000000" d="m361.93225 134.22038l0 -15.15625l5.3125 0q2.75 0 4.171875 1.0625q1.4375 1.046875 1.4375 3.09375q0 1.109375 -0.578125 1.953125q-0.578125 0.84375 -1.59375 1.25q1.171875 0.28125 1.84375 1.171875q0.671875 0.890625 0.671875 2.171875q0 2.1875 -1.40625 3.3125q-1.390625 1.125 -3.96875 1.140625l-5.890625 0zm3.125 -6.609375l0 4.09375l2.671875 0q1.109375 0 1.71875 -0.515625q0.625 -0.53125 0.625 -1.453125q0 -2.09375 -2.15625 -2.125l-2.859375 0zm0 -2.203125l2.3125 0q2.359375 -0.046875 2.359375 -1.875q0 -1.03125 -0.609375 -1.484375q-0.59375 -0.453125 -1.875 -0.453125l-2.1875 0l0 3.8125z" fill-rule="nonzero"/><path fill="#000000" fill-opacity="0.0" d="m367.3785 111.590775l95.49606 -28.661415" fill-rule="evenodd"/><path stroke="#000000" stroke-width="2.0" stroke-linejoin="round" stroke-linecap="butt" d="m367.3785 111.590775l95.49606 -28.661415" fill-rule="evenodd"/><path fill="#000000" fill-opacity="0.0" d="m367.3785 141.88998l-56.629913 32.44095" fill-rule="evenodd"/><path stroke="#000000" stroke-width="2.0" stroke-linejoin="round" stroke-linecap="butt" d="m367.3785 141.88998l-56.629913 32.44095" fill-rule="evenodd"/><path fill="#000000" fill-opacity="0.0" d="m367.3785 141.88998l58.015747 32.44095" fill-rule="evenodd"/><path stroke="#000000" stroke-width="2.0" stroke-linejoin="round" stroke-linecap="butt" d="m367.3785 141.88998l58.015747 32.44095" fill-rule="evenodd"/><path fill="#000000" fill-opacity="0.0" d="m462.86337 82.93569l95.24411 17.79528" fill-rule="evenodd"/><path stroke="#000000" stroke-width="2.0" stroke-linejoin="round" stroke-linecap="butt" d="m462.86337 82.93569l95.24411 17.79528" fill-rule="evenodd"/><path fill="#b4a7d6" d="m395.3189 226.32939l30.062988 -52.0l30.062988 52.0z" fill-rule="evenodd"/><path stroke="#000000" stroke-width="2.0" stroke-linejoin="round" stroke-linecap="butt" d="m395.3189 226.32939l30.062988 -52.0l30.062988 52.0z" fill-rule="evenodd"/><path fill="#000000" d="m431.65442 215.76253q-0.171875 2.4375 -1.796875 3.84375q-1.625 1.40625 -4.296875 1.40625q-2.921875 0 -4.59375 -1.953125q-1.671875 -1.96875 -1.671875 -5.390625l0 -0.9375q0 -2.1875 0.765625 -3.84375q0.78125 -1.671875 2.203125 -2.5625q1.4375 -0.890625 3.34375 -0.890625q2.625 0 4.21875 1.40625q1.609375 1.40625 1.859375 3.953125l-3.125 0q-0.109375 -1.46875 -0.8125 -2.125q-0.703125 -0.671875 -2.140625 -0.671875q-1.5625 0 -2.34375 1.125q-0.78125 1.109375 -0.796875 3.46875l0 1.140625q0 2.46875 0.734375 3.609375q0.75 1.125 2.359375 1.125q1.453125 0 2.15625 -0.65625q0.71875 -0.671875 0.828125 -2.046875l3.109375 0z" fill-rule="nonzero"/><path fill="#b6d7a8" d="m280.68372 226.32939l30.062988 -52.0l30.063019 52.0z" fill-rule="evenodd"/><path stroke="#000000" stroke-width="2.0" stroke-linejoin="round" stroke-linecap="butt" d="m280.68372 226.32939l30.062988 -52.0l30.063019 52.0z" fill-rule="evenodd"/><path fill="#000000" d="m313.49326 217.6844l-5.484375 0l-1.046875 3.125l-3.3125 0l5.640625 -15.15625l2.890625 0l5.671875 15.15625l-3.3125 0l-1.046875 -3.125zm-4.640625 -2.53125l3.796875 0l-1.90625 -5.671875l-1.890625 5.671875z" fill-rule="nonzero"/><path fill="#b6d7a8" d="m528.0591 152.74147l30.062988 -52.0l30.062988 52.0z" fill-rule="evenodd"/><path stroke="#000000" stroke-width="2.0" stroke-linejoin="round" stroke-linecap="butt" d="m528.0591 152.74147l30.062988 -52.0l30.062988 52.0z" fill-rule="evenodd"/><path fill="#000000" d="m562.6079 140.64334l-6.0 0l0 4.0625l7.03125 0l0 2.515625l-10.15625 0l0 -15.15625l10.140625 0l0 2.53125l-7.015625 0l0 3.609375l6.0 0l0 2.4375z" fill-rule="nonzero"/><path fill="#000000" fill-opacity="0.0" d="m535.70337 145.7368l60.126038 0l0 17.795273l-60.126038 0z" fill-rule="evenodd"/><path fill="#000000" d="m552.00024 168.54332l-6.046875 -2.109375l0 -2.890625l9.078125 3.796875l0 2.4375l-9.078125 3.8125l0 -2.90625l6.046875 -2.140625zm10.391846 6.46875l0 -15.15625l4.65625 0q2.0 0 3.578125 0.90625q1.578125 0.890625 2.453125 2.546875q0.890625 1.65625 0.890625 3.78125l0 0.6875q0 2.125 -0.875 3.765625q-0.859375 1.640625 -2.4375 2.546875q-1.578125 0.90625 -3.578125 0.921875l-4.6875 0zm3.125 -12.625l0 10.109375l1.5 0q1.84375 0 2.8125 -1.1875q0.96875 -1.203125 0.984375 -3.4375l0 -0.796875q0 -2.3125 -0.96875 -3.5q-0.953125 -1.1875 -2.796875 -1.1875l-1.53125 0z" fill-rule="nonzero"/><path fill="#000000" fill-opacity="0.0" d="m363.31894 218.32939l142.80313 0l0 17.795273l-142.80313 0z" fill-rule="evenodd"/><path fill="#000000" d="m379.6158 241.13593l-6.046875 -2.109375l0 -2.890625l9.078125 3.796875l0 2.4375l-9.078125 3.8125l0 -2.90625l6.046875 -2.140625zm10.391846 6.46875l0 -15.15625l5.3125 0q2.75 0 4.171875 1.0625q1.4375 1.046875 1.4375 3.09375q0 1.109375 -0.578125 1.953125q-0.578125 0.84375 -1.59375 1.25q1.171875 0.28125 1.84375 1.171875q0.671875 0.890625 0.671875 2.171875q0 2.1875 -1.40625 3.3125q-1.390625 1.125 -3.96875 1.140625l-5.890625 0zm3.125 -6.609375l0 4.09375l2.671875 0q1.109375 0 1.71875 -0.515625q0.625 -0.53125 0.625 -1.453125q0 -2.09375 -2.15625 -2.125l-2.859375 0zm0 -2.203125l2.3125 0q2.359375 -0.046875 2.359375 -1.875q0 -1.03125 -0.609375 -1.484375q-0.59375 -0.453125 -1.875 -0.453125l-2.1875 0l0 3.8125zm22.12558 8.8125q-0.203125 -0.40625 -0.296875 -1.015625q-1.09375 1.21875 -2.84375 1.21875q-1.65625 0 -2.75 -0.953125q-1.09375 -0.953125 -1.09375 -2.421875q0 -1.78125 1.328125 -2.734375q1.328125 -0.96875 3.84375 -0.984375l1.390625 0l0 -0.640625q0 -0.78125 -0.40625 -1.25q-0.40625 -0.46875 -1.265625 -0.46875q-0.765625 0 -1.203125 0.375q-0.421875 0.359375 -0.421875 0.984375l-3.015625 0q0 -0.96875 0.609375 -1.796875q0.609375 -0.84375 1.703125 -1.3125q1.109375 -0.46875 2.484375 -0.46875q2.078125 0 3.296875 1.046875q1.234375 1.03125 1.234375 2.9375l0 4.875q0.015625 1.609375 0.4375 2.4375l0 0.171875l-3.03125 0zm-2.484375 -2.09375q0.65625 0 1.21875 -0.296875q0.5625 -0.296875 0.84375 -0.796875l0 -1.9375l-1.125 0q-2.265625 0 -2.40625 1.5625l-0.015625 0.171875q0 0.5625 0.390625 0.9375q0.40625 0.359375 1.09375 0.359375zm10.153473 -9.171875l0.09375 1.296875q1.21875 -1.5 3.25 -1.5q1.78125 0 2.65625 1.046875q0.875 1.046875 0.890625 3.140625l0 7.28125l-3.0 0l0 -7.203125q0 -0.96875 -0.421875 -1.390625q-0.40625 -0.4375 -1.375 -0.4375q-1.28125 0 -1.90625 1.078125l0 7.953125l-3.015625 0l0 -11.265625l2.828125 0zm8.710632 5.546875q0 -2.640625 1.171875 -4.1875q1.1875 -1.5625 3.25 -1.5625q1.640625 0 2.71875 1.21875l0 -5.75l3.015625 0l0 16.0l-2.71875 0l-0.140625 -1.203125q-1.125 1.40625 -2.90625 1.40625q-1.984375 0 -3.1875 -1.5625q-1.203125 -1.5625 -1.203125 -4.359375zm3.015625 0.21875q0 1.578125 0.546875 2.421875q0.546875 0.84375 1.609375 0.84375q1.390625 0 1.96875 -1.171875l0 -4.453125q-0.5625 -1.171875 -1.953125 -1.171875q-2.171875 0 -2.171875 3.53125zm17.219727 -0.9375l5.9375 2.09375l0 2.921875l-8.96875 -3.8125l0 -2.453125l8.96875 -3.796875l0 2.90625l-5.9375 2.140625zm13.928345 6.4375l0 -15.15625l4.65625 0q2.0 0 3.578125 0.90625q1.578125 0.890625 2.453125 2.546875q0.890625 1.65625 0.890625 3.78125l0 0.6875q0 2.125 -0.875 3.765625q-0.859375 1.640625 -2.4375 2.546875q-1.578125 0.90625 -3.578125 0.921875l-4.6875 0zm3.125 -12.625l0 10.109375l1.5 0q1.84375 0 2.8125 -1.1875q0.96875 -1.203125 0.984375 -3.4375l0 -0.796875q0 -2.3125 -0.96875 -3.5q-0.953125 -1.1875 -2.796875 -1.1875l-1.53125 0z" fill-rule="nonzero"/><path fill="#000000" fill-opacity="0.0" d="m279.4787 218.60585l58.015747 0l0 17.795273l-58.015747 0z" fill-rule="evenodd"/><path fill="#000000" d="m292.07245 241.44362l5.9375 2.09375l0 2.921875l-8.96875 -3.8125l0 -2.453125l8.96875 -3.796875l0 2.90625l-5.9375 2.140625zm13.928345 6.4375l0 -15.15625l5.3125 0q2.75 0 4.171875 1.0625q1.4375 1.046875 1.4375 3.09375q0 1.109375 -0.578125 1.953125q-0.578125 0.84375 -1.59375 1.25q1.171875 0.28125 1.84375 1.171875q0.671875 0.890625 0.671875 2.171875q0 2.1875 -1.40625 3.3125q-1.390625 1.125 -3.96875 1.140625l-5.890625 0zm3.125 -6.609375l0 4.09375l2.671875 0q1.109375 0 1.71875 -0.515625q0.625 -0.53125 0.625 -1.453125q0 -2.09375 -2.15625 -2.125l-2.859375 0zm0 -2.203125l2.3125 0q2.359375 -0.046875 2.359375 -1.875q0 -1.03125 -0.609375 -1.484375q-0.59375 -0.453125 -1.875 -0.453125l-2.1875 0l0 3.8125z" fill-rule="nonzero"/><path fill="#f4cccc" d="m789.2833 108.92257l45.73224 0l0 30.299217l-45.73224 0z" fill-rule="evenodd"/><path stroke="#000000" stroke-width="2.0" stroke-linejoin="round" stroke-linecap="butt" d="m789.2833 108.92257l45.73224 0l0 30.299217l-45.73224 0z" fill-rule="evenodd"/><path fill="#000000" d="m806.5782 131.55219l0 -15.156258l4.65625 0q2.0 0 3.578125 0.90625q1.578125 0.890625 2.453125 2.546875q0.890625 1.65625 0.890625 3.78125l0 0.6875q0 2.125 -0.875 3.7656326q-0.859375 1.640625 -2.4375 2.546875q-1.578125 0.90625 -3.578125 0.921875l-4.6875 0zm3.125 -12.625008l0 10.109383l1.5 0q1.84375 0 2.8125 -1.1875076q0.96875 -1.203125 0.984375 -3.4375l0 -0.796875q0 -2.3125 -0.96875 -3.5q-0.953125 -1.1875 -2.796875 -1.1875l-1.53125 0z" fill-rule="nonzero"/><path fill="#a4c2f4" d="m708.33655 46.178703l45.73224 0l0 30.29921l-45.73224 0z" fill-rule="evenodd"/><path stroke="#000000" stroke-width="2.0" stroke-linejoin="round" stroke-linecap="butt" d="m708.33655 46.178703l45.73224 0l0 30.29921l-45.73224 0z" fill-rule="evenodd"/><path fill="#000000" d="m725.7564 68.80831l0 -15.156254l5.3125 0q2.75 0 4.171875 1.0625q1.4375 1.046875 1.4375 3.09375q0 1.109375 -0.578125 1.953125q-0.578125 0.84375 -1.59375 1.25q1.171875 0.28125 1.84375 1.171875q0.671875 0.890625 0.671875 2.1718788q0 2.1875 -1.40625 3.3125q-1.390625 1.125 -3.96875 1.140625l-5.890625 0zm3.125 -6.609379l0 4.093754l2.671875 0q1.109375 0 1.71875 -0.515625q0.625 -0.53125 0.625 -1.453125q0 -2.0937538 -2.15625 -2.1250038l-2.859375 0zm0 -2.203125l2.3125 0q2.359375 -0.046875 2.359375 -1.875q0 -1.03125 -0.609375 -1.484375q-0.59375 -0.453125 -1.875 -0.453125l-2.1875 0l0 3.8125z" fill-rule="nonzero"/><path fill="#000000" fill-opacity="0.0" d="m731.2027 76.47791l-63.181152 24.535439" fill-rule="evenodd"/><path stroke="#000000" stroke-width="2.0" stroke-linejoin="round" stroke-linecap="butt" d="m731.2027 76.47791l-63.181152 24.535439" fill-rule="evenodd"/><path fill="#b4a7d6" d="m728.605 225.28871l30.062988 -52.0l30.062988 52.0z" fill-rule="evenodd"/><path stroke="#000000" stroke-width="2.0" stroke-linejoin="round" stroke-linecap="butt" d="m728.605 225.28871l30.062988 -52.0l30.062988 52.0z" fill-rule="evenodd"/><path fill="#000000" d="m764.9405 214.72183q-0.171875 2.4375 -1.796875 3.84375q-1.625 1.40625 -4.296875 1.40625q-2.921875 0 -4.59375 -1.953125q-1.671875 -1.96875 -1.671875 -5.390625l0 -0.9375q0 -2.1875 0.765625 -3.84375q0.78125 -1.671875 2.203125 -2.5625q1.4375 -0.890625 3.34375 -0.890625q2.625 0 4.21875 1.40625q1.609375 1.40625 1.859375 3.953125l-3.125 0q-0.109375 -1.46875 -0.8125 -2.125q-0.703125 -0.671875 -2.140625 -0.671875q-1.5625 0 -2.34375 1.125q-0.78125 1.109375 -0.796875 3.46875l0 1.140625q0 2.46875 0.734375 3.609375q0.75 1.125 2.359375 1.125q1.453125 0 2.15625 -0.65625q0.71875 -0.671875 0.828125 -2.046875l3.109375 0z" fill-rule="nonzero"/><path fill="#b6d7a8" d="m637.9698 153.00484l30.06305 -52.0l30.062988 52.0z" fill-rule="evenodd"/><path stroke="#000000" stroke-width="2.0" stroke-linejoin="round" stroke-linecap="butt" d="m637.9698 153.00484l30.06305 -52.0l30.062988 52.0z" fill-rule="evenodd"/><path fill="#000000" d="m670.77936 144.35983l-5.484375 0l-1.046875 3.125l-3.3125 0l5.640625 -15.15625l2.890625 0l5.671875 15.15625l-3.3125 0l-1.046875 -3.125zm-4.640625 -2.53125l3.796875 0l-1.90625 -5.671875l-1.890625 5.671875z" fill-rule="nonzero"/><path fill="#b6d7a8" d="m845.34515 225.3358l30.062988 -52.0l30.062988 52.0z" fill-rule="evenodd"/><path stroke="#000000" stroke-width="2.0" stroke-linejoin="round" stroke-linecap="butt" d="m845.34515 225.3358l30.062988 -52.0l30.062988 52.0z" fill-rule="evenodd"/><path fill="#000000" d="m879.894 213.23767l-6.0 0l0 4.0625l7.03125 0l0 2.515625l-10.15625 0l0 -15.15625l10.140625 0l0 2.53125l-7.015625 0l0 3.609375l6.0 0l0 2.4375z" fill-rule="nonzero"/><path fill="#000000" fill-opacity="0.0" d="m853.7997 218.33112l60.126038 0l0 17.795288l-60.126038 0z" fill-rule="evenodd"/><path fill="#000000" d="m870.09656 241.13765l-6.046875 -2.109375l0 -2.890625l9.078125 3.796875l0 2.4375l-9.078125 3.8125l0 -2.90625l6.046875 -2.140625zm10.391846 6.46875l0 -15.15625l4.65625 0q2.0 0 3.578125 0.90625q1.578125 0.890625 2.453125 2.546875q0.890625 1.65625 0.890625 3.78125l0 0.6875q0 2.125 -0.875 3.765625q-0.859375 1.640625 -2.4375 2.546875q-1.578125 0.90625 -3.578125 0.921875l-4.6875 0zm3.125 -12.625l0 10.109375l1.5 0q1.84375 0 2.8125 -1.1875q0.96875 -1.203125 0.984375 -3.4375l0 -0.796875q0 -2.3125 -0.96875 -3.5q-0.953125 -1.1875 -2.796875 -1.1875l-1.53125 0z" fill-rule="nonzero"/><path fill="#000000" fill-opacity="0.0" d="m696.60504 217.28871l142.80316 0l0 17.795273l-142.80316 0z" fill-rule="evenodd"/><path fill="#000000" d="m712.9019 240.09525l-6.046875 -2.109375l0 -2.890625l9.078125 3.796875l0 2.4375l-9.078125 3.8125l0 -2.90625l6.046875 -2.140625zm10.391846 6.46875l0 -15.15625l5.3125 0q2.75 0 4.171875 1.0625q1.4375 1.046875 1.4375 3.09375q0 1.109375 -0.578125 1.953125q-0.578125 0.84375 -1.59375 1.25q1.171875 0.28125 1.84375 1.171875q0.671875 0.890625 0.671875 2.171875q0 2.1875 -1.40625 3.3125q-1.390625 1.125 -3.96875 1.140625l-5.890625 0zm3.125 -6.609375l0 4.09375l2.671875 0q1.109375 0 1.71875 -0.515625q0.625 -0.53125 0.625 -1.453125q0 -2.09375 -2.15625 -2.125l-2.859375 0zm0 -2.203125l2.3125 0q2.359375 -0.046875 2.359375 -1.875q0 -1.03125 -0.609375 -1.484375q-0.59375 -0.453125 -1.875 -0.453125l-2.1875 0l0 3.8125zm22.12561 8.8125q-0.203125 -0.40625 -0.296875 -1.015625q-1.09375 1.21875 -2.84375 1.21875q-1.65625 0 -2.75 -0.953125q-1.09375 -0.953125 -1.09375 -2.421875q0 -1.78125 1.328125 -2.734375q1.328125 -0.96875 3.84375 -0.984375l1.390625 0l0 -0.640625q0 -0.78125 -0.40625 -1.25q-0.40625 -0.46875 -1.265625 -0.46875q-0.765625 0 -1.203125 0.375q-0.421875 0.359375 -0.421875 0.984375l-3.015625 0q0 -0.96875 0.609375 -1.796875q0.609375 -0.84375 1.703125 -1.3125q1.109375 -0.46875 2.484375 -0.46875q2.078125 0 3.296875 1.046875q1.234375 1.03125 1.234375 2.9375l0 4.875q0.015625 1.609375 0.4375 2.4375l0 0.171875l-3.03125 0zm-2.484375 -2.09375q0.65625 0 1.21875 -0.296875q0.5625 -0.296875 0.84375 -0.796875l0 -1.9375l-1.125 0q-2.265625 0 -2.40625 1.5625l-0.015625 0.171875q0 0.5625 0.390625 0.9375q0.40625 0.359375 1.09375 0.359375zm10.153442 -9.171875l0.09375 1.296875q1.21875 -1.5 3.25 -1.5q1.78125 0 2.65625 1.046875q0.875 1.046875 0.890625 3.140625l0 7.28125l-3.0 0l0 -7.203125q0 -0.96875 -0.421875 -1.390625q-0.40625 -0.4375 -1.375 -0.4375q-1.28125 0 -1.90625 1.078125l0 7.953125l-3.015625 0l0 -11.265625l2.828125 0zm8.710632 5.546875q0 -2.640625 1.171875 -4.1875q1.1875 -1.5625 3.25 -1.5625q1.640625 0 2.71875 1.21875l0 -5.75l3.015625 0l0 16.0l-2.71875 0l-0.140625 -1.203125q-1.125 1.40625 -2.90625 1.40625q-1.984375 0 -3.1875 -1.5625q-1.203125 -1.5625 -1.203125 -4.359375zm3.015625 0.21875q0 1.578125 0.546875 2.421875q0.546875 0.84375 1.609375 0.84375q1.390625 0 1.96875 -1.171875l0 -4.453125q-0.5625 -1.171875 -1.953125 -1.171875q-2.171875 0 -2.171875 3.53125zm17.219727 -0.9375l5.9375 2.09375l0 2.921875l-8.96875 -3.8125l0 -2.453125l8.96875 -3.796875l0 2.90625l-5.9375 2.140625zm13.928345 6.4375l0 -15.15625l4.65625 0q2.0 0 3.578125 0.90625q1.578125 0.890625 2.453125 2.546875q0.890625 1.65625 0.890625 3.78125l0 0.6875q0 2.125 -0.875 3.765625q-0.859375 1.640625 -2.4375 2.546875q-1.578125 0.90625 -3.578125 0.921875l-4.6875 0zm3.125 -12.625l0 10.109375l1.5 0q1.84375 0 2.8125 -1.1875q0.96875 -1.203125 0.984375 -3.4375l0 -0.796875q0 -2.3125 -0.96875 -3.5q-0.953125 -1.1875 -2.796875 -1.1875l-1.53125 0z" fill-rule="nonzero"/><path fill="#000000" fill-opacity="0.0" d="m636.76483 145.2813l58.015747 0l0 17.795273l-58.015747 0z" fill-rule="evenodd"/><path fill="#000000" d="m649.3586 168.11906l5.9375 2.09375l0 2.921875l-8.96875 -3.8125l0 -2.453125l8.96875 -3.796875l0 2.90625l-5.9375 2.140625zm13.928345 6.4375l0 -15.15625l5.3125 0q2.75 0 4.171875 1.0625q1.4375 1.046875 1.4375 3.09375q0 1.109375 -0.578125 1.953125q-0.578125 0.84375 -1.59375 1.25q1.171875 0.28125 1.84375 1.171875q0.671875 0.890625 0.671875 2.171875q0 2.1875 -1.40625 3.3125q-1.390625 1.125 -3.96875 1.140625l-5.890625 0zm3.125 -6.609375l0 4.09375l2.671875 0q1.109375 0 1.71875 -0.515625q0.625 -0.53125 0.625 -1.453125q0 -2.09375 -2.15625 -2.125l-2.859375 0zm0 -2.203125l2.3125 0q2.359375 -0.046875 2.359375 -1.875q0 -1.03125 -0.609375 -1.484375q-0.59375 -0.453125 -1.875 -0.453125l-2.1875 0l0 3.8125z" fill-rule="nonzero"/><path fill="#000000" fill-opacity="0.0" d="m812.1494 139.22179l63.24414 34.11023" fill-rule="evenodd"/><path stroke="#000000" stroke-width="2.0" stroke-linejoin="round" stroke-linecap="butt" d="m812.1494 139.22179l63.24414 34.11023" fill-rule="evenodd"/><path fill="#000000" fill-opacity="0.0" d="m731.2027 76.47791l80.944885 32.44095" fill-rule="evenodd"/><path stroke="#000000" stroke-width="2.0" stroke-linejoin="round" stroke-linecap="butt" d="m731.2027 76.47791l80.944885 32.44095" fill-rule="evenodd"/><path fill="#000000" fill-opacity="0.0" d="m758.66797 173.28871l53.480347 -34.078735" fill-rule="evenodd"/><path stroke="#000000" stroke-width="2.0" stroke-linejoin="round" stroke-linecap="butt" d="m758.66797 173.28871l53.480347 -34.078735" fill-rule="evenodd"/><path fill="#000000" fill-opacity="0.0" d="m264.57907 50.40872l0 0c0 -12.607201 10.220154 -22.827353 22.827362 -22.827353l294.62872 0c6.054199 0 11.860474 2.4050179 16.141418 6.685976c4.280945 4.28096 6.685974 10.087185 6.685974 16.141376l0 204.86497c0 12.607193 -10.220154 22.827347 -22.827393 22.827347l-294.62872 0l0 0c-12.607208 0 -22.827362 -10.220154 -22.827362 -22.827347z" fill-rule="evenodd"/><path stroke="#4b2e83" stroke-width="3.0" stroke-linejoin="round" stroke-linecap="butt" d="m264.57907 50.40872l0 0c0 -12.607201 10.220154 -22.827353 22.827362 -22.827353l294.62872 0c6.054199 0 11.860474 2.4050179 16.141418 6.685976c4.280945 4.28096 6.685974 10.087185 6.685974 16.141376l0 204.86497c0 12.607193 -10.220154 22.827347 -22.827393 22.827347l-294.62872 0l0 0c-12.607208 0 -22.827362 -10.220154 -22.827362 -22.827347z" fill-rule="evenodd"/><path fill="#4b2e83" d="m506.7205 276.4232l0 0c0 -3.534027 -2.8648987 -6.3989563 -6.3989563 -6.3989563l-17.601044 0l-18.84143 -3.6208801l-17.15857 3.6208801l-77.60104 0c-1.697113 0 -3.324707 0.67419434 -4.5247498 1.8742371c-1.2000427 1.2000122 -1.8742065 2.8276062 -1.8742065 4.524719l0 0l0 0l0 9.598419l0 15.9973755c0 3.5340576 2.8648987 6.3989563 6.3989563 6.3989563l77.60104 0l36.0 0l0 0l17.601044 0c3.5340576 0 6.3989563 -2.8648987 6.3989563 -6.3989563l0 -15.9973755l0 -9.598419l0 0z" fill-rule="evenodd"/><path stroke="#ffffff" stroke-width="3.0" stroke-linejoin="round" stroke-linecap="butt" d="m506.7205 276.4232l0 0c0 -3.534027 -2.8648987 -6.3989563 -6.3989563 -6.3989563l-17.601044 0l-18.84143 -3.6208801l-17.15857 3.6208801l-77.60104 0c-1.697113 0 -3.324707 0.67419434 -4.5247498 1.8742371c-1.2000427 1.2000122 -1.8742065 2.8276062 -1.8742065 4.524719l0 0l0 0l0 9.598419l0 15.9973755c0 3.5340576 2.8648987 6.3989563 6.3989563 6.3989563l77.60104 0l36.0 0l0 0l17.601044 0c3.5340576 0 6.3989563 -2.8648987 6.3989563 -6.3989563l0 -15.9973755l0 -9.598419l0 0z" fill-rule="evenodd"/><path fill="#ffffff" d="m380.9378 294.1855l6.625 0l0 2.515625l-9.75 0l0 -15.15625l3.125 0l0 12.640625zm13.408661 2.71875q-2.484375 0 -4.046875 -1.515625q-1.546875 -1.515625 -1.546875 -4.046875l0 -0.296875q0 -1.703125 0.65625 -3.03125q0.65625 -1.34375 1.859375 -2.0625q1.203125 -0.71875 2.75 -0.71875q2.3125 0 3.625 1.453125q1.328125 1.453125 1.328125 4.125l0 1.234375l-7.171875 0q0.15625 1.109375 0.890625 1.78125q0.734375 0.65625 1.859375 0.65625q1.734375 0 2.71875 -1.265625l1.46875 1.65625q-0.671875 0.96875 -1.828125 1.5q-1.15625 0.53125 -2.5625 0.53125zm-0.34375 -9.25q-0.890625 0 -1.453125 0.609375q-0.5625 0.609375 -0.71875 1.734375l4.1875 0l0 -0.25q-0.015625 -1.0 -0.546875 -1.546875q-0.515625 -0.546875 -1.46875 -0.546875zm7.5128174 9.046875l0 -9.0625l-1.6875 0l0 -2.203125l1.6875 0l0 -0.953125q0 -1.90625 1.078125 -2.953125q1.09375 -1.046875 3.046875 -1.046875q0.625 0 1.53125 0.21875l-0.03125 2.328125q-0.375 -0.09375 -0.90625 -0.09375q-1.703125 0 -1.703125 1.59375l0 0.90625l2.234375 0l0 2.203125l-2.234375 0l0 9.0625l-3.015625 0zm10.425201 -14.03125l0 2.765625l1.921875 0l0 2.203125l-1.921875 0l0 5.625q0 0.625 0.234375 0.90625q0.234375 0.265625 0.921875 0.265625q0.5 0 0.875 -0.078125l0 2.28125q-0.875 0.265625 -1.8125 0.265625q-3.171875 0 -3.234375 -3.1875l0 -6.078125l-1.640625 0l0 -2.203125l1.640625 0l0 -2.765625l3.015625 0zm9.4565735 8.75l-5.875 0l0 -2.421875l5.875 0l0 2.421875zm5.5813293 5.28125l-3.015625 0l0 -16.0l3.015625 0l0 16.0zm7.6705017 0.203125q-2.484375 0 -4.046875 -1.515625q-1.546875 -1.515625 -1.546875 -4.046875l0 -0.296875q0 -1.703125 0.65625 -3.03125q0.65625 -1.34375 1.859375 -2.0625q1.203125 -0.71875 2.75 -0.71875q2.3125 0 3.625 1.453125q1.328125 1.453125 1.328125 4.125l0 1.234375l-7.171875 0q0.15625 1.109375 0.890625 1.78125q0.734375 0.65625 1.859375 0.65625q1.734375 0 2.71875 -1.265625l1.46875 1.65625q-0.671875 0.96875 -1.828125 1.5q-1.15625 0.53125 -2.5625 0.53125zm-0.34375 -9.25q-0.890625 0 -1.453125 0.609375q-0.5625 0.609375 -0.71875 1.734375l4.1875 0l0 -0.25q-0.015625 -1.0 -0.546875 -1.546875q-0.515625 -0.546875 -1.46875 -0.546875zm13.215942 9.046875q-0.203125 -0.40625 -0.296875 -1.015625q-1.09375 1.21875 -2.84375 1.21875q-1.65625 0 -2.75 -0.953125q-1.09375 -0.953125 -1.09375 -2.421875q0 -1.78125 1.328125 -2.734375q1.328125 -0.96875 3.84375 -0.984375l1.390625 0l0 -0.640625q0 -0.78125 -0.40625 -1.25q-0.40625 -0.46875 -1.265625 -0.46875q-0.765625 0 -1.203125 0.375q-0.421875 0.359375 -0.421875 0.984375l-3.015625 0q0 -0.96875 0.609375 -1.796875q0.609375 -0.84375 1.703125 -1.3125q1.109375 -0.46875 2.484375 -0.46875q2.078125 0 3.296875 1.046875q1.234375 1.03125 1.234375 2.9375l0 4.875q0.015625 1.609375 0.4375 2.4375l0 0.171875l-3.03125 0zm-2.484375 -2.09375q0.65625 0 1.21875 -0.296875q0.5625 -0.296875 0.84375 -0.796875l0 -1.9375l-1.125 0q-2.265625 0 -2.40625 1.5625l-0.015625 0.171875q0 0.5625 0.390625 0.9375q0.40625 0.359375 1.09375 0.359375zm10.153442 -9.171875l0.09375 1.296875q1.21875 -1.5 3.25 -1.5q1.78125 0 2.65625 1.046875q0.875 1.046875 0.890625 3.140625l0 7.28125l-3.0 0l0 -7.203125q0 -0.96875 -0.421875 -1.390625q-0.40625 -0.4375 -1.375 -0.4375q-1.28125 0 -1.90625 1.078125l0 7.953125l-3.015625 0l0 -11.265625l2.828125 0zm12.351257 11.265625l-3.015625 0l0 -11.265625l3.015625 0l0 11.265625zm-3.1875 -14.1875q0 -0.671875 0.453125 -1.109375q0.453125 -0.4375 1.234375 -0.4375q0.765625 0 1.21875 0.4375q0.46875 0.4375 0.46875 1.109375q0 0.6875 -0.46875 1.125q-0.46875 0.4375 -1.234375 0.4375q-0.75 0 -1.21875 -0.4375q-0.453125 -0.4375 -0.453125 -1.125zm8.436127 2.921875l0.09375 1.296875q1.21875 -1.5 3.25 -1.5q1.78125 0 2.65625 1.046875q0.875 1.046875 0.890625 3.140625l0 7.28125l-3.0 0l0 -7.203125q0 -0.96875 -0.421875 -1.390625q-0.40625 -0.4375 -1.375 -0.4375q-1.28125 0 -1.90625 1.078125l0 7.953125l-3.015625 0l0 -11.265625l2.828125 0zm8.741882 5.546875q0 -2.59375 1.234375 -4.171875q1.234375 -1.578125 3.328125 -1.578125q1.859375 0 2.890625 1.265625l0.125 -1.0625l2.71875 0l0 10.890625q0 1.484375 -0.671875 2.578125q-0.671875 1.09375 -1.890625 1.65625q-1.21875 0.578125 -2.84375 0.578125q-1.25 0 -2.421875 -0.5q-1.171875 -0.484375 -1.78125 -1.265625l1.328125 -1.84375q1.125 1.265625 2.734375 1.265625q1.203125 0 1.859375 -0.640625q0.671875 -0.640625 0.671875 -1.8125l0 -0.609375q-1.046875 1.171875 -2.734375 1.171875q-2.03125 0 -3.296875 -1.578125q-1.25 -1.59375 -1.25 -4.21875l0 -0.125zm3.015625 0.21875q0 1.53125 0.609375 2.40625q0.609375 0.859375 1.6875 0.859375q1.375 0 1.96875 -1.03125l0 -4.734375q-0.609375 -1.03125 -1.953125 -1.03125q-1.078125 0 -1.703125 0.890625q-0.609375 0.875 -0.609375 2.640625z" fill-rule="nonzero"/><defs><linearGradient id="p.1" gradientUnits="userSpaceOnUse" gradientTransform="matrix(7.8389453985986774 0.0 0.0 7.8389453985986774 0.0 0.0)" spreadMethod="pad" x1="21.699256439231032" y1="12.270077202003657" x2="13.8603110408341" y2="12.27002096193073"><stop offset="0.0" stop-color="#f4cccc"/><stop offset="1.0" stop-color="#c9daf8"/></linearGradient></defs><path fill="url(#p.1)" d="m108.65022 96.18446l61.448822 0l0 34.110245l-61.448822 0z" fill-rule="evenodd"/><path stroke="#000000" stroke-width="2.0" stroke-linejoin="round" stroke-linecap="butt" d="m108.65022 96.18446l61.448822 0l0 34.110245l-61.448822 0z" fill-rule="evenodd"/><path fill="#000000" d="m121.68657 120.71958l0 -15.15625l5.3125 0q2.75 0 4.171875 1.0625q1.4375 1.046875 1.4375 3.09375q0 1.109375 -0.578125 1.953125q-0.578125 0.84375 -1.59375 1.25q1.171875 0.28125 1.84375 1.171875q0.671875 0.890625 0.671875 2.171875q0 2.1875 -1.40625 3.3125q-1.390625 1.125 -3.96875 1.140625l-5.890625 0zm3.125 -6.609375l0 4.09375l2.671875 0q1.109375 0 1.71875 -0.515625q0.625 -0.53125 0.625 -1.453125q0 -2.09375 -2.15625 -2.125l-2.859375 0zm0 -2.203125l2.3125 0q2.359375 -0.046875 2.359375 -1.875q0 -1.03125 -0.609375 -1.484375q-0.59375 -0.453125 -1.875 -0.453125l-2.1875 0l0 3.8125zm21.108673 8.8125l0 -15.15625l4.65625 0q2.0 0 3.578125 0.90625q1.578125 0.890625 2.453125 2.546875q0.890625 1.65625 0.890625 3.78125l0 0.6875q0 2.125 -0.875 3.765625q-0.859375 1.640625 -2.4375 2.546875q-1.578125 0.90625 -3.578125 0.921875l-4.6875 0zm3.125 -12.625l0 10.109375l1.5 0q1.84375 0 2.8125 -1.1875q0.96875 -1.203125 0.984375 -3.4375l0 -0.796875q0 -2.3125 -0.96875 -3.5q-0.953125 -1.1875 -2.796875 -1.1875l-1.53125 0z" fill-rule="nonzero"/><path fill="#b6d7a8" d="m46.074024 153.34302l51.49606 0l0 34.11023l-51.49606 0z" fill-rule="evenodd"/><path stroke="#000000" stroke-width="2.0" stroke-linejoin="round" stroke-linecap="butt" d="m46.074024 153.34302l51.49606 0l0 34.11023l-51.49606 0z" fill-rule="evenodd"/><path fill="#000000" d="m74.568596 174.75313l-5.484375 0l-1.046875 3.125l-3.3125 0l5.640625 -15.15625l2.890625 0l5.671875 15.15625l-3.3125 0l-1.046875 -3.125zm-4.640625 -2.53125l3.796875 0l-1.90625 -5.671875l-1.890625 5.671875z" fill-rule="nonzero"/><path fill="#b6d7a8" d="m181.17914 153.34302l51.496063 0l0 34.11023l-51.496063 0z" fill-rule="evenodd"/><path stroke="#000000" stroke-width="2.0" stroke-linejoin="round" stroke-linecap="butt" d="m181.17914 153.34302l51.496063 0l0 34.11023l-51.496063 0z" fill-rule="evenodd"/><path fill="#000000" d="m211.41301 171.3l-6.0 0l0 4.0625l7.03125 0l0 2.515625l-10.15625 0l0 -15.15625l10.140625 0l0 2.53125l-7.015625 0l0 3.609375l6.0 0l0 2.4375z" fill-rule="nonzero"/><path fill="#000000" fill-opacity="0.0" d="m71.82205 153.34302l67.55905 -23.05513" fill-rule="evenodd"/><path stroke="#000000" stroke-width="2.0" stroke-linejoin="round" stroke-linecap="butt" d="m71.82205 153.34302l67.55905 -23.05513" fill-rule="evenodd"/><path fill="#000000" fill-opacity="0.0" d="m206.92717 153.34302l-67.55907 -23.05513" fill-rule="evenodd"/><path stroke="#000000" stroke-width="2.0" stroke-linejoin="round" stroke-linecap="butt" d="m206.92717 153.34302l-67.55907 -23.05513" fill-rule="evenodd"/><path fill="#b4a7d6" d="m113.20446 153.34302l51.496056 0l0 34.11023l-51.496056 0z" fill-rule="evenodd"/><path stroke="#000000" stroke-width="2.0" stroke-linejoin="round" stroke-linecap="butt" d="m113.20446 153.34302l51.496056 0l0 34.11023l-51.496056 0z" fill-rule="evenodd"/><path fill="#000000" d="m145.22502 172.83125q-0.171875 2.4375 -1.796875 3.84375q-1.625 1.40625 -4.296875 1.40625q-2.921875 0 -4.59375 -1.953125q-1.671875 -1.96875 -1.671875 -5.390625l0 -0.9375q0 -2.1875 0.765625 -3.84375q0.78125 -1.671875 2.203125 -2.5625q1.4375 -0.890625 3.34375 -0.890625q2.625 0 4.21875 1.40625q1.609375 1.40625 1.859375 3.953125l-3.125 0q-0.109375 -1.46875 -0.8125 -2.125q-0.703125 -0.671875 -2.140625 -0.671875q-1.5625 0 -2.34375 1.125q-0.78125 1.109375 -0.796875 3.46875l0 1.140625q0 2.46875 0.734375 3.609375q0.75 1.125 2.359375 1.125q1.453125 0 2.15625 -0.65625q0.71875 -0.671875 0.828125 -2.046875l3.109375 0z" fill-rule="nonzero"/><path fill="#000000" fill-opacity="0.0" d="m138.95248 153.34302l0.40945435 -23.05513" fill-rule="evenodd"/><path stroke="#000000" stroke-width="2.0" stroke-linejoin="round" stroke-linecap="butt" d="m138.95248 153.34302l0.40945435 -23.05513" fill-rule="evenodd"/></g></svg>