<svg version="1.1" viewBox="0.0 0.0 384.0 336.0" fill="none" stroke="none" stroke-linecap="square" stroke-miterlimit="10" xmlns:xlink="http://www.w3.org/1999/xlink" xmlns="http://www.w3.org/2000/svg"><clipPath id="p.0"><path d="m0 0l384.0 0l0 336.0l-384.0 0l0 -336.0z" clip-rule="nonzero"/></clipPath><g clip-path="url(#p.0)"><path fill="#000000" fill-opacity="0.0" d="m0 0l384.0 0l0 336.0l-384.0 0z" fill-rule="evenodd"/><path fill="#b6d7a8" d="m182.50262 15.998688l88.0 0l0 37.322834l-88.0 0z" fill-rule="evenodd"/><path stroke="#000000" stroke-width="2.0" stroke-linejoin="round" stroke-linecap="butt" d="m182.50262 15.998688l88.0 0l0 37.322834l-88.0 0z" fill-rule="evenodd"/><path fill="#000000" d="m215.84338 41.5801l-2.734375 0l-5.3125 -8.734375l0 8.734375l-2.734375 0l0 -13.265623l2.734375 0l5.328125 8.749998l0 -8.749998l2.71875 0l0 13.265623zm10.578583 -6.796875l-8.140625 0l0 -2.15625l8.140625 0l0 2.15625zm0 3.953125l-8.140625 0l0 -2.15625l8.140625 0l0 2.15625zm9.348206 -10.562498l0 2.171875l-0.265625 0q-1.78125 0.03125 -2.875 0.9375q-1.078125 0.8906231 -1.296875 2.499998q1.0625 -1.078125 2.671875 -1.078125q1.71875 0 2.734375 1.25q1.03125 1.234375 1.03125 3.25q0 1.296875 -0.5625 2.34375q-0.5625 1.046875 -1.59375 1.640625q-1.015625 0.578125 -2.3125 0.578125q-2.09375 0 -3.390625 -1.453125q-1.28125 -1.46875 -1.28125 -3.90625l0 -0.9375q0 -2.15625 0.8125 -3.812498q0.828125 -1.65625 2.34375 -2.5625q1.53125 -0.90625 3.546875 -0.921875l0.4375 0zm-2.578125 6.640623q-0.625 0 -1.15625 0.34375q-0.515625 0.328125 -0.765625 0.875l0 0.796875q0 1.328125 0.515625 2.078125q0.53125 0.734375 1.46875 0.734375q0.84375 0 1.359375 -0.671875q0.53125 -0.671875 0.53125 -1.734375q0 -1.078125 -0.53125 -1.75q-0.515625 -0.671875 -1.421875 -0.671875zm13.922409 1.78125l1.5 0l0 2.109375l-1.5 0l0 2.875l-2.625 0l0 -2.875l-5.4375 0l-0.125 -1.65625l5.53125 -8.734373l2.65625 0l0 8.281248zm-5.5625 0l2.9375 0l0 -4.687498l-0.171875 0.2968731l-2.765625 4.390625z" fill-rule="nonzero"/><path fill="#b6d7a8" d="m103.83596 91.99869l87.99999 0l0 37.32283l-87.99999 0z" fill-rule="evenodd"/><path stroke="#000000" stroke-width="2.0" stroke-linejoin="round" stroke-linecap="butt" d="m103.83596 91.99869l87.99999 0l0 37.32283l-87.99999 0z" fill-rule="evenodd"/><path fill="#000000" d="m137.17671 117.5801l-2.734375 0l-5.3125 -8.734375l0 8.734375l-2.7343674 0l0 -13.265625l2.7343674 0l5.328125 8.75l0 -8.75l2.71875 0l0 13.265625zm10.578583 -6.796875l-8.140625 0l0 -2.15625l8.140625 0l0 2.15625zm0 3.953125l-8.140625 0l0 -2.15625l8.140625 0l0 2.15625zm4.8794556 -4.953125l1.40625 0q1.0 0 1.484375 -0.5q0.484375 -0.5 0.484375 -1.328125q0 -0.8125 -0.484375 -1.25q-0.46875 -0.453125 -1.3125 -0.453125q-0.75 0 -1.265625 0.421875q-0.515625 0.40625 -0.515625 1.078125l-2.625 0q0 -1.046875 0.5625 -1.859375q0.5625 -0.828125 1.5625 -1.296875q1.0 -0.46875 2.21875 -0.46875q2.109375 0 3.296875 1.015625q1.1875 1.0 1.1875 2.765625q0 0.921875 -0.5625 1.6875q-0.546875 0.765625 -1.453125 1.171875q1.125 0.40625 1.671875 1.203125q0.5625 0.796875 0.5625 1.890625q0 1.765625 -1.296875 2.84375q-1.28125 1.0625 -3.40625 1.0625q-1.984375 0 -3.25 -1.046875q-1.265625 -1.046875 -1.265625 -2.78125l2.640625 0q0 0.75 0.5625 1.234375q0.5625 0.46875 1.375 0.46875q0.9375 0 1.46875 -0.5q0.53125 -0.5 0.53125 -1.3125q0 -1.984375 -2.1875 -1.984375l-1.390625 0l0 -2.0625zm17.125534 7.796875l-9.09375 0l0 -1.796875l4.28125 -4.578125q0.890625 -0.96875 1.3125 -1.6875q0.421875 -0.71875 0.421875 -1.359375q0 -0.890625 -0.453125 -1.390625q-0.4375 -0.515625 -1.265625 -0.515625q-0.890625 0 -1.40625 0.625q-0.515625 0.609375 -0.515625 1.609375l-2.640625 0q0 -1.203125 0.578125 -2.203125q0.578125 -1.015625 1.625 -1.578125q1.0625 -0.578125 2.40625 -0.578125q2.046875 0 3.171875 0.984375q1.140625 0.984375 1.140625 2.78125q0 0.984375 -0.515625 2.015625q-0.5 1.015625 -1.734375 2.375l-3.015625 3.171875l5.703125 0l0 2.125z" fill-rule="nonzero"/><path fill="#b6d7a8" d="m263.83597 91.99869l88.0 0l0 37.32283l-88.0 0z" fill-rule="evenodd"/><path stroke="#000000" stroke-width="2.0" stroke-linejoin="round" stroke-linecap="butt" d="m263.83597 91.99869l88.0 0l0 37.32283l-88.0 0z" fill-rule="evenodd"/><path fill="#000000" d="m297.17673 117.5801l-2.734375 0l-5.3125 -8.734375l0 8.734375l-2.734375 0l0 -13.265625l2.734375 0l5.328125 8.75l0 -8.75l2.71875 0l0 13.265625zm10.578583 -6.796875l-8.140625 0l0 -2.15625l8.140625 0l0 2.15625zm0 3.953125l-8.140625 0l0 -2.15625l8.140625 0l0 2.15625zm4.8794556 -4.953125l1.40625 0q1.0 0 1.484375 -0.5q0.484375 -0.5 0.484375 -1.328125q0 -0.8125 -0.484375 -1.25q-0.46875 -0.453125 -1.3125 -0.453125q-0.75 0 -1.265625 0.421875q-0.515625 0.40625 -0.515625 1.078125l-2.625 0q0 -1.046875 0.5625 -1.859375q0.5625 -0.828125 1.5625 -1.296875q1.0 -0.46875 2.21875 -0.46875q2.109375 0 3.296875 1.015625q1.1875 1.0 1.1875 2.765625q0 0.921875 -0.5625 1.6875q-0.546875 0.765625 -1.453125 1.171875q1.125 0.40625 1.671875 1.203125q0.5625 0.796875 0.5625 1.890625q0 1.765625 -1.296875 2.84375q-1.28125 1.0625 -3.40625 1.0625q-1.984375 0 -3.25 -1.046875q-1.265625 -1.046875 -1.265625 -2.78125l2.640625 0q0 0.75 0.5625 1.234375q0.5625 0.46875 1.375 0.46875q0.9375 0 1.46875 -0.5q0.53125 -0.5 0.53125 -1.3125q0 -1.984375 -2.1875 -1.984375l-1.390625 0l0 -2.0625zm17.125519 7.796875l-9.09375 0l0 -1.796875l4.28125 -4.578125q0.890625 -0.96875 1.3125 -1.6875q0.421875 -0.71875 0.421875 -1.359375q0 -0.890625 -0.453125 -1.390625q-0.4375 -0.515625 -1.265625 -0.515625q-0.890625 0 -1.40625 0.625q-0.515625 0.609375 -0.515625 1.609375l-2.640625 0q0 -1.203125 0.578125 -2.203125q0.578125 -1.015625 1.625 -1.578125q1.0625 -0.578125 2.40625 -0.578125q2.046875 0 3.171875 0.984375q1.140625 0.984375 1.140625 2.78125q0 0.984375 -0.515625 2.015625q-0.5 1.015625 -1.734375 2.375l-3.015625 3.171875l5.703125 0l0 2.125z" fill-rule="nonzero"/><path fill="#000000" fill-opacity="0.0" d="m147.83595 91.99869l78.67717 -38.677166" fill-rule="evenodd"/><path stroke="#000000" stroke-width="2.0" stroke-linejoin="round" stroke-linecap="butt" d="m147.83595 91.99869l67.90808 -33.383152" fill-rule="evenodd"/><path fill="#000000" stroke="#000000" stroke-width="2.0" stroke-linecap="butt" d="m217.20142 61.580147l6.6878204 -6.9687347l-9.602585 1.0395126z" fill-rule="evenodd"/><path fill="#000000" fill-opacity="0.0" d="m307.83597 91.99869l-81.322845 -38.677166" fill-rule="evenodd"/><path stroke="#000000" stroke-width="2.0" stroke-linejoin="round" stroke-linecap="butt" d="m307.83597 91.99869l-70.48605 -33.523174" fill-rule="evenodd"/><path fill="#000000" stroke="#000000" stroke-width="2.0" stroke-linecap="butt" d="m238.76877 55.49226l-9.61525 -0.9149666l6.7775726 6.8814697z" fill-rule="evenodd"/><path fill="#000000" fill-opacity="0.0" d="m0.16010289 91.99869l103.685036 0l0 37.32283l-103.685036 0z" fill-rule="evenodd"/><path fill="#000000" d="m72.703766 110.501976q0 1.4375 -0.859375 2.4375q-0.84375 0.984375 -2.09375 0.984375q-0.65625 0 -1.234375 -0.234375q-0.578125 -0.25 -1.359375 -0.921875q-0.765625 -0.6875 -1.109375 -0.84375q-0.328125 -0.171875 -0.703125 -0.171875q-0.71875 0 -1.109375 0.5q-0.375 0.484375 -0.375 1.34375l-1.46875 0.015625q0 -1.453125 0.84375 -2.390625q0.84375 -0.953125 2.109375 -0.953125q0.6875 0 1.328125 0.296875q0.640625 0.296875 1.4375 1.03125q0.796875 0.734375 1.390625 0.8125l0.25 0.03125q0.703125 0 1.125 -0.53125q0.4375 -0.53125 0.4375 -1.390625l1.390625 -0.015625zm4.7364044 -0.375l1.265625 0q1.203125 -0.015625 1.875 -0.625q0.6875 -0.609375 0.6875 -1.65625q0 -2.328125 -2.3125 -2.328125q-1.09375 0 -1.75 0.625q-0.65625 0.625 -0.65625 1.65625l-1.6875 0q0 -1.578125 1.15625 -2.625q1.15625 -1.046875 2.9375 -1.046875q1.875 0 2.9375 1.0q1.0625 1.0 1.0625 2.765625q0 0.859375 -0.5625 1.671875q-0.5625 0.8125 -1.515625 1.203125q1.09375 0.359375 1.6875 1.15625q0.59375 0.796875 0.59375 1.953125q0 1.796875 -1.171875 2.84375q-1.15625 1.046875 -3.03125 1.046875q-1.859375 0 -3.03125 -1.015625q-1.171875 -1.015625 -1.171875 -2.671875l1.6875 0q0 1.046875 0.6875 1.6875q0.6875 0.625 1.828125 0.625q1.21875 0 1.859375 -0.640625q0.65625 -0.640625 0.65625 -1.828125q0 -1.15625 -0.71875 -1.78125q-0.703125 -0.625 -2.046875 -0.640625l-1.265625 0l0 -1.375zm16.725922 7.453125l-8.6875 0l0 -1.21875l4.578125 -5.09375q1.03125 -1.15625 1.40625 -1.875q0.390625 -0.734375 0.390625 -1.5q0 -1.046875 -0.625 -1.703125q-0.625 -0.671875 -1.671875 -0.671875q-1.265625 0 -1.96875 0.71875q-0.6875 0.71875 -0.6875 1.984375l-1.6875 0q0 -1.828125 1.171875 -2.953125q1.1875 -1.140625 3.171875 -1.140625q1.84375 0 2.921875 0.984375q1.078125 0.96875 1.078125 2.578125q0 1.953125 -2.5 4.65625l-3.546875 3.859375l6.65625 0l0 1.375z" fill-rule="nonzero"/><path fill="#000000" fill-opacity="0.0" d="m94.53543 15.998688l88.0 0l0 37.322834l-88.0 0z" fill-rule="evenodd"/><path fill="#000000" d="m151.39406 34.501976q0 1.4375 -0.859375 2.4375q-0.84375 0.984375 -2.09375 0.984375q-0.65625 0 -1.234375 -0.234375q-0.578125 -0.25 -1.359375 -0.921875q-0.765625 -0.6875 -1.109375 -0.84375q-0.328125 -0.171875 -0.703125 -0.171875q-0.71875 0 -1.109375 0.5q-0.375 0.484375 -0.375 1.34375l-1.46875 0.015625q0 -1.453125 0.84375 -2.390625q0.84375 -0.953125 2.109375 -0.953125q0.6875 0 1.328125 0.296875q0.640625 0.296875 1.4375 1.03125q0.796875 0.734375 1.390625 0.8125l0.25 0.03125q0.703125 0 1.125 -0.53125q0.4375 -0.53125 0.4375 -1.390625l1.390625 -0.015625zm8.908279 -6.187498l0 1.421875l-0.3125 0q-1.96875 0.03125 -3.140625 1.171875q-1.15625 1.1249981 -1.34375 3.171873q1.046875 -1.203125 2.859375 -1.203125q1.734375 0 2.765625 1.21875q1.03125 1.21875 1.03125 3.15625q0 2.046875 -1.125 3.28125q-1.109375 1.234375 -2.984375 1.234375q-1.890625 0 -3.078125 -1.453125q-1.1875 -1.46875 -1.1875 -3.78125l0 -0.640625q0 -3.671875 1.5625 -5.609373q1.5625 -1.9375 4.65625 -1.96875l0.296875 0zm-2.21875 5.968748q-0.859375 0 -1.59375 0.515625q-0.734375 0.515625 -1.015625 1.3125l0 0.609375q0 1.640625 0.734375 2.640625q0.75 1.0 1.84375 1.0q1.140625 0 1.796875 -0.828125q0.65625 -0.84375 0.65625 -2.203125q0 -1.359375 -0.671875 -2.203125q-0.65625 -0.84375 -1.75 -0.84375zm13.194672 2.84375l1.84375 0l0 1.375l-1.84375 0l0 3.078125l-1.703125 0l0 -3.078125l-6.03125 0l0 -1.0l5.9375 -9.187498l1.796875 0l0 8.812498zm-5.828125 0l4.125 0l0 -6.499998l-0.1875 0.359375l-3.9375 6.140623z" fill-rule="nonzero"/><path fill="#000000" fill-opacity="0.0" d="m191.83728 91.99869l74.897644 0l0 37.32283l-74.897644 0z" fill-rule="evenodd"/><path fill="#000000" d="m235.59355 110.501976q0 1.4375 -0.859375 2.4375q-0.84375 0.984375 -2.09375 0.984375q-0.65625 0 -1.234375 -0.234375q-0.578125 -0.25 -1.359375 -0.921875q-0.765625 -0.6875 -1.109375 -0.84375q-0.328125 -0.171875 -0.703125 -0.171875q-0.71875 0 -1.109375 0.5q-0.375 0.484375 -0.375 1.34375l-1.46875 0.015625q0 -1.453125 0.84375 -2.390625q0.84375 -0.953125 2.109375 -0.953125q0.6875 0 1.328125 0.296875q0.640625 0.296875 1.4375 1.03125q0.796875 0.734375 1.390625 0.8125l0.25 0.03125q0.703125 0 1.125 -0.53125q0.4375 -0.53125 0.4375 -1.390625l1.390625 -0.015625zm4.7364044 -0.375l1.265625 0q1.203125 -0.015625 1.875 -0.625q0.6875 -0.609375 0.6875 -1.65625q0 -2.328125 -2.3125 -2.328125q-1.09375 0 -1.75 0.625q-0.65625 0.625 -0.65625 1.65625l-1.6875 0q0 -1.578125 1.15625 -2.625q1.15625 -1.046875 2.9375 -1.046875q1.875 0 2.9375 1.0q1.0625 1.0 1.0625 2.765625q0 0.859375 -0.5625 1.671875q-0.5625 0.8125 -1.515625 1.203125q1.09375 0.359375 1.6875 1.15625q0.59375 0.796875 0.59375 1.953125q0 1.796875 -1.171875 2.84375q-1.15625 1.046875 -3.03125 1.046875q-1.859375 0 -3.03125 -1.015625q-1.171875 -1.015625 -1.171875 -2.671875l1.6875 0q0 1.046875 0.6875 1.6875q0.6875 0.625 1.828125 0.625q1.21875 0 1.859375 -0.640625q0.65625 -0.640625 0.65625 -1.828125q0 -1.15625 -0.71875 -1.78125q-0.703125 -0.625 -2.046875 -0.640625l-1.265625 0l0 -1.375zm16.725922 7.453125l-8.6875 0l0 -1.21875l4.578125 -5.09375q1.03125 -1.15625 1.40625 -1.875q0.390625 -0.734375 0.390625 -1.5q0 -1.046875 -0.625 -1.703125q-0.625 -0.671875 -1.671875 -0.671875q-1.265625 0 -1.96875 0.71875q-0.6875 0.71875 -0.6875 1.984375l-1.6875 0q0 -1.828125 1.171875 -2.953125q1.1875 -1.140625 3.171875 -1.140625q1.84375 0 2.921875 0.984375q1.078125 0.96875 1.078125 2.578125q0 1.953125 -2.5 4.65625l-3.546875 3.859375l6.65625 0l0 1.375z" fill-rule="nonzero"/><path fill="#b6d7a8" d="m87.83596 167.93254l44.15748 0l0 37.322845l-44.15748 0z" fill-rule="evenodd"/><path stroke="#000000" stroke-width="2.0" stroke-linejoin="round" stroke-linecap="butt" d="m87.83596 167.93254l44.15748 0l0 37.322845l-44.15748 0z" fill-rule="evenodd"/><path fill="#000000" d="m106.50791 193.51396l-2.625 0l0 -10.140625l-3.15625 0.96875l0 -2.140625l5.5 -1.96875l0.28125 0l0 13.28125zm11.453659 -13.40625l0 2.171875l-0.265625 0q-1.78125 0.03125 -2.875 0.9375q-1.078125 0.890625 -1.296875 2.5q1.0625 -1.078125 2.671875 -1.078125q1.71875 0 2.734375 1.25q1.03125 1.234375 1.03125 3.25q0 1.296875 -0.5625 2.34375q-0.5625 1.046875 -1.59375 1.640625q-1.015625 0.578125 -2.3125 0.578125q-2.09375 0 -3.390625 -1.453125q-1.28125 -1.46875 -1.28125 -3.90625l0 -0.9375q0 -2.15625 0.8125 -3.8125q0.828125 -1.65625 2.34375 -2.5625q1.53125 -0.90625 3.546875 -0.921875l0.4375 0zm-2.578125 6.640625q-0.625 0 -1.15625 0.34375q-0.515625 0.328125 -0.765625 0.875l0 0.796875q0 1.328125 0.515625 2.078125q0.53125 0.734375 1.46875 0.734375q0.84375 0 1.359375 -0.671875q0.53125 -0.671875 0.53125 -1.734375q0 -1.078125 -0.53125 -1.75q-0.515625 -0.671875 -1.421875 -0.671875z" fill-rule="nonzero"/><path fill="#b6d7a8" d="m163.99344 167.93254l44.157486 0l0 37.322845l-44.157486 0z" fill-rule="evenodd"/><path stroke="#000000" stroke-width="2.0" stroke-linejoin="round" stroke-linecap="butt" d="m163.99344 167.93254l44.157486 0l0 37.322845l-44.157486 0z" fill-rule="evenodd"/><path fill="#000000" d="m182.66539 193.51396l-2.625 0l0 -10.140625l-3.15625 0.96875l0 -2.140625l5.5 -1.96875l0.28125 0l0 13.28125zm11.453659 -13.40625l0 2.171875l-0.265625 0q-1.78125 0.03125 -2.875 0.9375q-1.078125 0.890625 -1.296875 2.5q1.0625 -1.078125 2.671875 -1.078125q1.71875 0 2.734375 1.25q1.03125 1.234375 1.03125 3.25q0 1.296875 -0.5625 2.34375q-0.5625 1.046875 -1.59375 1.640625q-1.015625 0.578125 -2.3125 0.578125q-2.09375 0 -3.390625 -1.453125q-1.28125 -1.46875 -1.28125 -3.90625l0 -0.9375q0 -2.15625 0.8125 -3.8125q0.828125 -1.65625 2.34375 -2.5625q1.53125 -0.90625 3.546875 -0.921875l0.4375 0zm-2.578125 6.640625q-0.625 0 -1.15625 0.34375q-0.515625 0.328125 -0.765625 0.875l0 0.796875q0 1.328125 0.515625 2.078125q0.53125 0.734375 1.46875 0.734375q0.84375 0 1.359375 -0.671875q0.53125 -0.671875 0.53125 -1.734375q0 -1.078125 -0.53125 -1.75q-0.515625 -0.671875 -1.421875 -0.671875z" fill-rule="nonzero"/><path fill="#b6d7a8" d="m247.6842 167.93254l44.15747 0l0 37.322845l-44.15747 0z" fill-rule="evenodd"/><path stroke="#000000" stroke-width="2.0" stroke-linejoin="round" stroke-linecap="butt" d="m247.6842 167.93254l44.15747 0l0 37.322845l-44.15747 0z" fill-rule="evenodd"/><path fill="#000000" d="m266.35614 193.51396l-2.625 0l0 -10.140625l-3.1562195 0.96875l0 -2.140625l5.4999695 -1.96875l0.28125 0l0 13.28125zm11.453674 -13.40625l0 2.171875l-0.265625 0q-1.78125 0.03125 -2.875 0.9375q-1.078125 0.890625 -1.296875 2.5q1.0625 -1.078125 2.671875 -1.078125q1.71875 0 2.734375 1.25q1.03125 1.234375 1.03125 3.25q0 1.296875 -0.5625 2.34375q-0.5625 1.046875 -1.59375 1.640625q-1.015625 0.578125 -2.3125 0.578125q-2.09375 0 -3.390625 -1.453125q-1.28125 -1.46875 -1.28125 -3.90625l0 -0.9375q0 -2.15625 0.8125 -3.8125q0.828125 -1.65625 2.34375 -2.5625q1.53125 -0.90625 3.546875 -0.921875l0.4375 0zm-2.578125 6.640625q-0.625 0 -1.15625 0.34375q-0.515625 0.328125 -0.765625 0.875l0 0.796875q0 1.328125 0.515625 2.078125q0.53125 0.734375 1.46875 0.734375q0.84375 0 1.359375 -0.671875q0.53125 -0.671875 0.53125 -1.734375q0 -1.078125 -0.53125 -1.75q-0.515625 -0.671875 -1.421875 -0.671875z" fill-rule="nonzero"/><path fill="#b6d7a8" d="m323.84122 167.93254l44.15747 0l0 37.322845l-44.15747 0z" fill-rule="evenodd"/><path stroke="#000000" stroke-width="2.0" stroke-linejoin="round" stroke-linecap="butt" d="m323.84122 167.93254l44.15747 0l0 37.322845l-44.15747 0z" fill-rule="evenodd"/><path fill="#000000" d="m342.51315 193.51396l-2.625 0l0 -10.140625l-3.15625 0.96875l0 -2.140625l5.5 -1.96875l0.28125 0l0 13.28125zm11.453674 -13.40625l0 2.171875l-0.265625 0q-1.78125 0.03125 -2.875 0.9375q-1.078125 0.890625 -1.296875 2.5q1.0625 -1.078125 2.671875 -1.078125q1.71875 0 2.734375 1.25q1.03125 1.234375 1.03125 3.25q0 1.296875 -0.5625 2.34375q-0.5625 1.046875 -1.59375 1.640625q-1.015625 0.578125 -2.3125 0.578125q-2.09375 0 -3.390625 -1.453125q-1.28125 -1.46875 -1.28125 -3.90625l0 -0.9375q0 -2.15625 0.8125 -3.8125q0.828125 -1.65625 2.34375 -2.5625q1.53125 -0.90625 3.546875 -0.921875l0.4375 0zm-2.578125 6.640625q-0.625 0 -1.15625 0.34375q-0.515625 0.328125 -0.765625 0.875l0 0.796875q0 1.328125 0.515625 2.078125q0.53125 0.734375 1.46875 0.734375q0.84375 0 1.359375 -0.671875q0.53125 -0.671875 0.53125 -1.734375q0 -1.078125 -0.53125 -1.75q-0.515625 -0.671875 -1.421875 -0.671875z" fill-rule="nonzero"/><path fill="#000000" fill-opacity="0.0" d="m109.914696 167.93254l37.921257 -38.614166" fill-rule="evenodd"/><path stroke="#000000" stroke-width="2.0" stroke-linejoin="round" stroke-linecap="butt" d="m109.914696 167.93254l29.513145 -30.052414" fill-rule="evenodd"/><path fill="#000000" stroke="#000000" stroke-width="2.0" stroke-linecap="butt" d="m141.78479 140.19478l4.002533 -8.790329l-8.716431 4.1610107z" fill-rule="evenodd"/><path fill="#000000" fill-opacity="0.0" d="m186.07217 167.93254l-38.23622 -38.614166" fill-rule="evenodd"/><path stroke="#000000" stroke-width="2.0" stroke-linejoin="round" stroke-linecap="butt" d="m186.07217 167.93254l-29.79277 -30.08725" fill-rule="evenodd"/><path fill="#000000" stroke="#000000" stroke-width="2.0" stroke-linecap="butt" d="m158.62677 135.5209l-8.733566 -4.124939l4.0388336 8.773697z" fill-rule="evenodd"/><path fill="#000000" fill-opacity="0.0" d="m269.76294 167.93254l38.078735 -38.614166" fill-rule="evenodd"/><path stroke="#000000" stroke-width="2.0" stroke-linejoin="round" stroke-linecap="butt" d="m269.76294 167.93254l29.652893 -30.069855" fill-rule="evenodd"/><path fill="#000000" stroke="#000000" stroke-width="2.0" stroke-linecap="butt" d="m301.768 140.18222l4.0207214 -8.782013l-8.725037 4.1429443z" fill-rule="evenodd"/><path fill="#000000" fill-opacity="0.0" d="m345.91995 167.93254l-38.078735 -38.614166" fill-rule="evenodd"/><path stroke="#000000" stroke-width="2.0" stroke-linejoin="round" stroke-linecap="butt" d="m345.91995 167.93254l-29.652924 -30.069855" fill-rule="evenodd"/><path fill="#000000" stroke="#000000" stroke-width="2.0" stroke-linecap="butt" d="m318.6192 135.54315l-8.725037 -4.1429443l4.0207214 8.782013z" fill-rule="evenodd"/><path fill="#000000" fill-opacity="0.0" d="m-17.45932 167.93307l103.68504 0l0 37.32283l-103.68504 0z" fill-rule="evenodd"/><path fill="#000000" d="m55.084343 186.43636q0 1.4375 -0.859375 2.4375q-0.84375 0.984375 -2.09375 0.984375q-0.65625 0 -1.234375 -0.234375q-0.578125 -0.25 -1.359375 -0.921875q-0.765625 -0.6875 -1.109375 -0.84375q-0.328125 -0.171875 -0.703125 -0.171875q-0.71875 0 -1.109375 0.5q-0.375 0.484375 -0.375 1.34375l-1.46875 0.015625q0 -1.453125 0.84375 -2.390625q0.84375 -0.953125 2.109375 -0.953125q0.6875 0 1.328125 0.296875q0.640625 0.296875 1.4375 1.03125q0.796875 0.734375 1.390625 0.8125l0.25 0.03125q0.703125 0 1.125 -0.53125q0.4375 -0.53125 0.4375 -1.390625l1.390625 -0.015625zm7.8301544 7.078125l-1.6875 0l0 -11.234375l-3.40625 1.25l0 -1.53125l4.828125 -1.8125l0.265625 0l0 13.328125zm11.554047 -13.265625l0 1.421875l-0.3125 0q-1.96875 0.03125 -3.140625 1.171875q-1.15625 1.125 -1.34375 3.171875q1.046875 -1.203125 2.859375 -1.203125q1.734375 0 2.765625 1.21875q1.03125 1.21875 1.03125 3.15625q0 2.046875 -1.125 3.28125q-1.109375 1.234375 -2.984375 1.234375q-1.890625 0 -3.078125 -1.453125q-1.1875 -1.46875 -1.1875 -3.78125l0 -0.640625q0 -3.671875 1.5625 -5.609375q1.5625 -1.9375 4.65625 -1.96875l0.296875 0zm-2.21875 5.96875q-0.859375 0 -1.59375 0.515625q-0.734375 0.515625 -1.015625 1.3125l0 0.609375q0 1.640625 0.734375 2.640625q0.75 1.0 1.84375 1.0q1.140625 0 1.796875 -0.828125q0.65625 -0.84375 0.65625 -2.203125q0 -1.359375 -0.671875 -2.203125q-0.65625 -0.84375 -1.75 -0.84375z" fill-rule="nonzero"/><path fill="#b6d7a8" d="m50.016125 243.86955l44.157482 0l0 37.32283l-44.157482 0z" fill-rule="evenodd"/><path stroke="#000000" stroke-width="2.0" stroke-linejoin="round" stroke-linecap="butt" d="m50.016125 243.86955l44.157482 0l0 37.32283l-44.157482 0z" fill-rule="evenodd"/><path fill="#000000" d="m76.28991 259.71658q0 0.96875 -0.484375 1.71875q-0.484375 0.734375 -1.328125 1.1875q0.96875 0.453125 1.53125 1.28125q0.5625 0.8125 0.5625 1.90625q0 1.765625 -1.203125 2.796875q-1.203125 1.03125 -3.28125 1.03125q-2.0625 0 -3.28125 -1.03125q-1.203125 -1.03125 -1.203125 -2.796875q0 -1.09375 0.5625 -1.90625q0.578125 -0.828125 1.53125 -1.28125q-0.84375 -0.453125 -1.328125 -1.1875q-0.484375 -0.75 -0.484375 -1.71875q0 -1.703125 1.125 -2.703125q1.140625 -1.0156097 3.078125 -1.0156097q1.9375 0 3.0625 0.99998474q1.140625 1.0 1.140625 2.71875zm-2.359375 5.90625q0 -0.859375 -0.5 -1.375q-0.5 -0.53125 -1.34375 -0.53125q-0.84375 0 -1.34375 0.515625q-0.5 0.515625 -0.5 1.390625q0 0.84375 0.484375 1.375q0.5 0.515625 1.375 0.515625q0.859375 0 1.34375 -0.5q0.484375 -0.5 0.484375 -1.390625zm-0.265625 -5.78125q0 -0.78125 -0.421875 -1.25q-0.40625 -0.46875 -1.15625 -0.46875q-0.734375 0 -1.140625 0.46875q-0.40625 0.453125 -0.40625 1.25q0 0.796875 0.40625 1.28125q0.40625 0.46875 1.15625 0.46875q0.75 0 1.15625 -0.46875q0.40625 -0.484375 0.40625 -1.28125z" fill-rule="nonzero"/><path fill="#b6d7a8" d="m126.17361 243.86955l44.15748 0l0 37.32283l-44.15748 0z" fill-rule="evenodd"/><path stroke="#000000" stroke-width="2.0" stroke-linejoin="round" stroke-linecap="butt" d="m126.17361 243.86955l44.15748 0l0 37.32283l-44.15748 0z" fill-rule="evenodd"/><path fill="#000000" d="m152.44739 259.71658q0 0.96875 -0.484375 1.71875q-0.484375 0.734375 -1.328125 1.1875q0.96875 0.453125 1.53125 1.28125q0.5625 0.8125 0.5625 1.90625q0 1.765625 -1.203125 2.796875q-1.203125 1.03125 -3.28125 1.03125q-2.0625 0 -3.28125 -1.03125q-1.203125 -1.03125 -1.203125 -2.796875q0 -1.09375 0.5625 -1.90625q0.578125 -0.828125 1.53125 -1.28125q-0.84375 -0.453125 -1.328125 -1.1875q-0.484375 -0.75 -0.484375 -1.71875q0 -1.703125 1.125 -2.703125q1.140625 -1.0156097 3.078125 -1.0156097q1.9375 0 3.0625 0.99998474q1.140625 1.0 1.140625 2.71875zm-2.359375 5.90625q0 -0.859375 -0.5 -1.375q-0.5 -0.53125 -1.34375 -0.53125q-0.84375 0 -1.34375 0.515625q-0.5 0.515625 -0.5 1.390625q0 0.84375 0.484375 1.375q0.5 0.515625 1.375 0.515625q0.859375 0 1.34375 -0.5q0.484375 -0.5 0.484375 -1.390625zm-0.265625 -5.78125q0 -0.78125 -0.421875 -1.25q-0.40625 -0.46875 -1.15625 -0.46875q-0.734375 0 -1.140625 0.46875q-0.40625 0.453125 -0.40625 1.25q0 0.796875 0.40625 1.28125q0.40625 0.46875 1.15625 0.46875q0.75 0 1.15625 -0.46875q0.40625 -0.484375 0.40625 -1.28125z" fill-rule="nonzero"/><path fill="#000000" fill-opacity="0.0" d="m72.094864 243.86955l37.826775 -38.614166" fill-rule="evenodd"/><path stroke="#000000" stroke-width="2.0" stroke-linejoin="round" stroke-linecap="butt" d="m72.094864 243.86955l29.429344 -30.041946" fill-rule="evenodd"/><path fill="#000000" stroke="#000000" stroke-width="2.0" stroke-linecap="butt" d="m103.88405 216.13933l3.9915543 -8.795334l-8.711235 4.1718903z" fill-rule="evenodd"/><path fill="#000000" fill-opacity="0.0" d="m148.25235 243.86955l-38.33071 -38.614166" fill-rule="evenodd"/><path stroke="#000000" stroke-width="2.0" stroke-linejoin="round" stroke-linecap="butt" d="m148.25235 243.86955l-29.876747 -30.097687" fill-rule="evenodd"/><path fill="#000000" stroke="#000000" stroke-width="2.0" stroke-linecap="butt" d="m120.72009 211.44458l-8.73864 -4.1141663l4.0496597 8.768723z" fill-rule="evenodd"/><path fill="#000000" fill-opacity="0.0" d="m-55.279152 243.87007l103.68504 0l0 37.32283l-103.68504 0z" fill-rule="evenodd"/><path fill="#000000" d="m27.740433 262.37338q0 1.4375 -0.859375 2.4375q-0.84375 0.984375 -2.09375 0.984375q-0.65625 0 -1.234375 -0.234375q-0.578125 -0.25 -1.359375 -0.921875q-0.765625 -0.6875 -1.109375 -0.84375q-0.328125 -0.171875 -0.703125 -0.171875q-0.71875 0 -1.109375 0.5q-0.375 0.484375 -0.375 1.34375l-1.46875 0.015625q0 -1.453125 0.84375 -2.390625q0.84375 -0.953125 2.109375 -0.953125q0.6875 0 1.328125 0.296875q0.640625 0.296875 1.4375 1.03125q0.796875 0.734375 1.390625 0.8125l0.25 0.03125q0.703125 0 1.125 -0.53125q0.4375 -0.53125 0.4375 -1.390625l1.390625 -0.015625zm10.330154 -2.71875q0 0.984375 -0.53125 1.765625q-0.515625 0.765625 -1.40625 1.203125q1.046875 0.453125 1.640625 1.3125q0.609375 0.84375 0.609375 1.9375q0 1.71875 -1.171875 2.75q-1.15625 1.015625 -3.046875 1.015625q-1.90625 0 -3.0625 -1.03125q-1.15625 -1.03125 -1.15625 -2.734375q0 -1.078125 0.59375 -1.9375q0.59375 -0.875 1.625 -1.3125q-0.890625 -0.4375 -1.40625 -1.203125q-0.5 -0.78125 -0.5 -1.765625q0 -1.6875 1.078125 -2.671875q1.078125 -0.98439026 2.828125 -0.98439026q1.75 0 2.828125 0.98439026q1.078125 0.984375 1.078125 2.671875zm-1.375 6.1875q0 -1.125 -0.703125 -1.8125q-0.703125 -0.703125 -1.84375 -0.703125q-1.140625 0 -1.828125 0.6875q-0.6875 0.6875 -0.6875 1.828125q0 1.125 0.671875 1.78125q0.671875 0.640625 1.859375 0.640625q1.1875 0 1.859375 -0.65625q0.671875 -0.65625 0.671875 -1.765625zm-2.53125 -8.453125q-0.984375 0 -1.609375 0.625q-0.609375 0.609375 -0.609375 1.65625q0 1.015625 0.609375 1.640625q0.609375 0.625 1.609375 0.625q1.015625 0 1.609375 -0.625q0.609375 -0.625 0.609375 -1.625q0 -1.015625 -0.625 -1.65625q-0.625 -0.640625 -1.59375 -0.640625z" fill-rule="nonzero"/><path fill="#000000" fill-opacity="0.0" d="m170.3324 243.87007l103.68503 0l0 37.32283l-103.68503 0z" fill-rule="evenodd"/><path fill="#000000" d="m249.437 263.10776q0 -0.640625 0.40625 -1.03125q0.421875 -0.390625 1.0625 -0.390625q0.65625 0 1.078125 0.390625q0.421875 0.390625 0.421875 1.03125q0 0.625 -0.4375 1.015625q-0.421875 0.375 -1.046875 0.375q-0.65625 0 -1.078125 -0.390625q-0.40625 -0.390625 -0.40625 -1.0zm5.6205597 0q0 -0.640625 0.40625 -1.03125q0.421875 -0.390625 1.0625 -0.390625q0.65625 0 1.078125 0.390625q0.421875 0.390625 0.421875 1.03125q0 0.625 -0.4375 1.015625q-0.421875 0.375 -1.046875 0.375q-0.65625 0 -1.078125 -0.390625q-0.40625 -0.390625 -0.40625 -1.0zm5.620575 0q0 -0.640625 0.40625 -1.03125q0.421875 -0.390625 1.0625 -0.390625q0.65625 0 1.078125 0.390625q0.421875 0.390625 0.421875 1.03125q0 0.625 -0.4375 1.015625q-0.421875 0.375 -1.046875 0.375q-0.65625 0 -1.078125 -0.390625q-0.40625 -0.390625 -0.40625 -1.0z" fill-rule="nonzero"/><path fill="#000000" fill-opacity="0.0" d="m25.710348 289.1929l103.685036 0l0 37.322845l-103.685036 0z" fill-rule="evenodd"/><path fill="#000000" d="m104.81496 308.43057q0 -0.640625 0.40625 -1.03125q0.421875 -0.390625 1.0625 -0.390625q0.65625 0 1.078125 0.390625q0.421875 0.390625 0.421875 1.03125q0 0.625 -0.4375 1.015625q-0.421875 0.375 -1.046875 0.375q-0.65625 0 -1.078125 -0.390625q-0.40625 -0.390625 -0.40625 -1.0zm5.6205597 0q0 -0.640625 0.40625 -1.03125q0.421875 -0.390625 1.0625 -0.390625q0.65625 0 1.078125 0.390625q0.421875 0.390625 0.421875 1.03125q0 0.625 -0.4375 1.015625q-0.421875 0.375 -1.046875 0.375q-0.65625 0 -1.078125 -0.390625q-0.40625 -0.390625 -0.40625 -1.0zm5.6205597 0q0 -0.640625 0.40625 -1.03125q0.421875 -0.390625 1.0625 -0.390625q0.65625 0 1.078125 0.390625q0.421875 0.390625 0.421875 1.03125q0 0.625 -0.4375 1.015625q-0.421875 0.375 -1.046875 0.375q-0.65625 0 -1.078125 -0.390625q-0.40625 -0.390625 -0.40625 -1.0z" fill-rule="nonzero"/></g></svg>