<svg version="1.1" viewBox="0.0 0.0 960.0 400.0" fill="none" stroke="none" stroke-linecap="square" stroke-miterlimit="10" xmlns:xlink="http://www.w3.org/1999/xlink" xmlns="http://www.w3.org/2000/svg"><clipPath id="p.0"><path d="m0 0l960.0 0l0 400.0l-960.0 0l0 -400.0z" clip-rule="nonzero"/></clipPath><g clip-path="url(#p.0)"><path fill="#000000" fill-opacity="0.0" d="m0 0l960.0 0l0 400.0l-960.0 0z" fill-rule="evenodd"/><path fill="#b6d7a8" d="m108.53281 46.330708l56.692917 0l0 52.000004l-56.692917 0z" fill-rule="evenodd"/><path stroke="#000000" stroke-width="2.0" stroke-linejoin="round" stroke-linecap="butt" d="m108.53281 46.330708l56.692917 0l0 52.000004l-56.692917 0z" fill-rule="evenodd"/><path fill="#000000" d="m131.66638 72.48009l0.984375 -8.671879l9.5625 0l0 2.8281288l-6.796875 0l-0.421875 3.65625q1.21875 -0.640625 2.578125 -0.640625q2.4375 0 3.8125 1.515625q1.390625 1.515625 1.390625 4.234375q0 1.640625 -0.703125 2.953125q-0.703125 1.3125 -2.0 2.03125q-1.296875 0.71875 -3.0625 0.71875q-1.546875 0 -2.875 -0.625q-1.328125 -0.625 -2.09375 -1.765625q-0.765625 -1.140625 -0.8125 -2.59375l3.34375 0q0.109375 1.0625 0.75 1.65625q0.640625 0.59375 1.671875 0.59375q1.140625 0 1.765625 -0.828125q0.625 -0.828125 0.625 -2.328125q0 -1.453125 -0.71875 -2.21875q-0.71875 -0.78125 -2.03125 -0.78125q-1.203125 0 -1.953125 0.625l-0.328125 0.3125l-2.6875 -0.671875z" fill-rule="nonzero"/><path fill="#d9d9d9" d="m164.44884 46.330708l56.692917 0l0 52.000004l-56.692917 0z" fill-rule="evenodd"/><path stroke="#000000" stroke-width="2.0" stroke-linejoin="round" stroke-linecap="butt" d="m164.44884 46.330708l56.692917 0l0 52.000004l-56.692917 0z" fill-rule="evenodd"/><path fill="#000000" d="m190.51991 70.83946l1.796875 0q1.296875 0 1.90625 -0.640625q0.625 -0.65625 0.625 -1.71875q0 -1.03125 -0.609375 -1.59375q-0.609375 -0.578125 -1.6875 -0.578125q-0.984375 0 -1.640625 0.53125q-0.65625 0.53125 -0.65625 1.390625l-3.375 0q0 -1.34375 0.71875 -2.40625q0.71875 -1.0625 2.015625 -1.65625q1.296875 -0.5937538 2.84375 -0.5937538q2.71875 0 4.25 1.2968788q1.53125 1.296875 1.53125 3.5625q0 1.171875 -0.71875 2.15625q-0.703125 0.984375 -1.875 1.515625q1.453125 0.515625 2.15625 1.546875q0.703125 1.03125 0.703125 2.4375q0 2.265625 -1.65625 3.640625q-1.65625 1.375 -4.390625 1.375q-2.546875 0 -4.171875 -1.34375q-1.625 -1.359375 -1.625 -3.5625l3.390625 0q0 0.953125 0.71875 1.5625q0.71875 0.609375 1.78125 0.609375q1.203125 0 1.890625 -0.640625q0.6875 -0.640625 0.6875 -1.6875q0 -2.5625 -2.8125 -2.5625l-1.796875 0l0 -2.640625z" fill-rule="nonzero"/><path fill="#d9d9d9" d="m220.36487 46.330708l56.6929 0l0 52.000004l-56.6929 0z" fill-rule="evenodd"/><path stroke="#000000" stroke-width="2.0" stroke-linejoin="round" stroke-linecap="butt" d="m220.36487 46.330708l56.6929 0l0 52.000004l-56.6929 0z" fill-rule="evenodd"/><path fill="#000000" d="m254.68594 80.87071l-11.703125 0l0 -2.328125l5.53125 -5.875q1.125 -1.25 1.671875 -2.171875q0.546875 -0.921875 0.546875 -1.75q0 -1.140625 -0.578125 -1.78125q-0.5625 -0.65625 -1.640625 -0.65625q-1.140625 0 -1.8125 0.796875q-0.65625 0.78125 -0.65625 2.0625l-3.390625 0q0 -1.546875 0.734375 -2.828125q0.75 -1.296875 2.109375 -2.03125q1.359375 -0.7343788 3.078125 -0.7343788q2.640625 0 4.09375 1.2656288q1.46875 1.265625 1.46875 3.578125q0 1.265625 -0.65625 2.578125q-0.65625 1.3125 -2.25 3.046875l-3.890625 4.09375l7.34375 0l0 2.734375z" fill-rule="nonzero"/><path fill="#d9d9d9" d="m276.2809 46.330708l56.6929 0l0 52.000004l-56.6929 0z" fill-rule="evenodd"/><path stroke="#000000" stroke-width="2.0" stroke-linejoin="round" stroke-linecap="butt" d="m276.2809 46.330708l56.6929 0l0 52.000004l-56.6929 0z" fill-rule="evenodd"/><path fill="#000000" d="m307.1332 80.87071l-3.390625 0l0 -13.0625l-4.046875 1.265625l0 -2.765625l7.078125 -2.5312538l0.359375 0l0 17.093754z" fill-rule="nonzero"/><path fill="#d9d9d9" d="m388.11298 46.330708l56.692932 0l0 52.000004l-56.692932 0z" fill-rule="evenodd"/><path stroke="#000000" stroke-width="2.0" stroke-linejoin="round" stroke-linecap="butt" d="m388.11298 46.330708l56.692932 0l0 52.000004l-56.692932 0z" fill-rule="evenodd"/><path fill="#000000" d="m421.85593 68.33946q0 1.25 -0.625 2.21875q-0.609375 0.953125 -1.703125 1.515625q1.234375 0.609375 1.953125 1.65625q0.734375 1.046875 0.734375 2.46875q0 2.265625 -1.546875 3.59375q-1.546875 1.3125 -4.203125 1.3125q-2.65625 0 -4.21875 -1.328125q-1.5625 -1.328125 -1.5625 -3.578125q0 -1.421875 0.71875 -2.46875q0.734375 -1.0625 1.96875 -1.65625q-1.09375 -0.5625 -1.703125 -1.515625q-0.609375 -0.96875 -0.609375 -2.21875q0 -2.171875 1.453125 -3.46875q1.453125 -1.2968788 3.9375 -1.2968788q2.484375 0 3.9375 1.2812538q1.46875 1.28125 1.46875 3.484375zm-3.03125 7.609375q0 -1.109375 -0.65625 -1.78125q-0.640625 -0.671875 -1.71875 -0.671875q-1.078125 0 -1.734375 0.671875q-0.640625 0.65625 -0.640625 1.78125q0 1.09375 0.625 1.765625q0.640625 0.65625 1.765625 0.65625q1.109375 0 1.734375 -0.640625q0.625 -0.640625 0.625 -1.78125zm-0.359375 -7.4375q0 -1.0 -0.53125 -1.59375q-0.515625 -0.609375 -1.484375 -0.609375q-0.9375 0 -1.46875 0.59375q-0.53125 0.578125 -0.53125 1.609375q0 1.015625 0.53125 1.640625q0.53125 0.609375 1.484375 0.609375q0.96875 0 1.484375 -0.609375q0.515625 -0.625 0.515625 -1.640625z" fill-rule="nonzero"/><path fill="#d9d9d9" d="m444.029 46.330708l56.6929 0l0 52.000004l-56.6929 0z" fill-rule="evenodd"/><path stroke="#000000" stroke-width="2.0" stroke-linejoin="round" stroke-linecap="butt" d="m444.029 46.330708l56.6929 0l0 52.000004l-56.6929 0z" fill-rule="evenodd"/><path fill="#000000" d="m476.6782 74.44884l1.921875 0l0 2.734375l-1.921875 0l0 3.6875l-3.390625 0l0 -3.6875l-7.0 0l-0.15625 -2.140625l7.125 -11.234379l3.421875 0l0 10.640629zm-7.171875 0l3.78125 0l0 -6.03125l-0.21875 0.390625l-3.5625 5.640625z" fill-rule="nonzero"/><path fill="#d9d9d9" d="m499.94504 46.330708l56.6929 0l0 52.000004l-56.6929 0z" fill-rule="evenodd"/><path stroke="#000000" stroke-width="2.0" stroke-linejoin="round" stroke-linecap="butt" d="m499.94504 46.330708l56.6929 0l0 52.000004l-56.6929 0z" fill-rule="evenodd"/><path fill="#000000" d="m531.7505 63.636333l0 2.7812538l-0.328125 0q-2.296875 0.03125 -3.703125 1.203125q-1.390625 1.15625 -1.671875 3.21875q1.359375 -1.390625 3.4375 -1.390625q2.21875 0 3.53125 1.59375q1.3125 1.59375 1.3125 4.203125q0 1.65625 -0.71875 3.015625q-0.71875 1.34375 -2.046875 2.09375q-1.3125 0.75 -2.96875 0.75q-2.703125 0 -4.359375 -1.875q-1.65625 -1.875 -1.65625 -5.0l0 -1.21875q0 -2.78125 1.046875 -4.90625q1.046875 -2.125 3.015625 -3.296875q1.96875 -1.1718788 4.546875 -1.1718788l0.5625 0zm-3.296875 8.531254q-0.828125 0 -1.5 0.4375q-0.65625 0.421875 -0.96875 1.125l0 1.03125q0 1.703125 0.65625 2.65625q0.671875 0.953125 1.875 0.953125q1.09375 0 1.765625 -0.859375q0.671875 -0.859375 0.671875 -2.234375q0 -1.390625 -0.6875 -2.25q-0.671875 -0.859375 -1.8125 -0.859375z" fill-rule="nonzero"/><path fill="#d9d9d9" d="m332.19693 46.330708l56.6929 0l0 52.000004l-56.6929 0z" fill-rule="evenodd"/><path stroke="#000000" stroke-width="2.0" stroke-linejoin="round" stroke-linecap="butt" d="m332.19693 46.330708l56.6929 0l0 52.000004l-56.6929 0z" fill-rule="evenodd"/><path fill="#000000" d="m366.42426 65.69884l-6.59375 15.171875l-3.578125 0l6.609375 -14.328125l-8.484375 0l0 -2.7343788l12.046875 0l0 1.8906288z" fill-rule="nonzero"/><path fill="#b6d7a8" d="m60.614174 128.47244l56.69291 0l0 52.0l-56.69291 0z" fill-rule="evenodd"/><path stroke="#000000" stroke-width="2.0" stroke-linejoin="round" stroke-linecap="butt" d="m60.614174 128.47244l56.69291 0l0 52.0l-56.69291 0z" fill-rule="evenodd"/><path fill="#000000" d="m86.68524 152.98119l1.796875 0q1.296875 0 1.90625 -0.640625q0.625 -0.65625 0.625 -1.71875q0 -1.03125 -0.609375 -1.59375q-0.609375 -0.578125 -1.6875 -0.578125q-0.984375 0 -1.640625 0.53125q-0.65625 0.53125 -0.65625 1.390625l-3.375 0q0 -1.34375 0.71875 -2.40625q0.71875 -1.0625 2.015625 -1.65625q1.296875 -0.59375 2.84375 -0.59375q2.71875 0 4.25 1.296875q1.53125 1.296875 1.53125 3.5625q0 1.171875 -0.71875 2.15625q-0.703125 0.984375 -1.875 1.515625q1.453125 0.515625 2.15625 1.546875q0.703125 1.03125 0.703125 2.4375q0 2.265625 -1.65625 3.640625q-1.65625 1.375 -4.390625 1.375q-2.546875 0 -4.171875 -1.34375q-1.625 -1.359375 -1.625 -3.5625l3.390625 0q0 0.953125 0.71875 1.5625q0.71875 0.609375 1.78125 0.609375q1.203125 0 1.890625 -0.640625q0.6875 -0.640625 0.6875 -1.6875q0 -2.5625 -2.8125 -2.5625l-1.796875 0l0 -2.640625z" fill-rule="nonzero"/><path fill="#d9d9d9" d="m116.530205 128.47244l56.69291 0l0 52.0l-56.69291 0z" fill-rule="evenodd"/><path stroke="#000000" stroke-width="2.0" stroke-linejoin="round" stroke-linecap="butt" d="m116.530205 128.47244l56.69291 0l0 52.0l-56.69291 0z" fill-rule="evenodd"/><path fill="#000000" d="m150.85127 163.01244l-11.703125 0l0 -2.328125l5.53125 -5.875q1.125 -1.25 1.671875 -2.171875q0.546875 -0.921875 0.546875 -1.75q0 -1.140625 -0.578125 -1.78125q-0.5625 -0.65625 -1.640625 -0.65625q-1.140625 0 -1.8125 0.796875q-0.65625 0.78125 -0.65625 2.0625l-3.390625 0q0 -1.546875 0.734375 -2.828125q0.75 -1.296875 2.109375 -2.03125q1.359375 -0.734375 3.078125 -0.734375q2.640625 0 4.09375 1.265625q1.46875 1.265625 1.46875 3.578125q0 1.265625 -0.65625 2.578125q-0.65625 1.3125 -2.25 3.046875l-3.890625 4.09375l7.34375 0l0 2.734375z" fill-rule="nonzero"/><path fill="#d9d9d9" d="m172.44623 128.47244l56.692917 0l0 52.0l-56.692917 0z" fill-rule="evenodd"/><path stroke="#000000" stroke-width="2.0" stroke-linejoin="round" stroke-linecap="butt" d="m172.44623 128.47244l56.692917 0l0 52.0l-56.692917 0z" fill-rule="evenodd"/><path fill="#000000" d="m203.29855 163.01244l-3.390625 0l0 -13.0625l-4.046875 1.265625l0 -2.765625l7.078125 -2.53125l0.359375 0l0 17.09375z" fill-rule="nonzero"/><path fill="#d9d9d9" d="m228.36226 128.47244l56.692917 0l0 52.0l-56.692917 0z" fill-rule="evenodd"/><path stroke="#000000" stroke-width="2.0" stroke-linejoin="round" stroke-linecap="butt" d="m228.36226 128.47244l56.692917 0l0 52.0l-56.692917 0z" fill-rule="evenodd"/><path fill="#000000" d="m261.01144 156.59056l1.921875 0l0 2.734375l-1.921875 0l0 3.6875l-3.390625 0l0 -3.6875l-6.9999847 0l-0.15625 -2.140625l7.1249847 -11.234375l3.421875 0l0 10.640625zm-7.1718597 0l3.7812347 0l0 -6.03125l-0.21875 0.390625l-3.5624847 5.640625z" fill-rule="nonzero"/><path fill="#b6d7a8" d="m371.945 128.47244l56.6929 0l0 52.0l-56.6929 0z" fill-rule="evenodd"/><path stroke="#000000" stroke-width="2.0" stroke-linejoin="round" stroke-linecap="butt" d="m371.945 128.47244l56.6929 0l0 52.0l-56.6929 0z" fill-rule="evenodd"/><path fill="#000000" d="m406.17233 147.84056l-6.59375 15.171875l-3.578125 0l6.609375 -14.328125l-8.484375 0l0 -2.734375l12.046875 0l0 1.890625z" fill-rule="nonzero"/><path fill="#d9d9d9" d="m427.86102 128.47244l56.6929 0l0 52.0l-56.6929 0z" fill-rule="evenodd"/><path stroke="#000000" stroke-width="2.0" stroke-linejoin="round" stroke-linecap="butt" d="m427.86102 128.47244l56.6929 0l0 52.0l-56.6929 0z" fill-rule="evenodd"/><path fill="#000000" d="m461.60397 150.48119q0 1.25 -0.625 2.21875q-0.609375 0.953125 -1.7031555 1.515625q1.2344055 0.609375 1.9531555 1.65625q0.734375 1.046875 0.734375 2.46875q0 2.265625 -1.546875 3.59375q-1.5469055 1.3125 -4.2031555 1.3125q-2.65625 0 -4.21875 -1.328125q-1.5625 -1.328125 -1.5625 -3.578125q0 -1.421875 0.71875 -2.46875q0.734375 -1.0625 1.96875 -1.65625q-1.09375 -0.5625 -1.703125 -1.515625q-0.609375 -0.96875 -0.609375 -2.21875q0 -2.171875 1.453125 -3.46875q1.453125 -1.296875 3.9375 -1.296875q2.484375 0 3.9375305 1.28125q1.46875 1.28125 1.46875 3.484375zm-3.0312805 7.609375q0 -1.109375 -0.65625 -1.78125q-0.640625 -0.671875 -1.71875 -0.671875q-1.078125 0 -1.734375 0.671875q-0.640625 0.65625 -0.640625 1.78125q0 1.09375 0.625 1.765625q0.640625 0.65625 1.765625 0.65625q1.109375 0 1.734375 -0.640625q0.625 -0.640625 0.625 -1.78125zm-0.359375 -7.4375q0 -1.0 -0.53125 -1.59375q-0.515625 -0.609375 -1.484375 -0.609375q-0.9375 0 -1.46875 0.59375q-0.53125 0.578125 -0.53125 1.609375q0 1.015625 0.53125 1.640625q0.53125 0.609375 1.484375 0.609375q0.96875 0 1.484375 -0.609375q0.515625 -0.625 0.515625 -1.640625z" fill-rule="nonzero"/><path fill="#d9d9d9" d="m483.77707 128.47244l56.6929 0l0 52.0l-56.6929 0z" fill-rule="evenodd"/><path stroke="#000000" stroke-width="2.0" stroke-linejoin="round" stroke-linecap="butt" d="m483.77707 128.47244l56.6929 0l0 52.0l-56.6929 0z" fill-rule="evenodd"/><path fill="#000000" d="m515.5825 145.77806l0 2.78125l-0.328125 0q-2.296875 0.03125 -3.703125 1.203125q-1.390625 1.15625 -1.671875 3.21875q1.359375 -1.390625 3.4375 -1.390625q2.21875 0 3.53125 1.59375q1.3125 1.59375 1.3125 4.203125q0 1.65625 -0.71875 3.015625q-0.71875 1.34375 -2.046875 2.09375q-1.3125 0.75 -2.96875 0.75q-2.703125 0 -4.359375 -1.875q-1.65625 -1.875 -1.65625 -5.0l0 -1.21875q0 -2.78125 1.046875 -4.90625q1.046875 -2.125 3.015625 -3.296875q1.96875 -1.171875 4.546875 -1.171875l0.5625 0zm-3.296875 8.53125q-0.828125 0 -1.5 0.4375q-0.65625 0.421875 -0.96875 1.125l0 1.03125q0 1.703125 0.65625 2.65625q0.671875 0.953125 1.875 0.953125q1.09375 0 1.765625 -0.859375q0.671875 -0.859375 0.671875 -2.234375q0 -1.390625 -0.6875 -2.25q-0.671875 -0.859375 -1.8125 -0.859375z" fill-rule="nonzero"/><path fill="#b6d7a8" d="m28.614174 213.70944l56.69291 0l0 52.0l-56.69291 0z" fill-rule="evenodd"/><path stroke="#000000" stroke-width="2.0" stroke-linejoin="round" stroke-linecap="butt" d="m28.614174 213.70944l56.69291 0l0 52.0l-56.69291 0z" fill-rule="evenodd"/><path fill="#000000" d="m62.93524 248.24944l-11.703129 0l0 -2.328125l5.53125 -5.875q1.125 -1.25 1.671875 -2.171875q0.546875 -0.921875 0.546875 -1.75q0 -1.140625 -0.578125 -1.78125q-0.5625 -0.65625 -1.640625 -0.65625q-1.140625 0 -1.8125 0.796875q-0.65625 0.78125 -0.65625 2.0625l-3.390625 0q0 -1.546875 0.734375 -2.828125q0.75 -1.296875 2.109375 -2.03125q1.359375 -0.734375 3.078125 -0.734375q2.640625 0 4.093754 1.265625q1.46875 1.265625 1.46875 3.578125q0 1.265625 -0.65625 2.578125q-0.65625 1.3125 -2.2500038 3.046875l-3.890625 4.09375l7.343754 0l0 2.734375z" fill-rule="nonzero"/><path fill="#d9d9d9" d="m84.530205 213.70944l56.69291 0l0 52.0l-56.69291 0z" fill-rule="evenodd"/><path stroke="#000000" stroke-width="2.0" stroke-linejoin="round" stroke-linecap="butt" d="m84.530205 213.70944l56.69291 0l0 52.0l-56.69291 0z" fill-rule="evenodd"/><path fill="#000000" d="m115.38252 248.24944l-3.390625 0l0 -13.0625l-4.046875 1.265625l0 -2.765625l7.078125 -2.53125l0.359375 0l0 17.09375z" fill-rule="nonzero"/><path fill="#d9d9d9" d="m228.19603 213.70944l56.692917 0l0 52.0l-56.692917 0z" fill-rule="evenodd"/><path stroke="#000000" stroke-width="2.0" stroke-linejoin="round" stroke-linecap="butt" d="m228.19603 213.70944l56.692917 0l0 52.0l-56.692917 0z" fill-rule="evenodd"/><path fill="#000000" d="m260.8452 241.82756l1.921875 0l0 2.734375l-1.921875 0l0 3.6875l-3.390625 0l0 -3.6875l-7.0 0l-0.15625 -2.140625l7.125 -11.234375l3.421875 0l0 10.640625zm-7.171875 0l3.78125 0l0 -6.03125l-0.21875 0.390625l-3.5625 5.640625z" fill-rule="nonzero"/><path fill="#d9d9d9" d="m371.86188 213.70944l56.6929 0l0 52.0l-56.6929 0z" fill-rule="evenodd"/><path stroke="#000000" stroke-width="2.0" stroke-linejoin="round" stroke-linecap="butt" d="m371.86188 213.70944l56.6929 0l0 52.0l-56.6929 0z" fill-rule="evenodd"/><path fill="#000000" d="m403.66733 231.01506l0 2.78125l-0.328125 0q-2.296875 0.03125 -3.703125 1.203125q-1.390625 1.15625 -1.671875 3.21875q1.359375 -1.390625 3.4375 -1.390625q2.21875 0 3.53125 1.59375q1.3125 1.59375 1.3125 4.203125q0 1.65625 -0.71875 3.015625q-0.71875 1.34375 -2.046875 2.09375q-1.3125 0.75 -2.96875 0.75q-2.703125 0 -4.359375 -1.875q-1.65625 -1.875 -1.65625 -5.0l0 -1.21875q0 -2.78125 1.046875 -4.90625q1.046875 -2.125 3.015625 -3.296875q1.96875 -1.171875 4.546875 -1.171875l0.5625 0zm-3.296875 8.53125q-0.828125 0 -1.5 0.4375q-0.65625 0.421875 -0.96875 1.125l0 1.03125q0 1.703125 0.65625 2.65625q0.671875 0.953125 1.875 0.953125q1.09375 0 1.765625 -0.859375q0.671875 -0.859375 0.671875 -2.234375q0 -1.390625 -0.6875 -2.25q-0.671875 -0.859375 -1.8125 -0.859375z" fill-rule="nonzero"/><path fill="#d9d9d9" d="m515.5277 213.70944l56.692932 0l0 52.0l-56.692932 0z" fill-rule="evenodd"/><path stroke="#000000" stroke-width="2.0" stroke-linejoin="round" stroke-linecap="butt" d="m515.5277 213.70944l56.692932 0l0 52.0l-56.692932 0z" fill-rule="evenodd"/><path fill="#000000" d="m549.2707 235.71819q0 1.25 -0.625 2.21875q-0.609375 0.953125 -1.703125 1.515625q1.234375 0.609375 1.953125 1.65625q0.734375 1.046875 0.734375 2.46875q0 2.265625 -1.546875 3.59375q-1.546875 1.3125 -4.203125 1.3125q-2.65625 0 -4.21875 -1.328125q-1.5625 -1.328125 -1.5625 -3.578125q0 -1.421875 0.71875 -2.46875q0.734375 -1.0625 1.96875 -1.65625q-1.09375 -0.5625 -1.703125 -1.515625q-0.609375 -0.96875 -0.609375 -2.21875q0 -2.171875 1.453125 -3.46875q1.453125 -1.296875 3.9375 -1.296875q2.484375 0 3.9375 1.28125q1.46875 1.28125 1.46875 3.484375zm-3.03125 7.609375q0 -1.109375 -0.65625 -1.78125q-0.640625 -0.671875 -1.71875 -0.671875q-1.078125 0 -1.734375 0.671875q-0.640625 0.65625 -0.640625 1.78125q0 1.09375 0.625 1.765625q0.640625 0.65625 1.765625 0.65625q1.109375 0 1.734375 -0.640625q0.625 -0.640625 0.625 -1.78125zm-0.359375 -7.4375q0 -1.0 -0.53125 -1.59375q-0.515625 -0.609375 -1.484375 -0.609375q-0.9375 0 -1.46875 0.59375q-0.53125 0.578125 -0.53125 1.609375q0 1.015625 0.53125 1.640625q0.53125 0.609375 1.484375 0.609375q0.96875 0 1.484375 -0.609375q0.515625 -0.625 0.515625 -1.640625z" fill-rule="nonzero"/><path fill="#d9ead3" d="m300.1523 129.12703l56.6929 0l0 52.0l-56.6929 0z" fill-rule="evenodd"/><path stroke="#cccccc" stroke-width="2.0" stroke-linejoin="round" stroke-linecap="butt" d="m300.1523 129.12703l56.6929 0l0 52.0l-56.6929 0z" fill-rule="evenodd"/><path fill="#cccccc" d="m323.2859 155.27641l0.984375 -8.671875l9.5625 0l0 2.828125l-6.796875 0l-0.421875 3.65625q1.21875 -0.640625 2.578125 -0.640625q2.4375 0 3.8125 1.515625q1.390625 1.515625 1.390625 4.234375q0 1.640625 -0.703125 2.953125q-0.703125 1.3125 -2.0 2.03125q-1.296875 0.71875 -3.0625 0.71875q-1.546875 0 -2.875 -0.625q-1.328125 -0.625 -2.09375 -1.765625q-0.765625 -1.140625 -0.8125 -2.59375l3.34375 0q0.109375 1.0625 0.75 1.65625q0.640625 0.59375 1.671875 0.59375q1.140625 0 1.765625 -0.828125q0.625 -0.828125 0.625 -2.328125q0 -1.453125 -0.71875 -2.21875q-0.71875 -0.78125 -2.03125 -0.78125q-1.203125 0 -1.953125 0.625l-0.328125 0.3125l-2.6875 -0.671875z" fill-rule="nonzero"/><path fill="#d9ead3" d="m156.36311 213.70944l56.692917 0l0 52.0l-56.692917 0z" fill-rule="evenodd"/><path stroke="#cccccc" stroke-width="2.0" stroke-linejoin="round" stroke-linecap="butt" d="m156.36311 213.70944l56.692917 0l0 52.0l-56.692917 0z" fill-rule="evenodd"/><path fill="#cccccc" d="m182.43419 238.21819l1.796875 0q1.296875 0 1.90625 -0.640625q0.625 -0.65625 0.625 -1.71875q0 -1.03125 -0.609375 -1.59375q-0.609375 -0.578125 -1.6875 -0.578125q-0.984375 0 -1.640625 0.53125q-0.65625 0.53125 -0.65625 1.390625l-3.375 0q0 -1.34375 0.71875 -2.40625q0.71875 -1.0625 2.015625 -1.65625q1.296875 -0.59375 2.84375 -0.59375q2.71875 0 4.25 1.296875q1.53125 1.296875 1.53125 3.5625q0 1.171875 -0.71875 2.15625q-0.703125 0.984375 -1.875 1.515625q1.453125 0.515625 2.15625 1.546875q0.703125 1.03125 0.703125 2.4375q0 2.265625 -1.65625 3.640625q-1.65625 1.375 -4.390625 1.375q-2.546875 0 -4.171875 -1.34375q-1.625 -1.359375 -1.625 -3.5625l3.390625 0q0 0.953125 0.71875 1.5625q0.71875 0.609375 1.78125 0.609375q1.203125 0 1.890625 -0.640625q0.6875 -0.640625 0.6875 -1.6875q0 -2.5625 -2.8125 -2.5625l-1.796875 0l0 -2.640625z" fill-rule="nonzero"/><path fill="#d9ead3" d="m300.02896 213.70944l56.6929 0l0 52.0l-56.6929 0z" fill-rule="evenodd"/><path stroke="#cccccc" stroke-width="2.0" stroke-linejoin="round" stroke-linecap="butt" d="m300.02896 213.70944l56.6929 0l0 52.0l-56.6929 0z" fill-rule="evenodd"/><path fill="#cccccc" d="m323.1625 239.85881l0.984375 -8.671875l9.5625 0l0 2.828125l-6.796875 0l-0.421875 3.65625q1.21875 -0.640625 2.578125 -0.640625q2.4375 0 3.8125 1.515625q1.390625 1.515625 1.390625 4.234375q0 1.640625 -0.703125 2.953125q-0.703125 1.3125 -2.0 2.03125q-1.296875 0.71875 -3.0625 0.71875q-1.546875 0 -2.875 -0.625q-1.328125 -0.625 -2.09375 -1.765625q-0.765625 -1.140625 -0.8125 -2.59375l3.34375 0q0.109375 1.0625 0.75 1.65625q0.640625 0.59375 1.671875 0.59375q1.140625 0 1.765625 -0.828125q0.625 -0.828125 0.625 -2.328125q0 -1.453125 -0.71875 -2.21875q-0.71875 -0.78125 -2.03125 -0.78125q-1.203125 0 -1.953125 0.625l-0.328125 0.3125l-2.6875 -0.671875z" fill-rule="nonzero"/><path fill="#d9ead3" d="m443.6948 213.70944l56.692932 0l0 52.0l-56.692932 0z" fill-rule="evenodd"/><path stroke="#cccccc" stroke-width="2.0" stroke-linejoin="round" stroke-linecap="butt" d="m443.6948 213.70944l56.692932 0l0 52.0l-56.692932 0z" fill-rule="evenodd"/><path fill="#cccccc" d="m477.92212 233.07756l-6.59375 15.171875l-3.578125 0l6.609375 -14.328125l-8.484375 0l0 -2.734375l12.046875 0l0 1.890625z" fill-rule="nonzero"/><path fill="#b6d7a8" d="m752.3622 46.330708l56.692932 0l0 52.000004l-56.692932 0z" fill-rule="evenodd"/><path stroke="#000000" stroke-width="2.0" stroke-linejoin="round" stroke-linecap="butt" d="m752.3622 46.330708l56.692932 0l0 52.000004l-56.692932 0z" fill-rule="evenodd"/><path fill="#000000" d="m775.4958 72.48009l0.984375 -8.671879l9.5625 0l0 2.8281288l-6.796875 0l-0.421875 3.65625q1.21875 -0.640625 2.578125 -0.640625q2.4375 0 3.8125 1.515625q1.390625 1.515625 1.390625 4.234375q0 1.640625 -0.703125 2.953125q-0.703125 1.3125 -2.0 2.03125q-1.296875 0.71875 -3.0625 0.71875q-1.546875 0 -2.875 -0.625q-1.328125 -0.625 -2.09375 -1.765625q-0.765625 -1.140625 -0.8125 -2.59375l3.34375 0q0.109375 1.0625 0.75 1.65625q0.640625 0.59375 1.671875 0.59375q1.140625 0 1.765625 -0.828125q0.625 -0.828125 0.625 -2.328125q0 -1.453125 -0.71875 -2.21875q-0.71875 -0.78125 -2.03125 -0.78125q-1.203125 0 -1.953125 0.625l-0.328125 0.3125l-2.6875 -0.671875z" fill-rule="nonzero"/><path fill="#b6d7a8" d="m672.3622 126.33071l56.692932 0l0 51.999992l-56.692932 0z" fill-rule="evenodd"/><path stroke="#000000" stroke-width="2.0" stroke-linejoin="round" stroke-linecap="butt" d="m672.3622 126.33071l56.692932 0l0 51.999992l-56.692932 0z" fill-rule="evenodd"/><path fill="#000000" d="m698.4333 150.83946l1.796875 0q1.296875 0 1.90625 -0.640625q0.625 -0.65625 0.625 -1.71875q0 -1.03125 -0.609375 -1.59375q-0.609375 -0.578125 -1.6875 -0.578125q-0.984375 0 -1.640625 0.53125q-0.65625 0.53125 -0.65625 1.390625l-3.375 0q0 -1.34375 0.71875 -2.40625q0.71875 -1.0625 2.015625 -1.65625q1.296875 -0.59375 2.84375 -0.59375q2.71875 0 4.25 1.296875q1.53125 1.296875 1.53125 3.5625q0 1.171875 -0.71875 2.15625q-0.703125 0.984375 -1.875 1.515625q1.453125 0.515625 2.15625 1.546875q0.703125 1.03125 0.703125 2.4375q0 2.265625 -1.65625 3.640625q-1.65625 1.375 -4.390625 1.375q-2.546875 0 -4.171875 -1.34375q-1.625 -1.359375 -1.625 -3.5625l3.390625 0q0 0.953125 0.71875 1.5625q0.71875 0.609375 1.78125 0.609375q1.203125 0 1.890625 -0.640625q0.6875 -0.640625 0.6875 -1.6875q0 -2.5625 -2.8125 -2.5625l-1.796875 0l0 -2.640625z" fill-rule="nonzero"/><path fill="#000000" fill-opacity="0.0" d="m780.7087 98.33071l-80.0 28.0" fill-rule="evenodd"/><path stroke="#000000" stroke-width="2.0" stroke-linejoin="round" stroke-linecap="butt" d="m780.7087 98.33071l-68.67377 24.03579" fill-rule="evenodd"/><path fill="#000000" stroke="#000000" stroke-width="2.0" stroke-linecap="butt" d="m710.94366 119.2485l-7.475342 6.116333l9.657959 0.11967468z" fill-rule="evenodd"/><path fill="#b6d7a8" d="m833.0552 126.33071l56.692932 0l0 51.999992l-56.692932 0z" fill-rule="evenodd"/><path stroke="#000000" stroke-width="2.0" stroke-linejoin="round" stroke-linecap="butt" d="m833.0552 126.33071l56.692932 0l0 51.999992l-56.692932 0z" fill-rule="evenodd"/><path fill="#000000" d="m867.28253 145.69884l-6.59375 15.171875l-3.578125 0l6.609375 -14.328125l-8.484375 0l0 -2.734375l12.046875 0l0 1.890625z" fill-rule="nonzero"/><path fill="#000000" fill-opacity="0.0" d="m780.7087 98.33071l80.69287 28.0" fill-rule="evenodd"/><path stroke="#000000" stroke-width="2.0" stroke-linejoin="round" stroke-linecap="butt" d="m780.7087 98.33071l69.35602 24.066154" fill-rule="evenodd"/><path fill="#000000" stroke="#000000" stroke-width="2.0" stroke-linecap="butt" d="m848.98175 125.51779l9.657593 -0.14556122l-7.491699 -6.0962753z" fill-rule="evenodd"/><path fill="#b6d7a8" d="m626.2152 213.70866l56.692932 0l0 51.999985l-56.692932 0z" fill-rule="evenodd"/><path stroke="#000000" stroke-width="2.0" stroke-linejoin="round" stroke-linecap="butt" d="m626.2152 213.70866l56.692932 0l0 51.999985l-56.692932 0z" fill-rule="evenodd"/><path fill="#000000" d="m660.5363 248.24866l-11.703125 0l0 -2.328125l5.53125 -5.875q1.125 -1.25 1.671875 -2.171875q0.546875 -0.921875 0.546875 -1.75q0 -1.140625 -0.578125 -1.78125q-0.5625 -0.65625 -1.640625 -0.65625q-1.140625 0 -1.8125 0.796875q-0.65625 0.78125 -0.65625 2.0625l-3.390625 0q0 -1.546875 0.734375 -2.828125q0.75 -1.296875 2.109375 -2.03125q1.359375 -0.734375 3.078125 -0.734375q2.640625 0 4.09375 1.265625q1.46875 1.265625 1.46875 3.578125q0 1.265625 -0.65625 2.578125q-0.65625 1.3125 -2.25 3.046875l-3.890625 4.09375l7.34375 0l0 2.734375z" fill-rule="nonzero"/><path fill="#000000" fill-opacity="0.0" d="m700.7087 178.3307l-46.141724 35.370087" fill-rule="evenodd"/><path stroke="#000000" stroke-width="2.0" stroke-linejoin="round" stroke-linecap="butt" d="m700.7087 178.3307l-36.61798 28.06958" fill-rule="evenodd"/><path fill="#000000" stroke="#000000" stroke-width="2.0" stroke-linecap="butt" d="m662.081 203.7785l-5.1936035 8.143509l9.213074 -2.8999329z" fill-rule="evenodd"/><path fill="#d9d9d9" d="m715.02625 213.70866l56.692932 0l0 51.999985l-56.692932 0z" fill-rule="evenodd"/><path stroke="#000000" stroke-width="2.0" stroke-linejoin="round" stroke-linecap="butt" d="m715.02625 213.70866l56.692932 0l0 51.999985l-56.692932 0z" fill-rule="evenodd"/><path fill="#000000" d="m747.6754 241.82678l1.921875 0l0 2.734375l-1.921875 0l0 3.6875l-3.390625 0l0 -3.6875l-7.0 0l-0.15625 -2.140625l7.125 -11.234375l3.421875 0l0 10.640625zm-7.171875 0l3.78125 0l0 -6.03125l-0.21875 0.390625l-3.5625 5.640625z" fill-rule="nonzero"/><path fill="#000000" fill-opacity="0.0" d="m700.7087 178.3307l42.677124 35.370087" fill-rule="evenodd"/><path stroke="#000000" stroke-width="2.0" stroke-linejoin="round" stroke-linecap="butt" d="m700.7087 178.3307l33.437805 27.712708" fill-rule="evenodd"/><path fill="#000000" stroke="#000000" stroke-width="2.0" stroke-linecap="butt" d="m732.0385 208.5869l9.09613 3.248169l-4.880127 -8.335129z" fill-rule="evenodd"/><path fill="#d9d9d9" d="m790.85956 213.70866l56.692932 0l0 51.999985l-56.692932 0z" fill-rule="evenodd"/><path stroke="#000000" stroke-width="2.0" stroke-linejoin="round" stroke-linecap="butt" d="m790.85956 213.70866l56.692932 0l0 51.999985l-56.692932 0z" fill-rule="evenodd"/><path fill="#000000" d="m822.66504 231.01428l0 2.78125l-0.328125 0q-2.296875 0.03125 -3.703125 1.203125q-1.390625 1.15625 -1.671875 3.21875q1.359375 -1.390625 3.4375 -1.390625q2.21875 0 3.53125 1.59375q1.3125 1.59375 1.3125 4.203125q0 1.65625 -0.71875 3.015625q-0.71875 1.34375 -2.046875 2.09375q-1.3125 0.75 -2.96875 0.75q-2.703125 0 -4.359375 -1.875q-1.65625 -1.875 -1.65625 -5.0l0 -1.21875q0 -2.78125 1.046875 -4.90625q1.046875 -2.125 3.015625 -3.296875q1.96875 -1.171875 4.546875 -1.171875l0.5625 0zm-3.296875 8.53125q-0.828125 0 -1.5 0.4375q-0.65625 0.421875 -0.96875 1.125l0 1.03125q0 1.703125 0.65625 2.65625q0.671875 0.953125 1.875 0.953125q1.09375 0 1.765625 -0.859375q0.671875 -0.859375 0.671875 -2.234375q0 -1.390625 -0.6875 -2.25q-0.671875 -0.859375 -1.8125 -0.859375z" fill-rule="nonzero"/><path fill="#000000" fill-opacity="0.0" d="m861.4017 178.3307l-42.204712 35.370087" fill-rule="evenodd"/><path stroke="#000000" stroke-width="2.0" stroke-linejoin="round" stroke-linecap="butt" d="m861.4017 178.3307l-33.007507 27.662247" fill-rule="evenodd"/><path fill="#000000" stroke="#000000" stroke-width="2.0" stroke-linecap="butt" d="m826.2723 203.46106l-4.8344116 8.36171l9.078186 -3.2979279z" fill-rule="evenodd"/><path fill="#d9d9d9" d="m874.693 213.70866l56.692932 0l0 51.999985l-56.692932 0z" fill-rule="evenodd"/><path stroke="#000000" stroke-width="2.0" stroke-linejoin="round" stroke-linecap="butt" d="m874.693 213.70866l56.692932 0l0 51.999985l-56.692932 0z" fill-rule="evenodd"/><path fill="#000000" d="m908.4359 235.7174q0 1.25 -0.625 2.21875q-0.609375 0.953125 -1.703125 1.515625q1.234375 0.609375 1.953125 1.65625q0.734375 1.046875 0.734375 2.46875q0 2.265625 -1.546875 3.59375q-1.546875 1.3125 -4.203125 1.3125q-2.65625 0 -4.21875 -1.328125q-1.5625 -1.328125 -1.5625 -3.578125q0 -1.421875 0.71875 -2.46875q0.734375 -1.0625 1.96875 -1.65625q-1.09375 -0.5625 -1.703125 -1.515625q-0.609375 -0.96875 -0.609375 -2.21875q0 -2.171875 1.453125 -3.46875q1.453125 -1.296875 3.9375 -1.296875q2.484375 0 3.9375 1.28125q1.46875 1.28125 1.46875 3.484375zm-3.03125 7.609375q0 -1.109375 -0.65625 -1.78125q-0.640625 -0.671875 -1.71875 -0.671875q-1.078125 0 -1.734375 0.671875q-0.640625 0.65625 -0.640625 1.78125q0 1.09375 0.625 1.765625q0.640625 0.65625 1.765625 0.65625q1.109375 0 1.734375 -0.640625q0.625 -0.640625 0.625 -1.78125zm-0.359375 -7.4375q0 -1.0 -0.53125 -1.59375q-0.515625 -0.609375 -1.484375 -0.609375q-0.9375 0 -1.46875 0.59375q-0.53125 0.578125 -0.53125 1.609375q0 1.015625 0.53125 1.640625q0.53125 0.609375 1.484375 0.609375q0.96875 0 1.484375 -0.609375q0.515625 -0.625 0.515625 -1.640625z" fill-rule="nonzero"/><path fill="#000000" fill-opacity="0.0" d="m861.4017 178.3307l41.637756 35.370087" fill-rule="evenodd"/><path stroke="#000000" stroke-width="2.0" stroke-linejoin="round" stroke-linecap="butt" d="m861.4017 178.3307l32.492126 27.60112" fill-rule="evenodd"/><path fill="#000000" stroke="#000000" stroke-width="2.0" stroke-linecap="butt" d="m891.75507 208.44951l9.05603 3.358368l-4.7786255 -8.393753z" fill-rule="evenodd"/><path fill="#d9d9d9" d="m594.43304 301.66666l56.692932 0l0 52.0l-56.692932 0z" fill-rule="evenodd"/><path stroke="#000000" stroke-width="2.0" stroke-linejoin="round" stroke-linecap="butt" d="m594.43304 301.66666l56.692932 0l0 52.0l-56.692932 0z" fill-rule="evenodd"/><path fill="#000000" d="m625.2854 336.20667l-3.390625 0l0 -13.0625l-4.046875 1.265625l0 -2.765625l7.078125 -2.53125l0.359375 0l0 17.09375z" fill-rule="nonzero"/><path fill="#000000" fill-opacity="0.0" d="m654.5617 265.70865l-31.779541 35.968506" fill-rule="evenodd"/><path stroke="#000000" stroke-width="2.0" stroke-linejoin="round" stroke-linecap="butt" d="m654.5617 265.70865l-23.834106 26.975769" fill-rule="evenodd"/><path fill="#000000" stroke="#000000" stroke-width="2.0" stroke-linecap="butt" d="m628.252 290.4971l-3.5339355 8.988983l8.485107 -4.61438z" fill-rule="evenodd"/></g></svg>