<svg version="1.1" viewBox="0.0 0.0 960.0 288.0" fill="none" stroke="none" stroke-linecap="square" stroke-miterlimit="10" xmlns:xlink="http://www.w3.org/1999/xlink" xmlns="http://www.w3.org/2000/svg"><clipPath id="p.0"><path d="m0 0l960.0 0l0 288.0l-960.0 0l0 -288.0z" clip-rule="nonzero"/></clipPath><g clip-path="url(#p.0)"><path fill="#000000" fill-opacity="0.0" d="m0 0l960.0 0l0 288.0l-960.0 0z" fill-rule="evenodd"/><path fill="#f4cccc" d="m148.95262 10.940945l45.732285 0l0 30.299213l-45.732285 0z" fill-rule="evenodd"/><path stroke="#000000" stroke-width="2.0" stroke-linejoin="round" stroke-linecap="butt" d="m148.95262 10.940945l45.732285 0l0 30.299213l-45.732285 0z" fill-rule="evenodd"/><path fill="#000000" d="m177.89867 31.648676q-0.84375 1.0156269 -2.390625 1.5781269q-1.53125 0.546875 -3.40625 0.546875q-1.96875 0 -3.453125 -0.859375q-1.484375 -0.859375 -2.296875 -2.484377q-0.796875 -1.640625 -0.8125 -3.84375l0 -1.03125q0 -2.28125 0.765625 -3.9375q0.765625 -1.65625 2.203125 -2.53125q1.4375 -0.890625 3.375 -0.890625q2.703125 0 4.21875 1.296875q1.515625 1.28125 1.796875 3.734375l-3.03125 0q-0.203125 -1.296875 -0.921875 -1.890625q-0.71875 -0.609375 -1.96875 -0.609375q-1.59375 0 -2.421875 1.203125q-0.828125 1.1875 -0.84375 3.546875l0 0.96875q0 2.390625 0.90625 3.609375q0.90625 1.21875 2.65625 1.21875q1.765625 0 2.515625 -0.75l0 -2.625l-2.84375 0l0 -2.296875l5.953125 0l0 6.046875z" fill-rule="nonzero"/><path fill="#b6d7a8" d="m77.46776 69.89524l45.732277 0l0 30.29921l-45.732277 0z" fill-rule="evenodd"/><path stroke="#000000" stroke-width="2.0" stroke-linejoin="round" stroke-linecap="butt" d="m77.46776 69.89524l45.732277 0l0 30.29921l-45.732277 0z" fill-rule="evenodd"/><path fill="#000000" d="m106.60644 87.47797q-0.171875 2.4375 -1.796875 3.84375q-1.625 1.40625 -4.296875 1.40625q-2.921875 0 -4.59375 -1.953125q-1.671875 -1.96875 -1.671875 -5.390625l0 -0.9375q0 -2.1875 0.765625 -3.84375q0.78125 -1.671875 2.203125 -2.5625q1.4375 -0.890625 3.34375 -0.890625q2.625 0 4.21875 1.40625q1.609375 1.40625 1.859375 3.953125l-3.125 0q-0.109375 -1.46875 -0.8125 -2.125q-0.703125 -0.671875 -2.140625 -0.671875q-1.5625 0 -2.34375 1.125q-0.78125 1.109375 -0.796875 3.46875l0 1.140625q0 2.46875 0.734375 3.609375q0.75 1.125 2.359375 1.125q1.453125 0 2.15625 -0.65625q0.71875 -0.671875 0.828125 -2.046875l3.109375 0z" fill-rule="nonzero"/><path fill="#a4c2f4" d="m224.30858 69.89524l45.732285 0l0 30.29921l-45.732285 0z" fill-rule="evenodd"/><path stroke="#000000" stroke-width="2.0" stroke-linejoin="round" stroke-linecap="butt" d="m224.30858 69.89524l45.732285 0l0 30.29921l-45.732285 0z" fill-rule="evenodd"/><path fill="#000000" d="m244.78056 87.18109l0 5.34375l-3.125 0l0 -15.15625l5.90625 0q1.71875 0 3.0 0.625q1.296875 0.625 2.0 1.78125q0.703125 1.140625 0.703125 2.609375q0 2.21875 -1.53125 3.515625q-1.515625 1.28125 -4.21875 1.28125l-2.734375 0zm0 -2.53125l2.78125 0q1.25 0 1.890625 -0.578125q0.65625 -0.59375 0.65625 -1.671875q0 -1.109375 -0.65625 -1.796875q-0.65625 -0.6875 -1.8125 -0.703125l-2.859375 0l0 4.75z" fill-rule="nonzero"/><path fill="#b4a7d6" d="m186.27095 128.84953l45.732285 0l0 30.29921l-45.732285 0z" fill-rule="evenodd"/><path stroke="#000000" stroke-width="2.0" stroke-linejoin="round" stroke-linecap="butt" d="m186.27095 128.84953l45.732285 0l0 30.29921l-45.732285 0z" fill-rule="evenodd"/><path fill="#000000" d="m208.4773 145.40102l-1.625 1.75l0 4.328125l-3.125 0l0 -15.15625l3.125 0l0 6.859375l1.375 -1.875l3.859375 -4.984375l3.84375 0l-5.390625 6.734375l5.546875 8.421875l-3.71875 0l-3.890625 -6.078125z" fill-rule="nonzero"/><path fill="#b6d7a8" d="m265.60648 128.84953l45.73227 0l0 30.29921l-45.73227 0z" fill-rule="evenodd"/><path stroke="#000000" stroke-width="2.0" stroke-linejoin="round" stroke-linecap="butt" d="m265.60648 128.84953l45.73227 0l0 30.29921l-45.73227 0z" fill-rule="evenodd"/><path fill="#000000" d="m288.6357 145.93227l-2.484375 0l0 5.546875l-3.125 0l0 -15.15625l5.625 0q2.6875 0 4.140625 1.203125q1.46875 1.1875 1.46875 3.375q0 1.546875 -0.671875 2.59375q-0.671875 1.03125 -2.03125 1.640625l3.265625 6.203125l0 0.140625l-3.34375 0l-2.84375 -5.546875zm-2.484375 -2.53125l2.515625 0q1.171875 0 1.8125 -0.59375q0.65625 -0.609375 0.65625 -1.65625q0 -1.078125 -0.609375 -1.6875q-0.609375 -0.609375 -1.875 -0.609375l-2.5 0l0 4.546875z" fill-rule="nonzero"/><path fill="#b6d7a8" d="m38.224445 128.84953l45.73228 0l0 30.29921l-45.73228 0z" fill-rule="evenodd"/><path stroke="#000000" stroke-width="2.0" stroke-linejoin="round" stroke-linecap="butt" d="m38.224445 128.84953l45.73228 0l0 30.29921l-45.73228 0z" fill-rule="evenodd"/><path fill="#000000" d="m63.83713 148.35414l-5.484375 0l-1.046875 3.125l-3.3125 0l5.640625 -15.15625l2.890625 0l5.671879 15.15625l-3.3125 0l-1.0468788 -3.125zm-4.640625 -2.53125l3.796875 0l-1.90625 -5.671875l-1.890625 5.671875z" fill-rule="nonzero"/><path fill="#b6d7a8" d="m77.46959 187.80229l45.732285 0l0 30.29921l-45.732285 0z" fill-rule="evenodd"/><path stroke="#000000" stroke-width="2.0" stroke-linejoin="round" stroke-linecap="butt" d="m77.46959 187.80229l45.732285 0l0 30.29921l-45.732285 0z" fill-rule="evenodd"/><path fill="#000000" d="m94.88947 210.4319l0 -15.15625l5.3125 0q2.75 0 4.171875 1.0625q1.4375 1.046875 1.4375 3.09375q0 1.109375 -0.578125 1.953125q-0.578125 0.84375 -1.59375 1.25q1.171875 0.28125 1.84375 1.171875q0.671875 0.890625 0.671875 2.171875q0 2.1875 -1.40625 3.3125q-1.390625 1.125 -3.96875 1.140625l-5.890625 0zm3.125 -6.609375l0 4.09375l2.671875 0q1.109375 0 1.71875 -0.515625q0.625 -0.53125 0.625 -1.453125q0 -2.09375 -2.15625 -2.125l-2.859375 0zm0 -2.203125l2.3125 0q2.359375 -0.046875 2.359375 -1.875q0 -1.03125 -0.609375 -1.484375q-0.59375 -0.453125 -1.875 -0.453125l-2.1875 0l0 3.8125z" fill-rule="nonzero"/><path fill="#000000" fill-opacity="0.0" d="m100.3339 69.89524l71.496056 -28.661419" fill-rule="evenodd"/><path stroke="#000000" stroke-width="2.0" stroke-linejoin="round" stroke-linecap="butt" d="m100.3339 69.89524l71.496056 -28.661419" fill-rule="evenodd"/><path fill="#000000" fill-opacity="0.0" d="m100.3339 100.19445l-39.2441 28.661415" fill-rule="evenodd"/><path stroke="#000000" stroke-width="2.0" stroke-linejoin="round" stroke-linecap="butt" d="m100.3339 100.19445l-39.2441 28.661415" fill-rule="evenodd"/><path fill="#000000" fill-opacity="0.0" d="m61.090588 159.14874l39.24409 28.661423" fill-rule="evenodd"/><path stroke="#000000" stroke-width="2.0" stroke-linejoin="round" stroke-linecap="butt" d="m61.090588 159.14874l39.24409 28.661423" fill-rule="evenodd"/><path fill="#000000" fill-opacity="0.0" d="m171.81877 41.240158l75.37007 28.661415" fill-rule="evenodd"/><path stroke="#000000" stroke-width="2.0" stroke-linejoin="round" stroke-linecap="butt" d="m171.81877 41.240158l75.37007 28.661415" fill-rule="evenodd"/><path fill="#000000" fill-opacity="0.0" d="m247.17473 100.19445l-38.04724 28.661415" fill-rule="evenodd"/><path stroke="#000000" stroke-width="2.0" stroke-linejoin="round" stroke-linecap="butt" d="m247.17473 100.19445l-38.04724 28.661415" fill-rule="evenodd"/><path fill="#000000" fill-opacity="0.0" d="m247.17473 100.19445l41.291336 28.661415" fill-rule="evenodd"/><path stroke="#000000" stroke-width="2.0" stroke-linejoin="round" stroke-linecap="butt" d="m247.17473 100.19445l41.291336 28.661415" fill-rule="evenodd"/><path fill="#000000" fill-opacity="0.0" d="m209.1371 159.14874l-32.12599 28.661423" fill-rule="evenodd"/><path stroke="#000000" stroke-width="2.0" stroke-linejoin="round" stroke-linecap="butt" d="m209.1371 159.14874l-32.12599 28.661423" fill-rule="evenodd"/><path fill="#000000" fill-opacity="0.0" d="m209.1371 159.14874l39.244095 28.661423" fill-rule="evenodd"/><path stroke="#000000" stroke-width="2.0" stroke-linejoin="round" stroke-linecap="butt" d="m209.1371 159.14874l39.244095 28.661423" fill-rule="evenodd"/><path fill="#b6d7a8" d="m154.13376 187.80385l45.732285 0l0 30.29921l-45.732285 0z" fill-rule="evenodd"/><path stroke="#000000" stroke-width="2.0" stroke-linejoin="round" stroke-linecap="butt" d="m154.13376 187.80385l45.732285 0l0 30.29921l-45.732285 0z" fill-rule="evenodd"/><path fill="#000000" d="m178.51176 195.2772l3.125 0l0 10.484375q0 1.453125 -0.640625 2.5625q-0.640625 1.109375 -1.8125 1.71875q-1.15625 0.59375 -2.625 0.59375q-2.40625 0 -3.75 -1.21875q-1.34375 -1.21875 -1.34375 -3.46875l3.140625 0q0 1.125 0.46875 1.65625q0.46875 0.53125 1.484375 0.53125q0.890625 0 1.421875 -0.609375q0.53125 -0.625 0.53125 -1.765625l0 -10.484375z" fill-rule="nonzero"/><path fill="#b6d7a8" d="m225.51427 187.80385l45.732285 0l0 30.29921l-45.732285 0z" fill-rule="evenodd"/><path stroke="#000000" stroke-width="2.0" stroke-linejoin="round" stroke-linecap="butt" d="m225.51427 187.80385l45.732285 0l0 30.29921l-45.732285 0z" fill-rule="evenodd"/><path fill="#000000" d="m247.09015 207.91783l6.625 0l0 2.515625l-9.75 0l0 -15.15625l3.125 0l0 12.640625z" fill-rule="nonzero"/><path fill="#b6d7a8" d="m373.29453 71.11308l45.7323 0l0 30.299217l-45.7323 0z" fill-rule="evenodd"/><path stroke="#000000" stroke-width="2.0" stroke-linejoin="round" stroke-linecap="butt" d="m373.29453 71.11308l45.7323 0l0 30.299217l-45.7323 0z" fill-rule="evenodd"/><path fill="#000000" d="m402.4332 88.695816q-0.171875 2.4375 -1.796875 3.84375q-1.625 1.40625 -4.296875 1.40625q-2.921875 0 -4.59375 -1.953125q-1.671875 -1.96875 -1.671875 -5.390625l0 -0.9375q0 -2.1875 0.765625 -3.84375q0.78125 -1.671875 2.203125 -2.5625q1.4375 -0.890625 3.34375 -0.890625q2.625 0 4.21875 1.40625q1.609375 1.40625 1.859375 3.953125l-3.125 0q-0.109375 -1.46875 -0.8125 -2.125q-0.703125 -0.671875 -2.140625 -0.671875q-1.5625 0 -2.34375 1.125q-0.78125 1.109375 -0.796875 3.46875l0 1.140625q0 2.46875 0.734375 3.609375q0.75 1.125 2.359375 1.125q1.453125 0 2.15625 -0.65625q0.71875 -0.671875 0.828125 -2.046875l3.109375 0z" fill-rule="nonzero"/><path fill="#b4a7d6" d="m482.09772 130.06738l45.7323 0l0 30.29921l-45.7323 0z" fill-rule="evenodd"/><path stroke="#000000" stroke-width="2.0" stroke-linejoin="round" stroke-linecap="butt" d="m482.09772 130.06738l45.7323 0l0 30.29921l-45.7323 0z" fill-rule="evenodd"/><path fill="#000000" d="m504.30408 146.61887l-1.625 1.75l0 4.328125l-3.125 0l0 -15.15625l3.125 0l0 6.859375l1.375 -1.875l3.859375 -4.984375l3.84375 0l-5.390625 6.734375l5.546875 8.421875l-3.71875 0l-3.890625 -6.078125z" fill-rule="nonzero"/><path fill="#b6d7a8" d="m561.4332 130.06738l45.7323 0l0 30.29921l-45.7323 0z" fill-rule="evenodd"/><path stroke="#000000" stroke-width="2.0" stroke-linejoin="round" stroke-linecap="butt" d="m561.4332 130.06738l45.7323 0l0 30.29921l-45.7323 0z" fill-rule="evenodd"/><path fill="#000000" d="m584.46246 147.15012l-2.484375 0l0 5.546875l-3.125 0l0 -15.15625l5.625 0q2.6875 0 4.140625 1.203125q1.46875 1.1875 1.46875 3.375q0 1.546875 -0.671875 2.59375q-0.671875 1.03125 -2.03125 1.640625l3.265625 6.203125l0 0.140625l-3.34375 0l-2.84375 -5.546875zm-2.484375 -2.53125l2.515625 0q1.171875 0 1.8125 -0.59375q0.65625 -0.609375 0.65625 -1.65625q0 -1.078125 -0.609375 -1.6875q-0.609375 -0.609375 -1.875 -0.609375l-2.5 0l0 4.546875z" fill-rule="nonzero"/><path fill="#b6d7a8" d="m334.0512 130.06738l45.7323 0l0 30.29921l-45.7323 0z" fill-rule="evenodd"/><path stroke="#000000" stroke-width="2.0" stroke-linejoin="round" stroke-linecap="butt" d="m334.0512 130.06738l45.7323 0l0 30.29921l-45.7323 0z" fill-rule="evenodd"/><path fill="#000000" d="m359.6639 149.57199l-5.484375 0l-1.046875 3.125l-3.3125 0l5.640625 -15.15625l2.890625 0l5.671875 15.15625l-3.3125 0l-1.046875 -3.125zm-4.640625 -2.53125l3.796875 0l-1.90625 -5.671875l-1.890625 5.671875z" fill-rule="nonzero"/><path fill="#b6d7a8" d="m369.48404 189.02014l45.73227 0l0 30.29921l-45.73227 0z" fill-rule="evenodd"/><path stroke="#000000" stroke-width="2.0" stroke-linejoin="round" stroke-linecap="butt" d="m369.48404 189.02014l45.73227 0l0 30.29921l-45.73227 0z" fill-rule="evenodd"/><path fill="#000000" d="m386.9039 211.64975l0 -15.15625l5.3125 0q2.75 0 4.171875 1.0625q1.4375 1.046875 1.4375 3.09375q0 1.109375 -0.578125 1.953125q-0.578125 0.84375 -1.59375 1.25q1.171875 0.28125 1.84375 1.171875q0.671875 0.890625 0.671875 2.171875q0 2.1875 -1.40625 3.3125q-1.390625 1.125 -3.96875 1.140625l-5.890625 0zm3.125 -6.609375l0 4.09375l2.671875 0q1.109375 0 1.71875 -0.515625q0.625 -0.53125 0.625 -1.453125q0 -2.09375 -2.15625 -2.125l-2.859375 0zm0 -2.203125l2.3125 0q2.359375 -0.046875 2.359375 -1.875q0 -1.03125 -0.609375 -1.484375q-0.59375 -0.453125 -1.875 -0.453125l-2.1875 0l0 3.8125z" fill-rule="nonzero"/><path fill="#000000" fill-opacity="0.0" d="m396.16068 71.11308l69.700775 -28.661415" fill-rule="evenodd"/><path stroke="#000000" stroke-width="2.0" stroke-linejoin="round" stroke-linecap="butt" d="m396.16068 71.11308l69.700775 -28.661415" fill-rule="evenodd"/><path fill="#000000" fill-opacity="0.0" d="m396.16068 101.4123l-39.24411 28.661415" fill-rule="evenodd"/><path stroke="#000000" stroke-width="2.0" stroke-linejoin="round" stroke-linecap="butt" d="m396.16068 101.4123l-39.24411 28.661415" fill-rule="evenodd"/><path fill="#000000" fill-opacity="0.0" d="m356.91736 160.3666l35.433075 28.661423" fill-rule="evenodd"/><path stroke="#000000" stroke-width="2.0" stroke-linejoin="round" stroke-linecap="butt" d="m356.91736 160.3666l35.433075 28.661423" fill-rule="evenodd"/><path fill="#000000" fill-opacity="0.0" d="m465.86163 42.458004l39.08661 87.62204" fill-rule="evenodd"/><path stroke="#000000" stroke-width="2.0" stroke-linejoin="round" stroke-linecap="butt" d="m465.86163 42.458004l39.08661 87.62204" fill-rule="evenodd"/><path fill="#000000" fill-opacity="0.0" d="m465.86163 42.458004l118.42517 87.62204" fill-rule="evenodd"/><path stroke="#000000" stroke-width="2.0" stroke-linejoin="round" stroke-linecap="butt" d="m465.86163 42.458004l118.42517 87.62204" fill-rule="evenodd"/><path fill="#000000" fill-opacity="0.0" d="m504.96387 160.3666l-32.125977 28.661423" fill-rule="evenodd"/><path stroke="#000000" stroke-width="2.0" stroke-linejoin="round" stroke-linecap="butt" d="m504.96387 160.3666l-32.125977 28.661423" fill-rule="evenodd"/><path fill="#000000" fill-opacity="0.0" d="m504.96387 160.3666l39.24408 28.661423" fill-rule="evenodd"/><path stroke="#000000" stroke-width="2.0" stroke-linejoin="round" stroke-linecap="butt" d="m504.96387 160.3666l39.24408 28.661423" fill-rule="evenodd"/><path fill="#b6d7a8" d="m449.96054 189.0217l45.73227 0l0 30.29921l-45.73227 0z" fill-rule="evenodd"/><path stroke="#000000" stroke-width="2.0" stroke-linejoin="round" stroke-linecap="butt" d="m449.96054 189.0217l45.73227 0l0 30.29921l-45.73227 0z" fill-rule="evenodd"/><path fill="#000000" d="m474.33853 196.49506l3.125 0l0 10.484375q0 1.453125 -0.640625 2.5625q-0.640625 1.109375 -1.8125 1.71875q-1.15625 0.59375 -2.625 0.59375q-2.40625 0 -3.75 -1.21875q-1.34375 -1.21875 -1.34375 -3.46875l3.140625 0q0 1.125 0.46875 1.65625q0.46875 0.53125 1.484375 0.53125q0.890625 0 1.421875 -0.609375q0.53125 -0.625 0.53125 -1.765625l0 -10.484375z" fill-rule="nonzero"/><path fill="#b6d7a8" d="m521.34106 189.0217l45.73224 0l0 30.29921l-45.73224 0z" fill-rule="evenodd"/><path stroke="#000000" stroke-width="2.0" stroke-linejoin="round" stroke-linecap="butt" d="m521.34106 189.0217l45.73224 0l0 30.29921l-45.73224 0z" fill-rule="evenodd"/><path fill="#000000" d="m542.91693 209.13568l6.625 0l0 2.515625l-9.75 0l0 -15.15625l3.125 0l0 12.640625z" fill-rule="nonzero"/><defs><linearGradient id="p.1" gradientUnits="userSpaceOnUse" gradientTransform="matrix(8.36942316378424 0.0 0.0 8.36942316378424 0.0 0.0)" spreadMethod="pad" x1="51.47762278223486" y1="5.072990625335572" x2="59.847045946019094" y2="5.072990625335572"><stop offset="0.0" stop-color="#f4cccc"/><stop offset="1.0" stop-color="#c9daf8"/></linearGradient></defs><path fill="url(#p.1)" d="m430.838 12.1587925l70.04724 0l0 30.299212l-70.04724 0z" fill-rule="evenodd"/><path stroke="#000000" stroke-width="2.0" stroke-linejoin="round" stroke-linecap="butt" d="m430.838 12.1587925l70.04724 0l0 30.299212l-70.04724 0z" fill-rule="evenodd"/><path fill="#000000" d="m459.7518 32.866524q-0.84375 1.015625 -2.390625 1.578125q-1.53125 0.546875 -3.40625 0.546875q-1.96875 0 -3.453125 -0.859375q-1.484375 -0.859375 -2.296875 -2.484375q-0.796875 -1.640625 -0.8125 -3.84375l0 -1.03125q0 -2.28125 0.765625 -3.9375q0.765625 -1.65625 2.203125 -2.53125q1.4375 -0.890625 3.375 -0.890625q2.703125 0 4.21875 1.296875q1.515625 1.28125 1.796875 3.734375l-3.03125 0q-0.203125 -1.296875 -0.921875 -1.890625q-0.71875 -0.609375 -1.96875 -0.609375q-1.59375 0 -2.421875 1.203125q-0.828125 1.1875 -0.84375 3.546875l0 0.96875q0 2.390625 0.90625 3.609375q0.90625 1.21875 2.65625 1.21875q1.765625 0 2.515625 -0.75l0 -2.625l-2.84375 0l0 -2.296875l5.953125 0l0 6.046875zm16.29071 -3.421875l0 5.34375l-3.125 0l0 -15.15625l5.90625 0q1.71875 0 3.0 0.625q1.296875 0.625 2.0 1.78125q0.703125 1.140625 0.703125 2.609375q0 2.21875 -1.53125 3.515625q-1.515625 1.28125 -4.21875 1.28125l-2.734375 0zm0 -2.53125l2.78125 0q1.25 0 1.890625 -0.578125q0.65625 -0.59375 0.65625 -1.671875q0 -1.109375 -0.65625 -1.796875q-0.65625 -0.6875 -1.8125 -0.703125l-2.859375 0l0 4.75z" fill-rule="nonzero"/><path fill="#b6d7a8" d="m669.1213 128.84953l45.7323 0l0 30.29921l-45.7323 0z" fill-rule="evenodd"/><path stroke="#000000" stroke-width="2.0" stroke-linejoin="round" stroke-linecap="butt" d="m669.1213 128.84953l45.7323 0l0 30.29921l-45.7323 0z" fill-rule="evenodd"/><path fill="#000000" d="m698.25995 146.43227q-0.171875 2.4375 -1.796875 3.84375q-1.625 1.40625 -4.296875 1.40625q-2.921875 0 -4.59375 -1.953125q-1.671875 -1.96875 -1.671875 -5.390625l0 -0.9375q0 -2.1875 0.765625 -3.84375q0.78125 -1.671875 2.203125 -2.5625q1.4375 -0.890625 3.34375 -0.890625q2.625 0 4.21875 1.40625q1.609375 1.40625 1.859375 3.953125l-3.125 0q-0.109375 -1.46875 -0.8125 -2.125q-0.703125 -0.671875 -2.140625 -0.671875q-1.5625 0 -2.34375 1.125q-0.78125 1.109375 -0.796875 3.46875l0 1.140625q0 2.46875 0.734375 3.609375q0.75 1.125 2.359375 1.125q1.453125 0 2.15625 -0.65625q0.71875 -0.671875 0.828125 -2.046875l3.109375 0z" fill-rule="nonzero"/><path fill="#b4a7d6" d="m801.9245 128.84953l45.7323 0l0 30.29921l-45.7323 0z" fill-rule="evenodd"/><path stroke="#000000" stroke-width="2.0" stroke-linejoin="round" stroke-linecap="butt" d="m801.9245 128.84953l45.7323 0l0 30.29921l-45.7323 0z" fill-rule="evenodd"/><path fill="#000000" d="m824.13086 145.40102l-1.625 1.75l0 4.328125l-3.125 0l0 -15.15625l3.125 0l0 6.859375l1.375 -1.875l3.859375 -4.984375l3.84375 0l-5.390625 6.734375l5.546875 8.421875l-3.71875 0l-3.890625 -6.078125z" fill-rule="nonzero"/><path fill="#b6d7a8" d="m876.0422 69.89524l45.73224 0l0 30.29921l-45.73224 0z" fill-rule="evenodd"/><path stroke="#000000" stroke-width="2.0" stroke-linejoin="round" stroke-linecap="butt" d="m876.0422 69.89524l45.73224 0l0 30.29921l-45.73224 0z" fill-rule="evenodd"/><path fill="#000000" d="m899.0714 86.97797l-2.484375 0l0 5.546875l-3.125 0l0 -15.15625l5.625 0q2.6875 0 4.140625 1.203125q1.46875 1.1875 1.46875 3.375q0 1.546875 -0.671875 2.59375q-0.671875 1.03125 -2.03125 1.640625l3.265625 6.203125l0 0.140625l-3.34375 0l-2.84375 -5.546875zm-2.484375 -2.53125l2.515625 0q1.171875 0 1.8125 -0.59375q0.65625 -0.609375 0.65625 -1.65625q0 -1.078125 -0.609375 -1.6875q-0.609375 -0.609375 -1.875 -0.609375l-2.5 0l0 4.546875z" fill-rule="nonzero"/><path fill="#b6d7a8" d="m629.878 187.80385l45.7323 0l0 30.29921l-45.7323 0z" fill-rule="evenodd"/><path stroke="#000000" stroke-width="2.0" stroke-linejoin="round" stroke-linecap="butt" d="m629.878 187.80385l45.7323 0l0 30.29921l-45.7323 0z" fill-rule="evenodd"/><path fill="#000000" d="m655.49066 207.30846l-5.484375 0l-1.046875 3.125l-3.3125 0l5.640625 -15.15625l2.890625 0l5.671875 15.15625l-3.3125 0l-1.046875 -3.125zm-4.640625 -2.53125l3.796875 0l-1.90625 -5.671875l-1.890625 5.671875z" fill-rule="nonzero"/><path fill="#b6d7a8" d="m669.1231 246.75923l45.7323 0l0 30.29921l-45.7323 0z" fill-rule="evenodd"/><path stroke="#000000" stroke-width="2.0" stroke-linejoin="round" stroke-linecap="butt" d="m669.1231 246.75923l45.7323 0l0 30.29921l-45.7323 0z" fill-rule="evenodd"/><path fill="#000000" d="m686.543 269.38882l0 -15.156235l5.3125 0q2.75 0 4.171875 1.0625q1.4375 1.0468597 1.4375 3.0937347q0 1.109375 -0.578125 1.953125q-0.578125 0.84375 -1.59375 1.25q1.171875 0.28125 1.84375 1.171875q0.671875 0.890625 0.671875 2.171875q0 2.1875 -1.40625 3.3125q-1.390625 1.125 -3.96875 1.140625l-5.890625 0zm3.125 -6.609375l0 4.09375l2.671875 0q1.109375 0 1.71875 -0.515625q0.625 -0.53125 0.625 -1.453125q0 -2.09375 -2.15625 -2.125l-2.859375 0zm0 -2.203125l2.3125 0q2.359375 -0.046875 2.359375 -1.875q0 -1.03125 -0.609375 -1.484375q-0.59375 -0.453125 -1.875 -0.453125l-2.1875 0l0 3.8125z" fill-rule="nonzero"/><path fill="#000000" fill-opacity="0.0" d="m691.9874 128.84953l54.92914 -28.661415" fill-rule="evenodd"/><path stroke="#000000" stroke-width="2.0" stroke-linejoin="round" stroke-linecap="butt" d="m691.9874 128.84953l54.92914 -28.661415" fill-rule="evenodd"/><path fill="#000000" fill-opacity="0.0" d="m691.9874 159.14874l-39.24408 28.661423" fill-rule="evenodd"/><path stroke="#000000" stroke-width="2.0" stroke-linejoin="round" stroke-linecap="butt" d="m691.9874 159.14874l-39.24408 28.661423" fill-rule="evenodd"/><path fill="#000000" fill-opacity="0.0" d="m652.74414 218.10306l39.24408 28.661423" fill-rule="evenodd"/><path stroke="#000000" stroke-width="2.0" stroke-linejoin="round" stroke-linecap="butt" d="m652.74414 218.10306l39.24408 28.661423" fill-rule="evenodd"/><path fill="#000000" fill-opacity="0.0" d="m746.9198 100.19445l77.85828 28.661415" fill-rule="evenodd"/><path stroke="#000000" stroke-width="2.0" stroke-linejoin="round" stroke-linecap="butt" d="m746.9198 100.19445l77.85828 28.661415" fill-rule="evenodd"/><path fill="#000000" fill-opacity="0.0" d="m838.38336 42.456917l60.53546 27.433075" fill-rule="evenodd"/><path stroke="#000000" stroke-width="2.0" stroke-linejoin="round" stroke-linecap="butt" d="m838.38336 42.456917l60.53546 27.433075" fill-rule="evenodd"/><path fill="#000000" fill-opacity="0.0" d="m824.79065 159.14874l-32.125977 28.661423" fill-rule="evenodd"/><path stroke="#000000" stroke-width="2.0" stroke-linejoin="round" stroke-linecap="butt" d="m824.79065 159.14874l-32.125977 28.661423" fill-rule="evenodd"/><path fill="#000000" fill-opacity="0.0" d="m824.79065 159.14874l39.24408 28.661423" fill-rule="evenodd"/><path stroke="#000000" stroke-width="2.0" stroke-linejoin="round" stroke-linecap="butt" d="m824.79065 159.14874l39.24408 28.661423" fill-rule="evenodd"/><path fill="#b6d7a8" d="m769.7873 187.80385l45.7323 0l0 30.29921l-45.7323 0z" fill-rule="evenodd"/><path stroke="#000000" stroke-width="2.0" stroke-linejoin="round" stroke-linecap="butt" d="m769.7873 187.80385l45.7323 0l0 30.29921l-45.7323 0z" fill-rule="evenodd"/><path fill="#000000" d="m794.1653 195.2772l3.125 0l0 10.484375q0 1.453125 -0.640625 2.5625q-0.640625 1.109375 -1.8125 1.71875q-1.15625 0.59375 -2.625 0.59375q-2.40625 0 -3.75 -1.21875q-1.34375 -1.21875 -1.34375 -3.46875l3.140625 0q0 1.125 0.46875 1.65625q0.46875 0.53125 1.484375 0.53125q0.890625 0 1.421875 -0.609375q0.53125 -0.625 0.53125 -1.765625l0 -10.484375z" fill-rule="nonzero"/><path fill="#b6d7a8" d="m841.1678 187.80385l45.7323 0l0 30.29921l-45.7323 0z" fill-rule="evenodd"/><path stroke="#000000" stroke-width="2.0" stroke-linejoin="round" stroke-linecap="butt" d="m841.1678 187.80385l45.7323 0l0 30.29921l-45.7323 0z" fill-rule="evenodd"/><path fill="#000000" d="m862.7437 207.91783l6.625 0l0 2.515625l-9.75 0l0 -15.15625l3.125 0l0 12.640625z" fill-rule="nonzero"/><path fill="#f4cccc" d="m724.05365 69.89524l45.7323 0l0 30.29921l-45.7323 0z" fill-rule="evenodd"/><path stroke="#000000" stroke-width="2.0" stroke-linejoin="round" stroke-linecap="butt" d="m724.05365 69.89524l45.7323 0l0 30.29921l-45.7323 0z" fill-rule="evenodd"/><path fill="#000000" d="m752.9997 90.60297q-0.84375 1.015625 -2.390625 1.578125q-1.53125 0.546875 -3.40625 0.546875q-1.96875 0 -3.453125 -0.859375q-1.484375 -0.859375 -2.296875 -2.484375q-0.796875 -1.640625 -0.8125 -3.84375l0 -1.03125q0 -2.28125 0.765625 -3.9375q0.765625 -1.65625 2.203125 -2.53125q1.4375 -0.890625 3.375 -0.890625q2.703125 0 4.21875 1.296875q1.515625 1.28125 1.796875 3.734375l-3.03125 0q-0.203125 -1.296875 -0.921875 -1.890625q-0.71875 -0.609375 -1.96875 -0.609375q-1.59375 0 -2.421875 1.203125q-0.828125 1.1875 -0.84375 3.546875l0 0.96875q0 2.390625 0.90625 3.609375q0.90625 1.21875 2.65625 1.21875q1.765625 0 2.515625 -0.75l0 -2.625l-2.84375 0l0 -2.296875l5.953125 0l0 6.046875z" fill-rule="nonzero"/><path fill="#a4c2f4" d="m815.5173 12.157705l45.73224 0l0 30.299212l-45.73224 0z" fill-rule="evenodd"/><path stroke="#000000" stroke-width="2.0" stroke-linejoin="round" stroke-linecap="butt" d="m815.5173 12.157705l45.73224 0l0 30.299212l-45.73224 0z" fill-rule="evenodd"/><path fill="#000000" d="m835.98926 29.443562l0 5.34375l-3.125 0l0 -15.15625l5.90625 0q1.71875 0 3.0 0.625q1.296875 0.625 2.0 1.78125q0.703125 1.140625 0.703125 2.609375q0 2.21875 -1.53125 3.515625q-1.515625 1.28125 -4.21875 1.28125l-2.734375 0zm0 -2.53125l2.78125 0q1.25 0 1.890625 -0.578125q0.65625 -0.59375 0.65625 -1.671875q0 -1.109375 -0.65625 -1.796875q-0.65625 -0.6875 -1.8125 -0.703125l-2.859375 0l0 4.75z" fill-rule="nonzero"/><path fill="#000000" fill-opacity="0.0" d="m746.9198 69.89524l91.4646 -27.433075" fill-rule="evenodd"/><path stroke="#000000" stroke-width="2.0" stroke-linejoin="round" stroke-linecap="butt" d="m746.9198 69.89524l91.4646 -27.433075" fill-rule="evenodd"/></g></svg>