<svg version="1.1" viewBox="0.0 0.0 960.0 288.0" fill="none" stroke="none" stroke-linecap="square" stroke-miterlimit="10" xmlns:xlink="http://www.w3.org/1999/xlink" xmlns="http://www.w3.org/2000/svg"><clipPath id="p.0"><path d="m0 0l960.0 0l0 288.0l-960.0 0l0 -288.0z" clip-rule="nonzero"/></clipPath><g clip-path="url(#p.0)"><path fill="#000000" fill-opacity="0.0" d="m0 0l960.0 0l0 288.0l-960.0 0z" fill-rule="evenodd"/><path fill="#f4cccc" d="m764.60614 10.940945l45.7323 0l0 30.299213l-45.7323 0z" fill-rule="evenodd"/><path stroke="#000000" stroke-width="2.0" stroke-linejoin="round" stroke-linecap="butt" d="m764.60614 10.940945l45.7323 0l0 30.299213l-45.7323 0z" fill-rule="evenodd"/><path fill="#000000" d="m793.5522 31.648676q-0.84375 1.0156269 -2.390625 1.5781269q-1.53125 0.546875 -3.40625 0.546875q-1.96875 0 -3.453125 -0.859375q-1.484375 -0.859375 -2.296875 -2.484377q-0.796875 -1.640625 -0.8125 -3.84375l0 -1.03125q0 -2.28125 0.765625 -3.9375q0.765625 -1.65625 2.203125 -2.53125q1.4375 -0.890625 3.375 -0.890625q2.703125 0 4.21875 1.296875q1.515625 1.28125 1.796875 3.734375l-3.03125 0q-0.203125 -1.296875 -0.921875 -1.890625q-0.71875 -0.609375 -1.96875 -0.609375q-1.59375 0 -2.421875 1.203125q-0.828125 1.1875 -0.84375 3.546875l0 0.96875q0 2.390625 0.90625 3.609375q0.90625 1.21875 2.65625 1.21875q1.765625 0 2.515625 -0.75l0 -2.625l-2.84375 0l0 -2.296875l5.953125 0l0 6.046875z" fill-rule="nonzero"/><path fill="#b6d7a8" d="m693.1213 69.89524l45.7323 0l0 30.29921l-45.7323 0z" fill-rule="evenodd"/><path stroke="#000000" stroke-width="2.0" stroke-linejoin="round" stroke-linecap="butt" d="m693.1213 69.89524l45.7323 0l0 30.29921l-45.7323 0z" fill-rule="evenodd"/><path fill="#000000" d="m722.25995 87.47797q-0.171875 2.4375 -1.796875 3.84375q-1.625 1.40625 -4.296875 1.40625q-2.921875 0 -4.59375 -1.953125q-1.671875 -1.96875 -1.671875 -5.390625l0 -0.9375q0 -2.1875 0.765625 -3.84375q0.78125 -1.671875 2.203125 -2.5625q1.4375 -0.890625 3.34375 -0.890625q2.625 0 4.21875 1.40625q1.609375 1.40625 1.859375 3.953125l-3.125 0q-0.109375 -1.46875 -0.8125 -2.125q-0.703125 -0.671875 -2.140625 -0.671875q-1.5625 0 -2.34375 1.125q-0.78125 1.109375 -0.796875 3.46875l0 1.140625q0 2.46875 0.734375 3.609375q0.75 1.125 2.359375 1.125q1.453125 0 2.15625 -0.65625q0.71875 -0.671875 0.828125 -2.046875l3.109375 0z" fill-rule="nonzero"/><path fill="#a4c2f4" d="m839.9621 69.89524l45.7323 0l0 30.29921l-45.7323 0z" fill-rule="evenodd"/><path stroke="#000000" stroke-width="2.0" stroke-linejoin="round" stroke-linecap="butt" d="m839.9621 69.89524l45.7323 0l0 30.29921l-45.7323 0z" fill-rule="evenodd"/><path fill="#000000" d="m860.4341 87.18109l0 5.34375l-3.125 0l0 -15.15625l5.90625 0q1.71875 0 3.0 0.625q1.296875 0.625 2.0 1.78125q0.703125 1.140625 0.703125 2.609375q0 2.21875 -1.53125 3.515625q-1.515625 1.28125 -4.21875 1.28125l-2.734375 0zm0 -2.53125l2.78125 0q1.25 0 1.890625 -0.578125q0.65625 -0.59375 0.65625 -1.671875q0 -1.109375 -0.65625 -1.796875q-0.65625 -0.6875 -1.8125 -0.703125l-2.859375 0l0 4.75z" fill-rule="nonzero"/><path fill="#b4a7d6" d="m801.9245 128.84953l45.7323 0l0 30.29921l-45.7323 0z" fill-rule="evenodd"/><path stroke="#000000" stroke-width="2.0" stroke-linejoin="round" stroke-linecap="butt" d="m801.9245 128.84953l45.7323 0l0 30.29921l-45.7323 0z" fill-rule="evenodd"/><path fill="#000000" d="m824.13086 145.40102l-1.625 1.75l0 4.328125l-3.125 0l0 -15.15625l3.125 0l0 6.859375l1.375 -1.875l3.859375 -4.984375l3.84375 0l-5.390625 6.734375l5.546875 8.421875l-3.71875 0l-3.890625 -6.078125z" fill-rule="nonzero"/><path fill="#b6d7a8" d="m881.26 128.84953l45.7323 0l0 30.29921l-45.7323 0z" fill-rule="evenodd"/><path stroke="#000000" stroke-width="2.0" stroke-linejoin="round" stroke-linecap="butt" d="m881.26 128.84953l45.7323 0l0 30.29921l-45.7323 0z" fill-rule="evenodd"/><path fill="#000000" d="m904.28925 145.93227l-2.484375 0l0 5.546875l-3.125 0l0 -15.15625l5.625 0q2.6875 0 4.140625 1.203125q1.46875 1.1875 1.46875 3.375q0 1.546875 -0.671875 2.59375q-0.671875 1.03125 -2.03125 1.640625l3.265625 6.203125l0 0.140625l-3.34375 0l-2.84375 -5.546875zm-2.484375 -2.53125l2.515625 0q1.171875 0 1.8125 -0.59375q0.65625 -0.609375 0.65625 -1.65625q0 -1.078125 -0.609375 -1.6875q-0.609375 -0.609375 -1.875 -0.609375l-2.5 0l0 4.546875z" fill-rule="nonzero"/><path fill="#b6d7a8" d="m653.878 128.84953l45.7323 0l0 30.29921l-45.7323 0z" fill-rule="evenodd"/><path stroke="#000000" stroke-width="2.0" stroke-linejoin="round" stroke-linecap="butt" d="m653.878 128.84953l45.7323 0l0 30.29921l-45.7323 0z" fill-rule="evenodd"/><path fill="#000000" d="m679.49066 148.35414l-5.484375 0l-1.046875 3.125l-3.3125 0l5.640625 -15.15625l2.890625 0l5.671875 15.15625l-3.3125 0l-1.046875 -3.125zm-4.640625 -2.53125l3.796875 0l-1.90625 -5.671875l-1.890625 5.671875z" fill-rule="nonzero"/><path fill="#b6d7a8" d="m693.1231 187.80229l45.7323 0l0 30.29921l-45.7323 0z" fill-rule="evenodd"/><path stroke="#000000" stroke-width="2.0" stroke-linejoin="round" stroke-linecap="butt" d="m693.1231 187.80229l45.7323 0l0 30.29921l-45.7323 0z" fill-rule="evenodd"/><path fill="#000000" d="m710.543 210.4319l0 -15.15625l5.3125 0q2.75 0 4.171875 1.0625q1.4375 1.046875 1.4375 3.09375q0 1.109375 -0.578125 1.953125q-0.578125 0.84375 -1.59375 1.25q1.171875 0.28125 1.84375 1.171875q0.671875 0.890625 0.671875 2.171875q0 2.1875 -1.40625 3.3125q-1.390625 1.125 -3.96875 1.140625l-5.890625 0zm3.125 -6.609375l0 4.09375l2.671875 0q1.109375 0 1.71875 -0.515625q0.625 -0.53125 0.625 -1.453125q0 -2.09375 -2.15625 -2.125l-2.859375 0zm0 -2.203125l2.3125 0q2.359375 -0.046875 2.359375 -1.875q0 -1.03125 -0.609375 -1.484375q-0.59375 -0.453125 -1.875 -0.453125l-2.1875 0l0 3.8125z" fill-rule="nonzero"/><path fill="#000000" fill-opacity="0.0" d="m715.9874 69.89524l71.49609 -28.661419" fill-rule="evenodd"/><path stroke="#000000" stroke-width="2.0" stroke-linejoin="round" stroke-linecap="butt" d="m715.9874 69.89524l71.49609 -28.661419" fill-rule="evenodd"/><path fill="#000000" fill-opacity="0.0" d="m715.9874 100.19445l-39.24408 28.661415" fill-rule="evenodd"/><path stroke="#000000" stroke-width="2.0" stroke-linejoin="round" stroke-linecap="butt" d="m715.9874 100.19445l-39.24408 28.661415" fill-rule="evenodd"/><path fill="#000000" fill-opacity="0.0" d="m676.74414 159.14874l39.24408 28.661423" fill-rule="evenodd"/><path stroke="#000000" stroke-width="2.0" stroke-linejoin="round" stroke-linecap="butt" d="m676.74414 159.14874l39.24408 28.661423" fill-rule="evenodd"/><path fill="#000000" fill-opacity="0.0" d="m787.4723 41.240158l75.37012 28.661415" fill-rule="evenodd"/><path stroke="#000000" stroke-width="2.0" stroke-linejoin="round" stroke-linecap="butt" d="m787.4723 41.240158l75.37012 28.661415" fill-rule="evenodd"/><path fill="#000000" fill-opacity="0.0" d="m862.82825 100.19445l-38.04724 28.661415" fill-rule="evenodd"/><path stroke="#000000" stroke-width="2.0" stroke-linejoin="round" stroke-linecap="butt" d="m862.82825 100.19445l-38.04724 28.661415" fill-rule="evenodd"/><path fill="#000000" fill-opacity="0.0" d="m862.82825 100.19445l41.29138 28.661415" fill-rule="evenodd"/><path stroke="#000000" stroke-width="2.0" stroke-linejoin="round" stroke-linecap="butt" d="m862.82825 100.19445l41.29138 28.661415" fill-rule="evenodd"/><path fill="#000000" fill-opacity="0.0" d="m824.79065 159.14874l-32.125977 28.661423" fill-rule="evenodd"/><path stroke="#000000" stroke-width="2.0" stroke-linejoin="round" stroke-linecap="butt" d="m824.79065 159.14874l-32.125977 28.661423" fill-rule="evenodd"/><path fill="#000000" fill-opacity="0.0" d="m824.79065 159.14874l39.24408 28.661423" fill-rule="evenodd"/><path stroke="#000000" stroke-width="2.0" stroke-linejoin="round" stroke-linecap="butt" d="m824.79065 159.14874l39.24408 28.661423" fill-rule="evenodd"/><path fill="#b6d7a8" d="m769.7873 187.80385l45.7323 0l0 30.29921l-45.7323 0z" fill-rule="evenodd"/><path stroke="#000000" stroke-width="2.0" stroke-linejoin="round" stroke-linecap="butt" d="m769.7873 187.80385l45.7323 0l0 30.29921l-45.7323 0z" fill-rule="evenodd"/><path fill="#000000" d="m794.1653 195.2772l3.125 0l0 10.484375q0 1.453125 -0.640625 2.5625q-0.640625 1.109375 -1.8125 1.71875q-1.15625 0.59375 -2.625 0.59375q-2.40625 0 -3.75 -1.21875q-1.34375 -1.21875 -1.34375 -3.46875l3.140625 0q0 1.125 0.46875 1.65625q0.46875 0.53125 1.484375 0.53125q0.890625 0 1.421875 -0.609375q0.53125 -0.625 0.53125 -1.765625l0 -10.484375z" fill-rule="nonzero"/><path fill="#b6d7a8" d="m841.1678 187.80385l45.7323 0l0 30.29921l-45.7323 0z" fill-rule="evenodd"/><path stroke="#000000" stroke-width="2.0" stroke-linejoin="round" stroke-linecap="butt" d="m841.1678 187.80385l45.7323 0l0 30.29921l-45.7323 0z" fill-rule="evenodd"/><path fill="#000000" d="m862.7437 207.91783l6.625 0l0 2.515625l-9.75 0l0 -15.15625l3.125 0l0 12.640625z" fill-rule="nonzero"/><path fill="#b6d7a8" d="m392.0767 71.11308l45.73227 0l0 30.299217l-45.73227 0z" fill-rule="evenodd"/><path stroke="#000000" stroke-width="2.0" stroke-linejoin="round" stroke-linecap="butt" d="m392.0767 71.11308l45.73227 0l0 30.299217l-45.73227 0z" fill-rule="evenodd"/><path fill="#000000" d="m421.21536 88.695816q-0.171875 2.4375 -1.796875 3.84375q-1.625 1.40625 -4.296875 1.40625q-2.921875 0 -4.59375 -1.953125q-1.671875 -1.96875 -1.671875 -5.390625l0 -0.9375q0 -2.1875 0.765625 -3.84375q0.78125 -1.671875 2.203125 -2.5625q1.4375 -0.890625 3.34375 -0.890625q2.625 0 4.21875 1.40625q1.609375 1.40625 1.859375 3.953125l-3.125 0q-0.109375 -1.46875 -0.8125 -2.125q-0.703125 -0.671875 -2.140625 -0.671875q-1.5625 0 -2.34375 1.125q-0.78125 1.109375 -0.796875 3.46875l0 1.140625q0 2.46875 0.734375 3.609375q0.75 1.125 2.359375 1.125q1.453125 0 2.15625 -0.65625q0.71875 -0.671875 0.828125 -2.046875l3.109375 0z" fill-rule="nonzero"/><path fill="#b4a7d6" d="m500.87988 130.06738l45.7323 0l0 30.29921l-45.7323 0z" fill-rule="evenodd"/><path stroke="#000000" stroke-width="2.0" stroke-linejoin="round" stroke-linecap="butt" d="m500.87988 130.06738l45.7323 0l0 30.29921l-45.7323 0z" fill-rule="evenodd"/><path fill="#000000" d="m523.08624 146.61887l-1.625 1.75l0 4.328125l-3.125 0l0 -15.15625l3.125 0l0 6.859375l1.375 -1.875l3.859375 -4.984375l3.84375 0l-5.390625 6.734375l5.546875 8.421875l-3.71875 0l-3.890625 -6.078125z" fill-rule="nonzero"/><path fill="#b6d7a8" d="m580.2154 130.06738l45.7323 0l0 30.29921l-45.7323 0z" fill-rule="evenodd"/><path stroke="#000000" stroke-width="2.0" stroke-linejoin="round" stroke-linecap="butt" d="m580.2154 130.06738l45.7323 0l0 30.29921l-45.7323 0z" fill-rule="evenodd"/><path fill="#000000" d="m603.2446 147.15012l-2.484375 0l0 5.546875l-3.125 0l0 -15.15625l5.625 0q2.6875 0 4.140625 1.203125q1.46875 1.1875 1.46875 3.375q0 1.546875 -0.671875 2.59375q-0.671875 1.03125 -2.03125 1.640625l3.265625 6.203125l0 0.140625l-3.34375 0l-2.84375 -5.546875zm-2.484375 -2.53125l2.515625 0q1.171875 0 1.8125 -0.59375q0.65625 -0.609375 0.65625 -1.65625q0 -1.078125 -0.609375 -1.6875q-0.609375 -0.609375 -1.875 -0.609375l-2.5 0l0 4.546875z" fill-rule="nonzero"/><path fill="#b6d7a8" d="m352.83337 130.06738l45.73227 0l0 30.29921l-45.73227 0z" fill-rule="evenodd"/><path stroke="#000000" stroke-width="2.0" stroke-linejoin="round" stroke-linecap="butt" d="m352.83337 130.06738l45.73227 0l0 30.29921l-45.73227 0z" fill-rule="evenodd"/><path fill="#000000" d="m378.44604 149.57199l-5.484375 0l-1.046875 3.125l-3.3125 0l5.640625 -15.15625l2.890625 0l5.671875 15.15625l-3.3125 0l-1.046875 -3.125zm-4.640625 -2.53125l3.796875 0l-1.90625 -5.671875l-1.890625 5.671875z" fill-rule="nonzero"/><path fill="#b6d7a8" d="m388.26617 189.02014l45.7323 0l0 30.29921l-45.7323 0z" fill-rule="evenodd"/><path stroke="#000000" stroke-width="2.0" stroke-linejoin="round" stroke-linecap="butt" d="m388.26617 189.02014l45.7323 0l0 30.29921l-45.7323 0z" fill-rule="evenodd"/><path fill="#000000" d="m405.68607 211.64975l0 -15.15625l5.3125 0q2.75 0 4.171875 1.0625q1.4375 1.046875 1.4375 3.09375q0 1.109375 -0.578125 1.953125q-0.578125 0.84375 -1.59375 1.25q1.171875 0.28125 1.84375 1.171875q0.671875 0.890625 0.671875 2.171875q0 2.1875 -1.40625 3.3125q-1.390625 1.125 -3.96875 1.140625l-5.890625 0zm3.125 -6.609375l0 4.09375l2.671875 0q1.109375 0 1.71875 -0.515625q0.625 -0.53125 0.625 -1.453125q0 -2.09375 -2.15625 -2.125l-2.859375 0zm0 -2.203125l2.3125 0q2.359375 -0.046875 2.359375 -1.875q0 -1.03125 -0.609375 -1.484375q-0.59375 -0.453125 -1.875 -0.453125l-2.1875 0l0 3.8125z" fill-rule="nonzero"/><path fill="#000000" fill-opacity="0.0" d="m414.9428 71.11308l69.700806 -28.661415" fill-rule="evenodd"/><path stroke="#000000" stroke-width="2.0" stroke-linejoin="round" stroke-linecap="butt" d="m414.9428 71.11308l69.700806 -28.661415" fill-rule="evenodd"/><path fill="#000000" fill-opacity="0.0" d="m414.9428 101.4123l-39.24408 28.661415" fill-rule="evenodd"/><path stroke="#000000" stroke-width="2.0" stroke-linejoin="round" stroke-linecap="butt" d="m414.9428 101.4123l-39.24408 28.661415" fill-rule="evenodd"/><path fill="#000000" fill-opacity="0.0" d="m375.69952 160.3666l35.433044 28.661423" fill-rule="evenodd"/><path stroke="#000000" stroke-width="2.0" stroke-linejoin="round" stroke-linecap="butt" d="m375.69952 160.3666l35.433044 28.661423" fill-rule="evenodd"/><path fill="#000000" fill-opacity="0.0" d="m484.64377 42.458004l39.08664 87.62204" fill-rule="evenodd"/><path stroke="#000000" stroke-width="2.0" stroke-linejoin="round" stroke-linecap="butt" d="m484.64377 42.458004l39.08664 87.62204" fill-rule="evenodd"/><path fill="#000000" fill-opacity="0.0" d="m484.64377 42.458004l118.4252 87.62204" fill-rule="evenodd"/><path stroke="#000000" stroke-width="2.0" stroke-linejoin="round" stroke-linecap="butt" d="m484.64377 42.458004l118.4252 87.62204" fill-rule="evenodd"/><path fill="#000000" fill-opacity="0.0" d="m523.74603 160.3666l-32.126007 28.661423" fill-rule="evenodd"/><path stroke="#000000" stroke-width="2.0" stroke-linejoin="round" stroke-linecap="butt" d="m523.74603 160.3666l-32.126007 28.661423" fill-rule="evenodd"/><path fill="#000000" fill-opacity="0.0" d="m523.74603 160.3666l39.24408 28.661423" fill-rule="evenodd"/><path stroke="#000000" stroke-width="2.0" stroke-linejoin="round" stroke-linecap="butt" d="m523.74603 160.3666l39.24408 28.661423" fill-rule="evenodd"/><path fill="#b6d7a8" d="m468.74268 189.0217l45.7323 0l0 30.29921l-45.7323 0z" fill-rule="evenodd"/><path stroke="#000000" stroke-width="2.0" stroke-linejoin="round" stroke-linecap="butt" d="m468.74268 189.0217l45.7323 0l0 30.29921l-45.7323 0z" fill-rule="evenodd"/><path fill="#000000" d="m493.1207 196.49506l3.125 0l0 10.484375q0 1.453125 -0.640625 2.5625q-0.640625 1.109375 -1.8125 1.71875q-1.15625 0.59375 -2.625 0.59375q-2.40625 0 -3.75 -1.21875q-1.34375 -1.21875 -1.34375 -3.46875l3.140625 0q0 1.125 0.46875 1.65625q0.46875 0.53125 1.484375 0.53125q0.890625 0 1.421875 -0.609375q0.53125 -0.625 0.53125 -1.765625l0 -10.484375z" fill-rule="nonzero"/><path fill="#b6d7a8" d="m540.12317 189.0217l45.7323 0l0 30.29921l-45.7323 0z" fill-rule="evenodd"/><path stroke="#000000" stroke-width="2.0" stroke-linejoin="round" stroke-linecap="butt" d="m540.12317 189.0217l45.7323 0l0 30.29921l-45.7323 0z" fill-rule="evenodd"/><path fill="#000000" d="m561.6991 209.13568l6.625 0l0 2.515625l-9.75 0l0 -15.15625l3.125 0l0 12.640625z" fill-rule="nonzero"/><defs><linearGradient id="p.1" gradientUnits="userSpaceOnUse" gradientTransform="matrix(8.36942316378424 0.0 0.0 8.36942316378424 0.0 0.0)" spreadMethod="pad" x1="53.721762176720766" y1="5.072990625335572" x2="62.09118534050501" y2="5.072990625335572"><stop offset="0.0" stop-color="#f4cccc"/><stop offset="1.0" stop-color="#c9daf8"/></linearGradient></defs><path fill="url(#p.1)" d="m449.62015 12.1587925l70.04727 0l0 30.299212l-70.04727 0z" fill-rule="evenodd"/><path stroke="#000000" stroke-width="2.0" stroke-linejoin="round" stroke-linecap="butt" d="m449.62015 12.1587925l70.04727 0l0 30.299212l-70.04727 0z" fill-rule="evenodd"/><path fill="#000000" d="m478.53394 32.866524q-0.84375 1.015625 -2.390625 1.578125q-1.53125 0.546875 -3.40625 0.546875q-1.96875 0 -3.453125 -0.859375q-1.484375 -0.859375 -2.296875 -2.484375q-0.796875 -1.640625 -0.8125 -3.84375l0 -1.03125q0 -2.28125 0.765625 -3.9375q0.765625 -1.65625 2.203125 -2.53125q1.4375 -0.890625 3.375 -0.890625q2.703125 0 4.21875 1.296875q1.515625 1.28125 1.796875 3.734375l-3.03125 0q-0.203125 -1.296875 -0.921875 -1.890625q-0.71875 -0.609375 -1.96875 -0.609375q-1.59375 0 -2.421875 1.203125q-0.828125 1.1875 -0.84375 3.546875l0 0.96875q0 2.390625 0.90625 3.609375q0.90625 1.21875 2.65625 1.21875q1.765625 0 2.515625 -0.75l0 -2.625l-2.84375 0l0 -2.296875l5.953125 0l0 6.046875zm16.290741 -3.421875l0 5.34375l-3.125 0l0 -15.15625l5.90625 0q1.71875 0 3.0 0.625q1.296875 0.625 2.0 1.78125q0.703125 1.140625 0.703125 2.609375q0 2.21875 -1.53125 3.515625q-1.515625 1.28125 -4.21875 1.28125l-2.734375 0zm0 -2.53125l2.78125 0q1.25 0 1.890625 -0.578125q0.65625 -0.59375 0.65625 -1.671875q0 -1.109375 -0.65625 -1.796875q-0.65625 -0.6875 -1.8125 -0.703125l-2.859375 0l0 4.75z" fill-rule="nonzero"/><path fill="#b6d7a8" d="m72.24991 128.84953l45.732285 0l0 30.29921l-45.732285 0z" fill-rule="evenodd"/><path stroke="#000000" stroke-width="2.0" stroke-linejoin="round" stroke-linecap="butt" d="m72.24991 128.84953l45.732285 0l0 30.29921l-45.732285 0z" fill-rule="evenodd"/><path fill="#000000" d="m101.38859 146.43227q-0.171875 2.4375 -1.796875 3.84375q-1.625 1.40625 -4.296875 1.40625q-2.921875 0 -4.59375 -1.953125q-1.671875 -1.96875 -1.671875 -5.390625l0 -0.9375q0 -2.1875 0.765625 -3.84375q0.78125 -1.671875 2.203125 -2.5625q1.4375 -0.890625 3.34375 -0.890625q2.625 0 4.21875 1.40625q1.609375 1.40625 1.859375 3.953125l-3.125 0q-0.109375 -1.46875 -0.8125 -2.125q-0.703125 -0.671875 -2.140625 -0.671875q-1.5625 0 -2.34375 1.125q-0.78125 1.109375 -0.796875 3.46875l0 1.140625q0 2.46875 0.734375 3.609375q0.75 1.125 2.359375 1.125q1.453125 0 2.15625 -0.65625q0.71875 -0.671875 0.828125 -2.046875l3.109375 0z" fill-rule="nonzero"/><path fill="#b4a7d6" d="m205.05312 128.84953l45.73227 0l0 30.29921l-45.73227 0z" fill-rule="evenodd"/><path stroke="#000000" stroke-width="2.0" stroke-linejoin="round" stroke-linecap="butt" d="m205.05312 128.84953l45.73227 0l0 30.29921l-45.73227 0z" fill-rule="evenodd"/><path fill="#000000" d="m227.25945 145.40102l-1.625 1.75l0 4.328125l-3.125 0l0 -15.15625l3.125 0l0 6.859375l1.375 -1.875l3.859375 -4.984375l3.84375 0l-5.390625 6.734375l5.546875 8.421875l-3.71875 0l-3.890625 -6.078125z" fill-rule="nonzero"/><path fill="#b6d7a8" d="m279.17078 69.89524l45.73227 0l0 30.29921l-45.73227 0z" fill-rule="evenodd"/><path stroke="#000000" stroke-width="2.0" stroke-linejoin="round" stroke-linecap="butt" d="m279.17078 69.89524l45.73227 0l0 30.29921l-45.73227 0z" fill-rule="evenodd"/><path fill="#000000" d="m302.2 86.97797l-2.484375 0l0 5.546875l-3.125 0l0 -15.15625l5.625 0q2.6875 0 4.140625 1.203125q1.46875 1.1875 1.46875 3.375q0 1.546875 -0.671875 2.59375q-0.671875 1.03125 -2.03125 1.640625l3.265625 6.203125l0 0.140625l-3.34375 0l-2.84375 -5.546875zm-2.484375 -2.53125l2.515625 0q1.171875 0 1.8125 -0.59375q0.65625 -0.609375 0.65625 -1.65625q0 -1.078125 -0.609375 -1.6875q-0.609375 -0.609375 -1.875 -0.609375l-2.5 0l0 4.546875z" fill-rule="nonzero"/><path fill="#b6d7a8" d="m33.0066 187.80385l45.732285 0l0 30.29921l-45.732285 0z" fill-rule="evenodd"/><path stroke="#000000" stroke-width="2.0" stroke-linejoin="round" stroke-linecap="butt" d="m33.0066 187.80385l45.732285 0l0 30.29921l-45.732285 0z" fill-rule="evenodd"/><path fill="#000000" d="m58.619286 207.30846l-5.484375 0l-1.046875 3.125l-3.3125038 0l5.640629 -15.15625l2.890625 0l5.671875 15.15625l-3.3125 0l-1.046875 -3.125zm-4.640625 -2.53125l3.796875 0l-1.90625 -5.671875l-1.890625 5.671875z" fill-rule="nonzero"/><path fill="#b6d7a8" d="m72.25174 246.75923l45.732285 0l0 30.29921l-45.732285 0z" fill-rule="evenodd"/><path stroke="#000000" stroke-width="2.0" stroke-linejoin="round" stroke-linecap="butt" d="m72.25174 246.75923l45.732285 0l0 30.29921l-45.732285 0z" fill-rule="evenodd"/><path fill="#000000" d="m89.67162 269.38882l0 -15.156235l5.3125 0q2.75 0 4.171875 1.0625q1.4375 1.0468597 1.4375 3.0937347q0 1.109375 -0.578125 1.953125q-0.578125 0.84375 -1.59375 1.25q1.171875 0.28125 1.84375 1.171875q0.671875 0.890625 0.671875 2.171875q0 2.1875 -1.40625 3.3125q-1.390625 1.125 -3.96875 1.140625l-5.890625 0zm3.125 -6.609375l0 4.09375l2.671875 0q1.109375 0 1.71875 -0.515625q0.625 -0.53125 0.625 -1.453125q0 -2.09375 -2.15625 -2.125l-2.859375 0zm0 -2.203125l2.3125 0q2.359375 -0.046875 2.359375 -1.875q0 -1.03125 -0.609375 -1.484375q-0.59375 -0.453125 -1.875 -0.453125l-2.1875 0l0 3.8125z" fill-rule="nonzero"/><path fill="#000000" fill-opacity="0.0" d="m95.11605 128.84953l54.92913 -28.661415" fill-rule="evenodd"/><path stroke="#000000" stroke-width="2.0" stroke-linejoin="round" stroke-linecap="butt" d="m95.11605 128.84953l54.92913 -28.661415" fill-rule="evenodd"/><path fill="#000000" fill-opacity="0.0" d="m95.11605 159.14874l-39.244095 28.661423" fill-rule="evenodd"/><path stroke="#000000" stroke-width="2.0" stroke-linejoin="round" stroke-linecap="butt" d="m95.11605 159.14874l-39.244095 28.661423" fill-rule="evenodd"/><path fill="#000000" fill-opacity="0.0" d="m55.872738 218.10306l39.2441 28.661423" fill-rule="evenodd"/><path stroke="#000000" stroke-width="2.0" stroke-linejoin="round" stroke-linecap="butt" d="m55.872738 218.10306l39.2441 28.661423" fill-rule="evenodd"/><path fill="#000000" fill-opacity="0.0" d="m150.04842 100.19445l77.85828 28.661415" fill-rule="evenodd"/><path stroke="#000000" stroke-width="2.0" stroke-linejoin="round" stroke-linecap="butt" d="m150.04842 100.19445l77.85828 28.661415" fill-rule="evenodd"/><path fill="#000000" fill-opacity="0.0" d="m241.512 42.456917l60.53543 27.433075" fill-rule="evenodd"/><path stroke="#000000" stroke-width="2.0" stroke-linejoin="round" stroke-linecap="butt" d="m241.512 42.456917l60.53543 27.433075" fill-rule="evenodd"/><path fill="#000000" fill-opacity="0.0" d="m227.91925 159.14874l-32.12599 28.661423" fill-rule="evenodd"/><path stroke="#000000" stroke-width="2.0" stroke-linejoin="round" stroke-linecap="butt" d="m227.91925 159.14874l-32.12599 28.661423" fill-rule="evenodd"/><path fill="#000000" fill-opacity="0.0" d="m227.91925 159.14874l39.24408 28.661423" fill-rule="evenodd"/><path stroke="#000000" stroke-width="2.0" stroke-linejoin="round" stroke-linecap="butt" d="m227.91925 159.14874l39.24408 28.661423" fill-rule="evenodd"/><path fill="#b6d7a8" d="m172.91591 187.80385l45.732285 0l0 30.29921l-45.732285 0z" fill-rule="evenodd"/><path stroke="#000000" stroke-width="2.0" stroke-linejoin="round" stroke-linecap="butt" d="m172.91591 187.80385l45.732285 0l0 30.29921l-45.732285 0z" fill-rule="evenodd"/><path fill="#000000" d="m197.29391 195.2772l3.125 0l0 10.484375q0 1.453125 -0.640625 2.5625q-0.640625 1.109375 -1.8125 1.71875q-1.15625 0.59375 -2.625 0.59375q-2.40625 0 -3.75 -1.21875q-1.34375 -1.21875 -1.34375 -3.46875l3.140625 0q0 1.125 0.46875 1.65625q0.46875 0.53125 1.484375 0.53125q0.890625 0 1.421875 -0.609375q0.53125 -0.625 0.53125 -1.765625l0 -10.484375z" fill-rule="nonzero"/><path fill="#b6d7a8" d="m244.29642 187.80385l45.7323 0l0 30.29921l-45.7323 0z" fill-rule="evenodd"/><path stroke="#000000" stroke-width="2.0" stroke-linejoin="round" stroke-linecap="butt" d="m244.29642 187.80385l45.7323 0l0 30.29921l-45.7323 0z" fill-rule="evenodd"/><path fill="#000000" d="m265.8723 207.91783l6.625 0l0 2.515625l-9.75 0l0 -15.15625l3.125 0l0 12.640625z" fill-rule="nonzero"/><path fill="#f4cccc" d="m127.18228 69.89524l45.732285 0l0 30.29921l-45.732285 0z" fill-rule="evenodd"/><path stroke="#000000" stroke-width="2.0" stroke-linejoin="round" stroke-linecap="butt" d="m127.18228 69.89524l45.732285 0l0 30.29921l-45.732285 0z" fill-rule="evenodd"/><path fill="#000000" d="m156.12831 90.60297q-0.84375 1.015625 -2.390625 1.578125q-1.53125 0.546875 -3.40625 0.546875q-1.96875 0 -3.453125 -0.859375q-1.484375 -0.859375 -2.296875 -2.484375q-0.796875 -1.640625 -0.8125 -3.84375l0 -1.03125q0 -2.28125 0.765625 -3.9375q0.765625 -1.65625 2.203125 -2.53125q1.4375 -0.890625 3.375 -0.890625q2.703125 0 4.21875 1.296875q1.515625 1.28125 1.796875 3.734375l-3.03125 0q-0.203125 -1.296875 -0.921875 -1.890625q-0.71875 -0.609375 -1.96875 -0.609375q-1.59375 0 -2.421875 1.203125q-0.828125 1.1875 -0.84375 3.546875l0 0.96875q0 2.390625 0.90625 3.609375q0.90625 1.21875 2.65625 1.21875q1.765625 0 2.515625 -0.75l0 -2.625l-2.84375 0l0 -2.296875l5.953125 0l0 6.046875z" fill-rule="nonzero"/><path fill="#a4c2f4" d="m218.64586 12.157705l45.732285 0l0 30.299212l-45.732285 0z" fill-rule="evenodd"/><path stroke="#000000" stroke-width="2.0" stroke-linejoin="round" stroke-linecap="butt" d="m218.64586 12.157705l45.732285 0l0 30.299212l-45.732285 0z" fill-rule="evenodd"/><path fill="#000000" d="m239.11784 29.443562l0 5.34375l-3.125 0l0 -15.15625l5.90625 0q1.71875 0 3.0 0.625q1.296875 0.625 2.0 1.78125q0.703125 1.140625 0.703125 2.609375q0 2.21875 -1.53125 3.515625q-1.515625 1.28125 -4.21875 1.28125l-2.734375 0zm0 -2.53125l2.78125 0q1.25 0 1.890625 -0.578125q0.65625 -0.59375 0.65625 -1.671875q0 -1.109375 -0.65625 -1.796875q-0.65625 -0.6875 -1.8125 -0.703125l-2.859375 0l0 4.75z" fill-rule="nonzero"/><path fill="#000000" fill-opacity="0.0" d="m150.04842 69.89524l91.46457 -27.433075" fill-rule="evenodd"/><path stroke="#000000" stroke-width="2.0" stroke-linejoin="round" stroke-linecap="butt" d="m150.04842 69.89524l91.46457 -27.433075" fill-rule="evenodd"/></g></svg>