<svg version="1.1" viewBox="0.0 0.0 960.0 288.0" fill="none" stroke="none" stroke-linecap="square" stroke-miterlimit="10" xmlns:xlink="http://www.w3.org/1999/xlink" xmlns="http://www.w3.org/2000/svg"><clipPath id="p.0"><path d="m0 0l960.0 0l0 288.0l-960.0 0l0 -288.0z" clip-rule="nonzero"/></clipPath><g clip-path="url(#p.0)"><path fill="#000000" fill-opacity="0.0" d="m0 0l960.0 0l0 288.0l-960.0 0z" fill-rule="evenodd"/><path fill="#f4cccc" d="m227.72557 54.817585l45.732285 0l0 30.299213l-45.732285 0z" fill-rule="evenodd"/><path stroke="#000000" stroke-width="2.0" stroke-linejoin="round" stroke-linecap="butt" d="m227.72557 54.817585l45.732285 0l0 30.299213l-45.732285 0z" fill-rule="evenodd"/><path fill="#000000" d="m245.0205 77.44719l0 -15.156246l4.65625 0q2.0 0 3.578125 0.90625q1.578125 0.8906212 2.453125 2.5468712q0.89060974 1.65625 0.89060974 3.78125l0 0.6875q0 2.125 -0.87498474 3.765625q-0.859375 1.640625 -2.4375 2.546875q-1.578125 0.90625 -3.578125 0.921875l-4.6875 0zm3.125 -12.625l0 10.109375l1.5 0q1.84375 0 2.8125 -1.1875q0.96875 -1.203125 0.984375 -3.4375l0 -0.796875q0 -2.3125 -0.96875 -3.5q-0.953125 -1.1875 -2.796875 -1.1875l-1.53125 0z" fill-rule="nonzero"/><path fill="#a4c2f4" d="m132.24072 113.77188l45.732285 0l0 30.29921l-45.732285 0z" fill-rule="evenodd"/><path stroke="#000000" stroke-width="2.0" stroke-linejoin="round" stroke-linecap="butt" d="m132.24072 113.77188l45.732285 0l0 30.29921l-45.732285 0z" fill-rule="evenodd"/><path fill="#000000" d="m149.6606 136.40149l0 -15.156258l5.3125 0q2.75 0 4.171875 1.0625q1.4375 1.046875 1.4375 3.09375q0 1.109375 -0.578125 1.953125q-0.578125 0.8437576 -1.59375 1.2500076q1.171875 0.28125 1.84375 1.171875q0.671875 0.890625 0.671875 2.171875q0 2.1875 -1.40625 3.3125q-1.390625 1.125 -3.96875 1.140625l-5.890625 0zm3.125 -6.609375l0 4.09375l2.671875 0q1.109375 0 1.71875 -0.515625q0.625 -0.53125 0.625 -1.453125q0 -2.09375 -2.15625 -2.125l-2.859375 0zm0 -2.2031326l2.3125 0q2.359375 -0.046875 2.359375 -1.875q0 -1.03125 -0.609375 -1.484375q-0.59375 -0.453125 -1.875 -0.453125l-2.1875 0l0 3.8125z" fill-rule="nonzero"/><path fill="#000000" fill-opacity="0.0" d="m155.10686 113.77188l95.49606 -28.661423" fill-rule="evenodd"/><path stroke="#000000" stroke-width="2.0" stroke-linejoin="round" stroke-linecap="butt" d="m155.10686 113.77188l95.49606 -28.661423" fill-rule="evenodd"/><path fill="#000000" fill-opacity="0.0" d="m155.10686 144.07109l-56.629913 32.44095" fill-rule="evenodd"/><path stroke="#000000" stroke-width="2.0" stroke-linejoin="round" stroke-linecap="butt" d="m155.10686 144.07109l-56.629913 32.44095" fill-rule="evenodd"/><path fill="#000000" fill-opacity="0.0" d="m155.10686 144.07109l58.015747 32.44095" fill-rule="evenodd"/><path stroke="#000000" stroke-width="2.0" stroke-linejoin="round" stroke-linecap="butt" d="m155.10686 144.07109l58.015747 32.44095" fill-rule="evenodd"/><path fill="#000000" fill-opacity="0.0" d="m250.59172 85.1168l95.244095 17.795273" fill-rule="evenodd"/><path stroke="#000000" stroke-width="2.0" stroke-linejoin="round" stroke-linecap="butt" d="m250.59172 85.1168l95.244095 17.795273" fill-rule="evenodd"/><path fill="#b4a7d6" d="m183.04724 228.5105l30.062988 -52.0l30.063004 52.0z" fill-rule="evenodd"/><path stroke="#000000" stroke-width="2.0" stroke-linejoin="round" stroke-linecap="butt" d="m183.04724 228.5105l30.062988 -52.0l30.063004 52.0z" fill-rule="evenodd"/><path fill="#b6d7a8" d="m68.41207 228.5105l30.062996 -52.0l30.062988 52.0z" fill-rule="evenodd"/><path stroke="#000000" stroke-width="2.0" stroke-linejoin="round" stroke-linecap="butt" d="m68.41207 228.5105l30.062996 -52.0l30.062988 52.0z" fill-rule="evenodd"/><path fill="#b6d7a8" d="m315.7874 154.92258l30.062988 -52.000008l30.062988 52.000008z" fill-rule="evenodd"/><path stroke="#000000" stroke-width="2.0" stroke-linejoin="round" stroke-linecap="butt" d="m315.7874 154.92258l30.062988 -52.000008l30.062988 52.000008z" fill-rule="evenodd"/><path fill="#000000" fill-opacity="0.0" d="m413.56693 111.7021l154.07877 0" fill-rule="evenodd"/><path stroke="#000000" stroke-width="2.0" stroke-linejoin="round" stroke-linecap="butt" d="m413.56693 111.7021l142.07877 0" fill-rule="evenodd"/><path fill="#000000" stroke="#000000" stroke-width="2.0" stroke-linecap="butt" d="m555.6457 115.00556l9.076172 -3.3034592l-9.076172 -3.3034668z" fill-rule="evenodd"/><path fill="#000000" fill-opacity="0.0" d="m565.56696 202.07217l-154.07877 0" fill-rule="evenodd"/><path stroke="#000000" stroke-width="2.0" stroke-linejoin="round" stroke-linecap="butt" d="m565.56696 202.07217l-142.07877 0" fill-rule="evenodd"/><path fill="#000000" stroke="#000000" stroke-width="2.0" stroke-linecap="butt" d="m423.4882 198.7687l-9.076202 3.3034668l9.076202 3.3034668z" fill-rule="evenodd"/><path fill="#000000" fill-opacity="0.0" d="m412.08398 64.88976l160.25195 0l0 39.716537l-160.25195 0z" fill-rule="evenodd"/><path fill="#000000" d="m428.56836 85.91664q-0.609375 -0.078125 -1.078125 -0.078125q-1.703125 0 -2.234375 1.15625l0 7.375l-3.015625 0l0 -11.265625l2.84375 0l0.078125 1.34375q0.90625 -1.546875 2.515625 -1.546875q0.5 0 0.9375 0.125l-0.046875 2.890625zm0.6074829 2.71875q0 -1.6875 0.640625 -3.0q0.65625 -1.3125 1.859375 -2.015625q1.21875 -0.71875 2.828125 -0.71875q2.28125 0 3.71875 1.390625q1.4375 1.390625 1.609375 3.78125l0.015625 0.78125q0 2.59375 -1.453125 4.15625q-1.4375 1.5625 -3.875 1.5625q-2.4375 0 -3.890625 -1.5625q-1.453125 -1.5625 -1.453125 -4.25l0 -0.125zm3.015625 0.21875q0 1.59375 0.59375 2.453125q0.609375 0.84375 1.734375 0.84375q1.09375 0 1.703125 -0.828125q0.625 -0.84375 0.625 -2.6875q0 -1.578125 -0.625 -2.4375q-0.609375 -0.875 -1.71875 -0.875q-1.109375 0 -1.71875 0.859375q-0.59375 0.859375 -0.59375 2.671875zm13.12207 -8.515625l0 2.765625l1.921875 0l0 2.203125l-1.921875 0l0 5.625q0 0.625 0.234375 0.90625q0.234375 0.265625 0.921875 0.265625q0.5 0 0.875 -0.078125l0 2.28125q-0.875 0.265625 -1.8125 0.265625q-3.171875 0 -3.234375 -3.1875l0 -6.078125l-1.640625 0l0 -2.203125l1.640625 0l0 -2.765625l3.015625 0zm10.1284485 14.03125q-0.203125 -0.40625 -0.296875 -1.015625q-1.09375 1.21875 -2.84375 1.21875q-1.65625 0 -2.75 -0.953125q-1.09375 -0.953125 -1.09375 -2.421875q0 -1.78125 1.328125 -2.734375q1.328125 -0.96875 3.84375 -0.984375l1.390625 0l0 -0.640625q0 -0.78125 -0.40625 -1.25q-0.40625 -0.46875 -1.265625 -0.46875q-0.765625 0 -1.203125 0.375q-0.421875 0.359375 -0.421875 0.984375l-3.015625 0q0 -0.96875 0.609375 -1.796875q0.609375 -0.84375 1.703125 -1.3125q1.109375 -0.46875 2.484375 -0.46875q2.078125 0 3.296875 1.046875q1.234375 1.03125 1.234375 2.9375l0 4.875q0.015625 1.609375 0.4375 2.4375l0 0.171875l-3.03125 0zm-2.484375 -2.09375q0.65625 0 1.21875 -0.296875q0.5625 -0.296875 0.84375 -0.796875l0 -1.9375l-1.125 0q-2.265625 0 -2.40625 1.5625l-0.015625 0.171875q0 0.5625 0.390625 0.9375q0.40625 0.359375 1.09375 0.359375zm10.997192 -11.9375l0 2.765625l1.921875 0l0 2.203125l-1.921875 0l0 5.625q0 0.625 0.234375 0.90625q0.234375 0.265625 0.921875 0.265625q0.5 0 0.875 -0.078125l0 2.28125q-0.875 0.265625 -1.8125 0.265625q-3.171875 0 -3.234375 -3.1875l0 -6.078125l-1.640625 0l0 -2.203125l1.640625 0l0 -2.765625l3.015625 0zm8.7846985 14.234375q-2.484375 0 -4.046875 -1.515625q-1.546875 -1.515625 -1.546875 -4.046875l0 -0.296875q0 -1.703125 0.65625 -3.03125q0.65625 -1.34375 1.859375 -2.0625q1.203125 -0.71875 2.75 -0.71875q2.3125 0 3.625 1.453125q1.328125 1.453125 1.328125 4.125l0 1.234375l-7.171875 0q0.15625 1.109375 0.890625 1.78125q0.734375 0.65625 1.859375 0.65625q1.734375 0 2.71875 -1.265625l1.46875 1.65625q-0.671875 0.96875 -1.828125 1.5q-1.15625 0.53125 -2.5625 0.53125zm-0.34375 -9.25q-0.890625 0 -1.453125 0.609375q-0.5625 0.609375 -0.71875 1.734375l4.1875 0l0 -0.25q-0.015625 -1.0 -0.546875 -1.546875q-0.515625 -0.546875 -1.46875 -0.546875zm12.497192 3.5l-2.484375 0l0 5.546875l-3.125 0l0 -15.15625l5.625 0q2.6875 0 4.140625 1.203125q1.46875 1.1875 1.46875 3.375q0 1.546875 -0.671875 2.59375q-0.671875 1.03125 -2.03125 1.640625l3.265625 6.203125l0 0.140625l-3.34375 0l-2.84375 -5.546875zm-2.484375 -2.53125l2.515625 0q1.171875 0 1.8125 -0.59375q0.65625 -0.609375 0.65625 -1.65625q0 -1.078125 -0.609375 -1.6875q-0.609375 -0.609375 -1.875 -0.609375l-2.5 0l0 4.546875zm13.455017 8.078125l-3.015625 0l0 -11.265625l3.015625 0l0 11.265625zm-3.1875 -14.1875q0 -0.671875 0.453125 -1.109375q0.453125 -0.4375 1.234375 -0.4375q0.765625 0 1.21875 0.4375q0.46875 0.4375 0.46875 1.109375q0 0.6875 -0.46875 1.125q-0.46875 0.4375 -1.234375 0.4375q-0.75 0 -1.21875 -0.4375q-0.453125 -0.4375 -0.453125 -1.125zm5.2330017 8.46875q0 -2.59375 1.234375 -4.171875q1.234375 -1.578125 3.328125 -1.578125q1.859375 0 2.890625 1.265625l0.125 -1.0625l2.71875 0l0 10.890625q0 1.484375 -0.671875 2.578125q-0.671875 1.09375 -1.890625 1.65625q-1.21875 0.578125 -2.84375 0.578125q-1.25 0 -2.421875 -0.5q-1.171875 -0.484375 -1.78125 -1.265625l1.328125 -1.84375q1.125 1.265625 2.734375 1.265625q1.203125 0 1.859375 -0.640625q0.671875 -0.640625 0.671875 -1.8125l0 -0.609375q-1.046875 1.171875 -2.734375 1.171875q-2.03125 0 -3.296875 -1.578125q-1.25 -1.59375 -1.25 -4.21875l0 -0.125zm3.015625 0.21875q0 1.53125 0.609375 2.40625q0.609375 0.859375 1.6875 0.859375q1.375 0 1.96875 -1.03125l0 -4.734375q-0.609375 -1.03125 -1.953125 -1.03125q-1.078125 0 -1.703125 0.890625q-0.609375 0.875 -0.609375 2.640625zm12.533478 -4.546875q1.203125 -1.421875 3.015625 -1.421875q3.65625 0 3.703125 4.25l0 7.21875l-3.0 0l0 -7.140625q0 -0.96875 -0.421875 -1.421875q-0.40625 -0.46875 -1.375 -0.46875q-1.328125 0 -1.921875 1.015625l0 8.015625l-3.0155945 0l0 -16.0l3.0155945 0l0 5.953125zm12.606506 -3.984375l0 2.765625l1.921875 0l0 2.203125l-1.921875 0l0 5.625q0 0.625 0.234375 0.90625q0.234375 0.265625 0.921875 0.265625q0.5 0 0.875 -0.078125l0 2.28125q-0.875 0.265625 -1.8125 0.265625q-3.171875 0 -3.234375 -3.1875l0 -6.078125l-1.640625 0l0 -2.203125l1.640625 0l0 -2.765625l3.015625 0zm3.737793 7.859375q0 -2.375 0.625 -4.53125q0.640625 -2.15625 1.875 -3.8125q1.25 -1.671875 2.6875 -2.3125l0.59375 1.625q-1.53125 1.125 -2.390625 3.484375q-0.84375 2.34375 -0.84375 5.484375l0 0.328125q0 3.15625 0.84375 5.53125q0.84375 2.359375 2.390625 3.515625l-0.59375 1.59375q-1.40625 -0.625 -2.640625 -2.234375q-1.21875 -1.609375 -1.875 -3.71875q-0.640625 -2.109375 -0.671875 -4.390625l0 -0.5625zm7.550293 6.171875l0 -15.15625l4.65625 0q2.0 0 3.578125 0.90625q1.578125 0.890625 2.453125 2.546875q0.890625 1.65625 0.890625 3.78125l0 0.6875q0 2.125 -0.875 3.765625q-0.859375 1.640625 -2.4375 2.546875q-1.578125 0.90625 -3.578125 0.921875l-4.6875 0zm3.125 -12.625l0 10.109375l1.5 0q1.84375 0 2.8125 -1.1875q0.96875 -1.203125 0.984375 -3.4375l0 -0.796875q0 -2.3125 -0.96875 -3.5q-0.953125 -1.1875 -2.796875 -1.1875l-1.53125 0zm15.720581 6.703125q0 2.34375 -0.6875 4.53125q-0.671875 2.171875 -1.9375 3.828125q-1.265625 1.671875 -2.71875 2.296875l-0.578125 -1.59375q1.46875 -1.109375 2.328125 -3.421875q0.859375 -2.328125 0.890625 -5.359375l0 -0.546875q0 -3.109375 -0.859375 -5.484375q-0.84375 -2.375 -2.359375 -3.5625l0.578125 -1.59375q1.421875 0.609375 2.671875 2.234375q1.25 1.609375 1.9375 3.75q0.703125 2.140625 0.734375 4.453125l0 0.46875z" fill-rule="nonzero"/><path fill="#000000" fill-opacity="0.0" d="m413.56693 199.92258l154.07877 0l0 39.716537l-154.07877 0z" fill-rule="evenodd"/><path fill="#000000" d="m430.0513 220.94945q-0.609375 -0.078125 -1.078125 -0.078125q-1.703125 0 -2.234375 1.15625l0 7.375l-3.015625 0l0 -11.265625l2.84375 0l0.078125 1.34375q0.90625 -1.546875 2.515625 -1.546875q0.5 0 0.9375 0.125l-0.046875 2.890625zm0.6074829 2.71875q0 -1.6875 0.640625 -3.0q0.65625 -1.3125 1.859375 -2.015625q1.21875 -0.71875 2.828125 -0.71875q2.28125 0 3.71875 1.390625q1.4375 1.390625 1.609375 3.78125l0.015625 0.78125q0 2.59375 -1.453125 4.15625q-1.4375 1.5625 -3.875 1.5625q-2.4375 0 -3.890625 -1.5625q-1.453125 -1.5625 -1.453125 -4.25l0 -0.125zm3.015625 0.21875q0 1.59375 0.59375 2.453125q0.609375 0.84375 1.734375 0.84375q1.09375 0 1.703125 -0.828125q0.625 -0.84375 0.625 -2.6875q0 -1.578125 -0.625 -2.4375q-0.609375 -0.875 -1.71875 -0.875q-1.109375 0 -1.71875 0.859375q-0.59375 0.859375 -0.59375 2.671875zm13.12207 -8.515625l0 2.765625l1.921875 0l0 2.203125l-1.921875 0l0 5.625q0 0.625 0.234375 0.90625q0.234375 0.265625 0.921875 0.265625q0.5 0 0.875 -0.078125l0 2.28125q-0.875 0.265625 -1.8125 0.265625q-3.171875 0 -3.234375 -3.1875l0 -6.078125l-1.640625 0l0 -2.203125l1.640625 0l0 -2.765625l3.015625 0zm10.1284485 14.03125q-0.203125 -0.40625 -0.296875 -1.015625q-1.09375 1.21875 -2.84375 1.21875q-1.65625 0 -2.75 -0.953125q-1.09375 -0.953125 -1.09375 -2.421875q0 -1.78125 1.328125 -2.734375q1.328125 -0.96875 3.84375 -0.984375l1.390625 0l0 -0.640625q0 -0.78125 -0.40625 -1.25q-0.40625 -0.46875 -1.265625 -0.46875q-0.765625 0 -1.203125 0.375q-0.421875 0.359375 -0.421875 0.984375l-3.015625 0q0 -0.96875 0.609375 -1.796875q0.609375 -0.84375 1.703125 -1.3125q1.109375 -0.46875 2.484375 -0.46875q2.078125 0 3.296875 1.046875q1.234375 1.03125 1.234375 2.9375l0 4.875q0.015625 1.609375 0.4375 2.4375l0 0.171875l-3.03125 0zm-2.484375 -2.09375q0.65625 0 1.21875 -0.296875q0.5625 -0.296875 0.84375 -0.796875l0 -1.9375l-1.125 0q-2.265625 0 -2.40625 1.5625l-0.015625 0.171875q0 0.5625 0.390625 0.9375q0.40625 0.359375 1.09375 0.359375zm10.997192 -11.9375l0 2.765625l1.921875 0l0 2.203125l-1.921875 0l0 5.625q0 0.625 0.234375 0.90625q0.234375 0.265625 0.921875 0.265625q0.5 0 0.875 -0.078125l0 2.28125q-0.875 0.265625 -1.8125 0.265625q-3.171875 0 -3.234375 -3.1875l0 -6.078125l-1.640625 0l0 -2.203125l1.640625 0l0 -2.765625l3.015625 0zm8.7846985 14.234375q-2.484375 0 -4.046875 -1.515625q-1.546875 -1.515625 -1.546875 -4.046875l0 -0.296875q0 -1.703125 0.65625 -3.03125q0.65625 -1.34375 1.859375 -2.0625q1.203125 -0.71875 2.75 -0.71875q2.3125 0 3.625 1.453125q1.328125 1.453125 1.328125 4.125l0 1.234375l-7.171875 0q0.15625 1.109375 0.890625 1.78125q0.734375 0.65625 1.859375 0.65625q1.734375 0 2.71875 -1.265625l1.46875 1.65625q-0.671875 0.96875 -1.828125 1.5q-1.15625 0.53125 -2.5625 0.53125zm-0.34375 -9.25q-0.890625 0 -1.453125 0.609375q-0.5625 0.609375 -0.71875 1.734375l4.1875 0l0 -0.25q-0.015625 -1.0 -0.546875 -1.546875q-0.515625 -0.546875 -1.46875 -0.546875zm10.012817 6.53125l6.625 0l0 2.515625l-9.75 0l0 -15.15625l3.125 0l0 12.640625zm13.408661 2.71875q-2.484375 0 -4.046875 -1.515625q-1.546875 -1.515625 -1.546875 -4.046875l0 -0.296875q0 -1.703125 0.65625 -3.03125q0.65625 -1.34375 1.859375 -2.0625q1.203125 -0.71875 2.75 -0.71875q2.3125 0 3.625 1.453125q1.328125 1.453125 1.328125 4.125l0 1.234375l-7.171875 0q0.15625 1.109375 0.890625 1.78125q0.734375 0.65625 1.859375 0.65625q1.734375 0 2.71875 -1.265625l1.46875 1.65625q-0.671875 0.96875 -1.828125 1.5q-1.15625 0.53125 -2.5625 0.53125zm-0.34375 -9.25q-0.890625 0 -1.453125 0.609375q-0.5625 0.609375 -0.71875 1.734375l4.1875 0l0 -0.25q-0.015625 -1.0 -0.546875 -1.546875q-0.515625 -0.546875 -1.46875 -0.546875zm7.5128174 9.046875l0 -9.0625l-1.6875 0l0 -2.203125l1.6875 0l0 -0.953125q0 -1.90625 1.078125 -2.953125q1.09375 -1.046875 3.046875 -1.046875q0.625 0 1.53125 0.21875l-0.03125 2.328125q-0.375 -0.09375 -0.90625 -0.09375q-1.703125 0 -1.703125 1.59375l0 0.90625l2.234375 0l0 2.203125l-2.234375 0l0 9.0625l-3.015625 0zm10.425232 -14.03125l0 2.765625l1.921875 0l0 2.203125l-1.921875 0l0 5.625q0 0.625 0.234375 0.90625q0.234375 0.265625 0.921875 0.265625q0.5 0 0.875 -0.078125l0 2.28125q-0.875 0.265625 -1.8125 0.265625q-3.1719055 0 -3.2344055 -3.1875l0 -6.078125l-1.640625 0l0 -2.203125l1.640625 0l0 -2.765625l3.0156555 0zm3.737793 7.859375q0 -2.375 0.625 -4.53125q0.640625 -2.15625 1.875 -3.8125q1.25 -1.671875 2.6875 -2.3125l0.59375 1.625q-1.53125 1.125 -2.390625 3.484375q-0.84375 2.34375 -0.84375 5.484375l0 0.328125q0 3.15625 0.84375 5.53125q0.84375 2.359375 2.390625 3.515625l-0.59375 1.59375q-1.40625 -0.625 -2.640625 -2.234375q-1.21875 -1.609375 -1.875 -3.71875q-0.640625 -2.109375 -0.671875 -4.390625l0 -0.5625zm7.550293 6.171875l0 -15.15625l5.3125 0q2.75 0 4.171875 1.0625q1.4375 1.046875 1.4375 3.09375q0 1.109375 -0.578125 1.953125q-0.578125 0.84375 -1.59375 1.25q1.171875 0.28125 1.84375 1.171875q0.671875 0.890625 0.671875 2.171875q0 2.1875 -1.40625 3.3125q-1.390625 1.125 -3.96875 1.140625l-5.890625 0zm3.125 -6.609375l0 4.09375l2.671875 0q1.109375 0 1.71875 -0.515625q0.625 -0.53125 0.625 -1.453125q0 -2.09375 -2.15625 -2.125l-2.859375 0zm0 -2.203125l2.3125 0q2.359375 -0.046875 2.359375 -1.875q0 -1.03125 -0.609375 -1.484375q-0.59375 -0.453125 -1.875 -0.453125l-2.1875 0l0 3.8125zm15.470642 2.890625q0 2.34375 -0.6875 4.53125q-0.671875 2.171875 -1.9375 3.828125q-1.265625 1.671875 -2.71875 2.296875l-0.578125 -1.59375q1.46875 -1.109375 2.328125 -3.421875q0.859375 -2.328125 0.890625 -5.359375l0 -0.546875q0 -3.109375 -0.859375 -5.484375q-0.84375 -2.375 -2.359375 -3.5625l0.578125 -1.59375q1.421875 0.609375 2.671875 2.234375q1.25 1.609375 1.9375 3.75q0.703125 2.140625 0.734375 4.453125l0 0.46875z" fill-rule="nonzero"/><path fill="#000000" fill-opacity="0.0" d="m323.43173 147.9179l60.126007 0l0 17.795273l-60.126007 0z" fill-rule="evenodd"/><path fill="#000000" d="m339.7286 170.72443l-6.046875 -2.109375l0 -2.890625l9.078125 3.796875l0 2.4375l-9.078125 3.8125l0 -2.90625l6.046875 -2.140625zm10.391846 6.46875l0 -15.15625l4.65625 0q2.0 0 3.578125 0.90625q1.578125 0.890625 2.453125 2.546875q0.890625 1.65625 0.890625 3.78125l0 0.6875q0 2.125 -0.875 3.765625q-0.859375 1.640625 -2.4375 2.546875q-1.578125 0.90625 -3.578125 0.921875l-4.6875 0zm3.125 -12.625l0 10.109375l1.5 0q1.84375 0 2.8125 -1.1875q0.96875 -1.203125 0.984375 -3.4375l0 -0.796875q0 -2.3125 -0.96875 -3.5q-0.953125 -1.1875 -2.796875 -1.1875l-1.53125 0z" fill-rule="nonzero"/><path fill="#000000" fill-opacity="0.0" d="m151.04727 220.5105l142.80316 0l0 17.795273l-142.80316 0z" fill-rule="evenodd"/><path fill="#000000" d="m167.34415 243.31703l-6.046875 -2.109375l0 -2.890625l9.078125 3.796875l0 2.4375l-9.078125 3.8125l0 -2.90625l6.046875 -2.140625zm10.391846 6.46875l0 -15.15625l5.3125 0q2.75 0 4.171875 1.0625q1.4375 1.046875 1.4375 3.09375q0 1.109375 -0.578125 1.953125q-0.578125 0.84375 -1.59375 1.25q1.171875 0.28125 1.84375 1.171875q0.671875 0.890625 0.671875 2.171875q0 2.1875 -1.40625 3.3125q-1.390625 1.125 -3.96875 1.140625l-5.890625 0zm3.125 -6.609375l0 4.09375l2.671875 0q1.109375 0 1.71875 -0.515625q0.625 -0.53125 0.625 -1.453125q0 -2.09375 -2.15625 -2.125l-2.859375 0zm0 -2.203125l2.3125 0q2.359375 -0.046875 2.359375 -1.875q0 -1.03125 -0.609375 -1.484375q-0.59375 -0.453125 -1.875 -0.453125l-2.1875 0l0 3.8125zm22.125595 8.8125q-0.203125 -0.40625 -0.296875 -1.015625q-1.09375 1.21875 -2.84375 1.21875q-1.65625 0 -2.75 -0.953125q-1.09375 -0.953125 -1.09375 -2.421875q0 -1.78125 1.328125 -2.734375q1.328125 -0.96875 3.84375 -0.984375l1.390625 0l0 -0.640625q0 -0.78125 -0.40625 -1.25q-0.40625 -0.46875 -1.265625 -0.46875q-0.765625 0 -1.203125 0.375q-0.421875 0.359375 -0.421875 0.984375l-3.015625 0q0 -0.96875 0.609375 -1.796875q0.609375 -0.84375 1.703125 -1.3125q1.109375 -0.46875 2.484375 -0.46875q2.078125 0 3.296875 1.046875q1.234375 1.03125 1.234375 2.9375l0 4.875q0.015625 1.609375 0.4375 2.4375l0 0.171875l-3.03125 0zm-2.484375 -2.09375q0.65625 0 1.21875 -0.296875q0.5625 -0.296875 0.84375 -0.796875l0 -1.9375l-1.125 0q-2.265625 0 -2.40625 1.5625l-0.015625 0.171875q0 0.5625 0.390625 0.9375q0.40625 0.359375 1.09375 0.359375zm10.153458 -9.171875l0.09375 1.296875q1.21875 -1.5 3.25 -1.5q1.78125 0 2.65625 1.046875q0.875 1.046875 0.890625 3.140625l0 7.28125l-3.0 0l0 -7.203125q0 -0.96875 -0.421875 -1.390625q-0.40625 -0.4375 -1.375 -0.4375q-1.28125 0 -1.90625 1.078125l0 7.953125l-3.015625 0l0 -11.265625l2.828125 0zm8.710632 5.546875q0 -2.640625 1.171875 -4.1875q1.1875 -1.5625 3.25 -1.5625q1.640625 0 2.71875 1.21875l0 -5.75l3.015625 0l0 16.0l-2.71875 0l-0.140625 -1.203125q-1.125 1.40625 -2.90625 1.40625q-1.984375 0 -3.1875 -1.5625q-1.203125 -1.5625 -1.203125 -4.359375zm3.015625 0.21875q0 1.578125 0.546875 2.421875q0.546875 0.84375 1.609375 0.84375q1.390625 0 1.96875 -1.171875l0 -4.453125q-0.5625 -1.171875 -1.953125 -1.171875q-2.171875 0 -2.171875 3.53125zm17.219727 -0.9375l5.9375 2.09375l0 2.921875l-8.96875 -3.8125l0 -2.453125l8.96875 -3.796875l0 2.90625l-5.9375 2.140625zm13.928345 6.4375l0 -15.15625l4.65625 0q2.0 0 3.578125 0.90625q1.578125 0.890625 2.453125 2.546875q0.890625 1.65625 0.890625 3.78125l0 0.6875q0 2.125 -0.875 3.765625q-0.859375 1.640625 -2.4375 2.546875q-1.578125 0.90625 -3.578125 0.921875l-4.6875 0zm3.125 -12.625l0 10.109375l1.5 0q1.84375 0 2.8125 -1.1875q0.96875 -1.203125 0.984375 -3.4375l0 -0.796875q0 -2.3125 -0.96875 -3.5q-0.953125 -1.1875 -2.796875 -1.1875l-1.53125 0z" fill-rule="nonzero"/><path fill="#000000" fill-opacity="0.0" d="m67.207054 220.78696l58.015747 0l0 17.795273l-58.015747 0z" fill-rule="evenodd"/><path fill="#000000" d="m79.800804 243.62473l5.9375 2.09375l0 2.921875l-8.96875 -3.8125l0 -2.453125l8.96875 -3.796875l0 2.90625l-5.9375 2.140625zm13.928345 6.4375l0 -15.15625l5.3125 0q2.75 0 4.171875 1.0625q1.4375 1.046875 1.4375 3.09375q0 1.109375 -0.578125 1.953125q-0.578125 0.84375 -1.59375 1.25q1.171875 0.28125 1.84375 1.171875q0.671875 0.890625 0.671875 2.171875q0 2.1875 -1.40625 3.3125q-1.390625 1.125 -3.96875 1.140625l-5.890625 0zm3.125 -6.609375l0 4.09375l2.671875 0q1.109375 0 1.71875 -0.515625q0.625 -0.53125 0.625 -1.453125q0 -2.09375 -2.15625 -2.125l-2.859375 0zm0 -2.203125l2.3125 0q2.359375 -0.046875 2.359375 -1.875q0 -1.03125 -0.609375 -1.484375q-0.59375 -0.453125 -1.875 -0.453125l-2.1875 0l0 3.8125z" fill-rule="nonzero"/><path fill="#f4cccc" d="m768.15076 111.103676l45.7323 0l0 30.299217l-45.7323 0z" fill-rule="evenodd"/><path stroke="#000000" stroke-width="2.0" stroke-linejoin="round" stroke-linecap="butt" d="m768.15076 111.103676l45.7323 0l0 30.299217l-45.7323 0z" fill-rule="evenodd"/><path fill="#000000" d="m785.4457 133.73328l0 -15.156242l4.65625 0q2.0 0 3.578125 0.90625q1.578125 0.890625 2.453125 2.546875q0.890625 1.65625 0.890625 3.78125l0 0.6875q0 2.1249924 -0.875 3.7656174q-0.859375 1.640625 -2.4375 2.546875q-1.578125 0.90625 -3.578125 0.921875l-4.6875 0zm3.125 -12.624992l0 10.109367l1.5 0q1.84375 0 2.8125 -1.1875q0.96875 -1.203125 0.984375 -3.4374924l0 -0.796875q0 -2.3125 -0.96875 -3.5q-0.953125 -1.1875 -2.796875 -1.1875l-1.53125 0z" fill-rule="nonzero"/><path fill="#a4c2f4" d="m687.204 48.359806l45.7323 0l0 30.299213l-45.7323 0z" fill-rule="evenodd"/><path stroke="#000000" stroke-width="2.0" stroke-linejoin="round" stroke-linecap="butt" d="m687.204 48.359806l45.7323 0l0 30.299213l-45.7323 0z" fill-rule="evenodd"/><path fill="#000000" d="m704.62384 70.98941l0 -15.15625l5.3125 0q2.75 0 4.171875 1.0625q1.4375 1.046875 1.4375 3.09375q0 1.109375 -0.578125 1.953125q-0.578125 0.84375 -1.59375 1.25q1.171875 0.28125 1.84375 1.171875q0.671875 0.890625 0.671875 2.171875q0 2.1875 -1.40625 3.3125q-1.390625 1.125 -3.96875 1.140625l-5.890625 0zm3.125 -6.609375l0 4.09375l2.671875 0q1.109375 0 1.71875 -0.515625q0.625 -0.53125 0.625 -1.453125q0 -2.09375 -2.15625 -2.125l-2.859375 0zm0 -2.203125l2.3125 0q2.359375 -0.046875 2.359375 -1.875q0 -1.03125 -0.609375 -1.484375q-0.59375 -0.453125 -1.875 -0.453125l-2.1875 0l0 3.8125z" fill-rule="nonzero"/><path fill="#000000" fill-opacity="0.0" d="m710.0701 78.65902l-63.18109 24.53543" fill-rule="evenodd"/><path stroke="#000000" stroke-width="2.0" stroke-linejoin="round" stroke-linecap="butt" d="m710.0701 78.65902l-63.18109 24.53543" fill-rule="evenodd"/><path fill="#b4a7d6" d="m707.4724 227.46982l30.06305 -52.0l30.062988 52.0z" fill-rule="evenodd"/><path stroke="#000000" stroke-width="2.0" stroke-linejoin="round" stroke-linecap="butt" d="m707.4724 227.46982l30.06305 -52.0l30.062988 52.0z" fill-rule="evenodd"/><path fill="#b6d7a8" d="m616.8373 155.18594l30.062988 -52.0l30.062988 52.0z" fill-rule="evenodd"/><path stroke="#000000" stroke-width="2.0" stroke-linejoin="round" stroke-linecap="butt" d="m616.8373 155.18594l30.062988 -52.0l30.062988 52.0z" fill-rule="evenodd"/><path fill="#b6d7a8" d="m824.2126 227.51689l30.062988 -52.0l30.062988 52.0z" fill-rule="evenodd"/><path stroke="#000000" stroke-width="2.0" stroke-linejoin="round" stroke-linecap="butt" d="m824.2126 227.51689l30.062988 -52.0l30.062988 52.0z" fill-rule="evenodd"/><path fill="#000000" fill-opacity="0.0" d="m832.6672 220.51222l60.125977 0l0 17.795273l-60.125977 0z" fill-rule="evenodd"/><path fill="#000000" d="m848.96405 243.31876l-6.046875 -2.109375l0 -2.890625l9.078125 3.796875l0 2.4375l-9.078125 3.8125l0 -2.90625l6.046875 -2.140625zm10.391846 6.46875l0 -15.15625l4.65625 0q2.0 0 3.578125 0.90625q1.578125 0.890625 2.453125 2.546875q0.890625 1.65625 0.890625 3.78125l0 0.6875q0 2.125 -0.875 3.765625q-0.859375 1.640625 -2.4375 2.546875q-1.578125 0.90625 -3.578125 0.921875l-4.6875 0zm3.125 -12.625l0 10.109375l1.5 0q1.84375 0 2.8125 -1.1875q0.96875 -1.203125 0.984375 -3.4375l0 -0.796875q0 -2.3125 -0.96875 -3.5q-0.953125 -1.1875 -2.796875 -1.1875l-1.53125 0z" fill-rule="nonzero"/><path fill="#000000" fill-opacity="0.0" d="m675.4725 219.46982l142.80316 0l0 17.795273l-142.80316 0z" fill-rule="evenodd"/><path fill="#000000" d="m691.76935 242.27634l-6.046875 -2.109375l0 -2.890625l9.078125 3.796875l0 2.4375l-9.078125 3.8125l0 -2.90625l6.046875 -2.140625zm10.391846 6.46875l0 -15.15625l5.3125 0q2.75 0 4.171875 1.0625q1.4375 1.046875 1.4375 3.09375q0 1.109375 -0.578125 1.953125q-0.578125 0.84375 -1.59375 1.25q1.171875 0.28125 1.84375 1.171875q0.671875 0.890625 0.671875 2.171875q0 2.1875 -1.40625 3.3125q-1.390625 1.125 -3.96875 1.140625l-5.890625 0zm3.125 -6.609375l0 4.09375l2.671875 0q1.109375 0 1.71875 -0.515625q0.625 -0.53125 0.625 -1.453125q0 -2.09375 -2.15625 -2.125l-2.859375 0zm0 -2.203125l2.3125 0q2.359375 -0.046875 2.359375 -1.875q0 -1.03125 -0.609375 -1.484375q-0.59375 -0.453125 -1.875 -0.453125l-2.1875 0l0 3.8125zm22.12561 8.8125q-0.203125 -0.40625 -0.296875 -1.015625q-1.09375 1.21875 -2.84375 1.21875q-1.65625 0 -2.75 -0.953125q-1.09375 -0.953125 -1.09375 -2.421875q0 -1.78125 1.328125 -2.734375q1.328125 -0.96875 3.84375 -0.984375l1.390625 0l0 -0.640625q0 -0.78125 -0.40625 -1.25q-0.40625 -0.46875 -1.265625 -0.46875q-0.765625 0 -1.203125 0.375q-0.421875 0.359375 -0.421875 0.984375l-3.015625 0q0 -0.96875 0.609375 -1.796875q0.609375 -0.84375 1.703125 -1.3125q1.109375 -0.46875 2.484375 -0.46875q2.078125 0 3.296875 1.046875q1.234375 1.03125 1.234375 2.9375l0 4.875q0.015625 1.609375 0.4375 2.4375l0 0.171875l-3.03125 0zm-2.484375 -2.09375q0.65625 0 1.21875 -0.296875q0.5625 -0.296875 0.84375 -0.796875l0 -1.9375l-1.125 0q-2.265625 0 -2.40625 1.5625l-0.015625 0.171875q0 0.5625 0.390625 0.9375q0.40625 0.359375 1.09375 0.359375zm10.153442 -9.171875l0.09375 1.296875q1.21875 -1.5 3.25 -1.5q1.78125 0 2.65625 1.046875q0.875 1.046875 0.890625 3.140625l0 7.28125l-3.0 0l0 -7.203125q0 -0.96875 -0.421875 -1.390625q-0.40625 -0.4375 -1.375 -0.4375q-1.28125 0 -1.90625 1.078125l0 7.953125l-3.015625 0l0 -11.265625l2.828125 0zm8.710632 5.546875q0 -2.640625 1.171875 -4.1875q1.1875 -1.5625 3.25 -1.5625q1.640625 0 2.71875 1.21875l0 -5.75l3.015625 0l0 16.0l-2.71875 0l-0.140625 -1.203125q-1.125 1.40625 -2.90625 1.40625q-1.984375 0 -3.1875 -1.5625q-1.203125 -1.5625 -1.203125 -4.359375zm3.015625 0.21875q0 1.578125 0.546875 2.421875q0.546875 0.84375 1.609375 0.84375q1.390625 0 1.96875 -1.171875l0 -4.453125q-0.5625 -1.171875 -1.953125 -1.171875q-2.171875 0 -2.171875 3.53125zm17.219727 -0.9375l5.9375 2.09375l0 2.921875l-8.96875 -3.8125l0 -2.453125l8.96875 -3.796875l0 2.90625l-5.9375 2.140625zm13.928345 6.4375l0 -15.15625l4.65625 0q2.0 0 3.578125 0.90625q1.578125 0.890625 2.453125 2.546875q0.890625 1.65625 0.890625 3.78125l0 0.6875q0 2.125 -0.875 3.765625q-0.859375 1.640625 -2.4375 2.546875q-1.578125 0.90625 -3.578125 0.921875l-4.6875 0zm3.125 -12.625l0 10.109375l1.5 0q1.84375 0 2.8125 -1.1875q0.96875 -1.203125 0.984375 -3.4375l0 -0.796875q0 -2.3125 -0.96875 -3.5q-0.953125 -1.1875 -2.796875 -1.1875l-1.53125 0z" fill-rule="nonzero"/><path fill="#000000" fill-opacity="0.0" d="m615.63226 147.46239l58.015747 0l0 17.795288l-58.015747 0z" fill-rule="evenodd"/><path fill="#000000" d="m628.226 170.30017l5.9375 2.09375l0 2.921875l-8.96875 -3.8125l0 -2.453125l8.96875 -3.796875l0 2.90625l-5.9375 2.140625zm13.928345 6.4375l0 -15.15625l5.3125 0q2.75 0 4.171875 1.0625q1.4375 1.046875 1.4375 3.09375q0 1.109375 -0.578125 1.953125q-0.578125 0.84375 -1.59375 1.25q1.171875 0.28125 1.84375 1.171875q0.671875 0.890625 0.671875 2.171875q0 2.1875 -1.40625 3.3125q-1.390625 1.125 -3.96875 1.140625l-5.890625 0zm3.125 -6.609375l0 4.09375l2.671875 0q1.109375 0 1.71875 -0.515625q0.625 -0.53125 0.625 -1.453125q0 -2.09375 -2.15625 -2.125l-2.859375 0zm0 -2.203125l2.3125 0q2.359375 -0.046875 2.359375 -1.875q0 -1.03125 -0.609375 -1.484375q-0.59375 -0.453125 -1.875 -0.453125l-2.1875 0l0 3.8125z" fill-rule="nonzero"/><path fill="#000000" fill-opacity="0.0" d="m791.0169 141.4029l63.24408 34.11023" fill-rule="evenodd"/><path stroke="#000000" stroke-width="2.0" stroke-linejoin="round" stroke-linecap="butt" d="m791.0169 141.4029l63.24408 34.11023" fill-rule="evenodd"/><path fill="#000000" fill-opacity="0.0" d="m710.0701 78.65902l80.944885 32.44094" fill-rule="evenodd"/><path stroke="#000000" stroke-width="2.0" stroke-linejoin="round" stroke-linecap="butt" d="m710.0701 78.65902l80.944885 32.44094" fill-rule="evenodd"/><path fill="#000000" fill-opacity="0.0" d="m737.53546 175.46982l53.480286 -34.078735" fill-rule="evenodd"/><path stroke="#000000" stroke-width="2.0" stroke-linejoin="round" stroke-linecap="butt" d="m737.53546 175.46982l53.480286 -34.078735" fill-rule="evenodd"/></g></svg>