<svg version="1.1" viewBox="0.0 0.0 672.0 432.0" fill="none" stroke="none" stroke-linecap="square" stroke-miterlimit="10" xmlns:xlink="http://www.w3.org/1999/xlink" xmlns="http://www.w3.org/2000/svg"><clipPath id="p.0"><path d="m0 0l672.0 0l0 432.0l-672.0 0l0 -432.0z" clip-rule="nonzero"/></clipPath><g clip-path="url(#p.0)"><path fill="#000000" fill-opacity="0.0" d="m0 0l672.0 0l0 432.0l-672.0 0z" fill-rule="evenodd"/><path fill="#b6d7a8" d="m297.99344 22.616798l98.70865 0l0 53.574806l-98.70865 0z" fill-rule="evenodd"/><path stroke="#000000" stroke-width="2.0" stroke-linejoin="round" stroke-linecap="butt" d="m297.99344 22.616798l98.70865 0l0 53.574806l-98.70865 0z" fill-rule="evenodd"/><path fill="#000000" d="m325.19934 61.1242q-0.25 -0.5 -0.40625 -1.78125q-2.015625 2.09375 -4.8125 2.09375q-2.5 0 -4.109375 -1.40625q-1.59375 -1.421875 -1.59375 -3.59375q0 -2.640625 2.0 -4.09375q2.015625 -1.46875 5.65625 -1.46875l2.8125 0l0 -1.328125q0 -1.515625 -0.90625 -2.40625q-0.90625 -0.90625 -2.671875 -0.90625q-1.546875 0 -2.59375 0.78125q-1.046875 0.78125 -1.046875 1.890625l-2.90625 0q0 -1.265625 0.890625 -2.4375q0.90625 -1.1875 2.4375 -1.875q1.546875 -0.6875 3.390625 -0.6875q2.921875 0 4.578125 1.46875q1.65625 1.453125 1.71875 4.015625l0 7.78125q0 2.328125 0.59375 3.703125l0 0.25l-3.03125 0zm-4.796875 -2.203125q1.359375 0 2.578125 -0.703125q1.21875 -0.703125 1.765625 -1.828125l0 -3.46875l-2.265625 0q-5.3125 0 -5.3125 3.109375q0 1.359375 0.90625 2.125q0.90625 0.765625 2.328125 0.765625z" fill-rule="nonzero"/><path fill="#000000" d="m354.6056 57.40545l-15.078125 -6.625l0 -1.59375l15.078125 -7.515625l0 2.5l-12.0625 5.6875l12.0625 5.0625l0 2.484375zm-13.734375 -17.140625q0 -1.09375 0.640625 -1.671875q0.65625 -0.578125 1.859375 -0.578125q1.0625 0 1.75 0.53125q0.6875 0.515625 0.6875 1.390625q0 0.953125 -0.90625 1.6875q-0.890625 0.734375 -0.890625 1.328125l0 0.796875l-1.46875 0l0 -0.796875q0 -1.1875 0.859375 -1.828125q0.875 -0.640625 0.875 -1.1875q0 -0.328125 -0.265625 -0.515625q-0.25 -0.1875 -0.640625 -0.1875q-1.046875 0 -1.046875 1.03125l-1.453125 0zm3.140625 5.4375l-1.46875 0l0 -1.3125l1.46875 0l0 1.3125z" fill-rule="nonzero"/><path fill="#000000" d="m380.6681 52.858574q0 3.875 -1.78125 6.234375q-1.78125 2.34375 -4.78125 2.34375q-3.203125 0 -4.953125 -2.265625l-0.140625 1.953125l-2.65625 0l0 -24.0l2.890625 0l0 8.953125q1.75 -2.171875 4.828125 -2.171875q3.078125 0 4.828125 2.328125q1.765625 2.328125 1.765625 6.375l0 0.25zm-2.890625 -0.328125q0 -2.953125 -1.140625 -4.5625q-1.140625 -1.609375 -3.28125 -1.609375q-2.859375 0 -4.109375 2.65625l0 7.3125q1.328125 2.65625 4.140625 2.65625q2.078125 0 3.234375 -1.609375q1.15625 -1.609375 1.15625 -4.84375z" fill-rule="nonzero"/><path fill="#b6d7a8" d="m463.91733 128.32545l98.70865 0l0 62.33072l-98.70865 0z" fill-rule="evenodd"/><path stroke="#000000" stroke-width="2.0" stroke-linejoin="round" stroke-linecap="butt" d="m463.91733 128.32545l98.70865 0l0 62.33072l-98.70865 0z" fill-rule="evenodd"/><path fill="#000000" d="m495.32635 162.94519q0 3.875 -1.78125 6.234375q-1.78125 2.34375 -4.78125 2.34375q-3.203125 0 -4.953125 -2.265625l-0.140625 1.953125l-2.65625 0l0 -24.0l2.890625 0l0 8.953125q1.75 -2.171875 4.828125 -2.171875q3.078125 0 4.828125 2.328125q1.765625 2.328125 1.765625 6.375l0 0.25zm-2.890625 -0.328125q0 -2.953125 -1.140625 -4.5625q-1.140625 -1.609375 -3.28125 -1.609375q-2.859375 0 -4.109375 2.65625l0 7.3125q1.328125 2.65625 4.140625 2.65625q2.078125 0 3.234375 -1.609375q1.15625 -1.609375 1.15625 -4.84375z" fill-rule="nonzero"/><path fill="#000000" d="m521.4045 167.49207l-15.078125 -6.625l0 -1.59375l15.078125 -7.515625l0 2.5l-12.0625 5.6875l12.0625 5.0625l0 2.484375zm-13.734375 -17.140625q0 -1.09375 0.640625 -1.671875q0.65625 -0.578125 1.859375 -0.578125q1.0625 0 1.75 0.53125q0.6875 0.515625 0.6875 1.390625q0 0.953125 -0.90625 1.6875q-0.890625 0.734375 -0.890625 1.328125l0 0.796875l-1.46875 0l0 -0.796875q0 -1.1875 0.859375 -1.828125q0.875 -0.640625 0.875 -1.1875q0 -0.328125 -0.265625 -0.515625q-0.25 -0.1875 -0.640625 -0.1875q-1.046875 0 -1.046875 1.03125l-1.453125 0zm3.140625 5.4375l-1.46875 0l0 -1.3125l1.46875 0l0 1.3125z" fill-rule="nonzero"/><path fill="#000000" d="m539.9357 169.16394q1.546875 0 2.703125 -0.9375q1.15625 -0.9375 1.28125 -2.34375l2.734375 0q-0.078125 1.453125 -1.0 2.765625q-0.921875 1.3125 -2.46875 2.09375q-1.53125 0.78125 -3.25 0.78125q-3.453125 0 -5.5 -2.296875q-2.03125 -2.3125 -2.03125 -6.3125l0 -0.484375q0 -2.46875 0.90625 -4.390625q0.90625 -1.921875 2.59375 -2.984375q1.703125 -1.0625 4.015625 -1.0625q2.84375 0 4.71875 1.703125q1.890625 1.703125 2.015625 4.421875l-2.734375 0q-0.125 -1.640625 -1.25 -2.6875q-1.109375 -1.0625 -2.75 -1.0625q-2.203125 0 -3.421875 1.59375q-1.203125 1.578125 -1.203125 4.578125l0 0.546875q0 2.921875 1.203125 4.5q1.203125 1.578125 3.4375 1.578125z" fill-rule="nonzero"/><path fill="#000000" fill-opacity="0.0" d="m347.34778 76.191605l-156.063 52.125977" fill-rule="evenodd"/><path stroke="#000000" stroke-width="2.0" stroke-linejoin="round" stroke-linecap="butt" d="m347.34778 76.191605l-156.063 52.125977" fill-rule="evenodd"/><path fill="#000000" fill-opacity="0.0" d="m217.42651 76.191605l64.566925 0l0 19.590546l-64.566925 0z" fill-rule="evenodd"/><path fill="#000000" d="m238.39526 103.1116l-2.734375 0l-5.3125 -8.734375l0 8.734375l-2.734375 0l0 -13.265625l2.734375 0l5.328125 8.75l0 -8.75l2.71875 0l0 13.265625zm1.7973328 -5.015625q0 -1.46875 0.5625 -2.609375q0.578125 -1.15625 1.640625 -1.78125q1.0625 -0.625 2.453125 -0.625q2.0 0 3.265625 1.21875q1.265625 1.21875 1.40625 3.3125l0.015625 0.671875q0 2.265625 -1.265625 3.640625q-1.265625 1.375 -3.40625 1.375q-2.125 0 -3.40625 -1.359375q-1.265625 -1.375 -1.265625 -3.734375l0 -0.109375zm2.640625 0.1875q0 1.40625 0.53125 2.15625q0.53125 0.734375 1.515625 0.734375q0.953125 0 1.484375 -0.734375q0.546875 -0.734375 0.546875 -2.34375q0 -1.375 -0.546875 -2.125q-0.53125 -0.765625 -1.515625 -0.765625q-0.953125 0 -1.484375 0.75q-0.53125 0.75 -0.53125 2.328125z" fill-rule="nonzero"/><path fill="#000000" fill-opacity="0.0" d="m347.34778 76.191605l165.92126 52.125977" fill-rule="evenodd"/><path stroke="#000000" stroke-width="2.0" stroke-linejoin="round" stroke-linecap="butt" d="m347.34778 76.191605l165.92126 52.125977" fill-rule="evenodd"/><path fill="#000000" fill-opacity="0.0" d="m447.91733 76.45932l64.566925 0l0 19.590546l-64.566925 0z" fill-rule="evenodd"/><path fill="#000000" d="m462.66733 96.09807l2.765625 -5.984375l2.984375 0l-4.34375 8.453125l0 4.8125l-2.78125 0l0 -4.8125l-4.359375 -8.453125l3.0 0l2.734375 5.984375zm10.73703 7.46875q-2.171875 0 -3.53125 -1.328125q-1.359375 -1.34375 -1.359375 -3.546875l0 -0.265625q0 -1.484375 0.5625 -2.640625q0.578125 -1.171875 1.625 -1.796875q1.0625 -0.640625 2.40625 -0.640625q2.03125 0 3.1875 1.28125q1.15625 1.265625 1.15625 3.609375l0 1.0625l-6.265625 0q0.125 0.96875 0.765625 1.5625q0.640625 0.578125 1.625 0.578125q1.515625 0 2.375 -1.109375l1.296875 1.453125q-0.59375 0.84375 -1.609375 1.3125q-1.0 0.46875 -2.234375 0.46875zm-0.296875 -8.09375q-0.78125 0 -1.28125 0.53125q-0.484375 0.53125 -0.609375 1.515625l3.65625 0l0 -0.21875q-0.015625 -0.875 -0.484375 -1.34375q-0.453125 -0.484375 -1.28125 -0.484375zm11.1779785 5.1875q0 -0.484375 -0.484375 -0.765625q-0.46875 -0.28125 -1.515625 -0.5q-3.53125 -0.734375 -3.53125 -2.984375q0 -1.3125 1.09375 -2.1875q1.09375 -0.875 2.84375 -0.875q1.875 0 3.0 0.890625q1.125 0.875 1.125 2.28125l-2.625 0q0 -0.5625 -0.375 -0.921875q-0.359375 -0.375 -1.125 -0.375q-0.671875 0 -1.03125 0.296875q-0.359375 0.296875 -0.359375 0.765625q0 0.4375 0.40625 0.703125q0.421875 0.265625 1.40625 0.46875q0.984375 0.1875 1.65625 0.4375q2.078125 0.765625 2.078125 2.65625q0 1.34375 -1.15625 2.1875q-1.15625 0.828125 -2.984375 0.828125q-1.234375 0 -2.203125 -0.4375q-0.953125 -0.453125 -1.5 -1.21875q-0.546875 -0.765625 -0.546875 -1.671875l2.484375 0q0.046875 0.703125 0.53125 1.078125q0.484375 0.375 1.28125 0.375q0.765625 0 1.140625 -0.28125q0.390625 -0.296875 0.390625 -0.75z" fill-rule="nonzero"/><path fill="#b6d7a8" d="m385.1273 242.06561l98.70868 0l0 62.33072l-98.70868 0z" fill-rule="evenodd"/><path stroke="#000000" stroke-width="2.0" stroke-linejoin="round" stroke-linecap="butt" d="m385.1273 242.06561l98.70868 0l0 62.33072l-98.70868 0z" fill-rule="evenodd"/><path fill="#000000" d="m412.93475 284.95096q-0.25 -0.5 -0.40625 -1.78125q-2.015625 2.09375 -4.8125 2.09375q-2.5 0 -4.109375 -1.40625q-1.59375 -1.421875 -1.59375 -3.59375q0 -2.640625 2.0 -4.09375q2.015625 -1.46875 5.65625 -1.46875l2.8125 0l0 -1.328125q0 -1.515625 -0.90625 -2.40625q-0.90625 -0.90625 -2.671875 -0.90625q-1.546875 0 -2.59375 0.78125q-1.046875 0.78125 -1.046875 1.890625l-2.90625 0q0 -1.265625 0.890625 -2.4375q0.90625 -1.1875 2.4375 -1.875q1.546875 -0.6875 3.390625 -0.6875q2.921875 0 4.578125 1.46875q1.65625 1.453125 1.71875 4.015625l0 7.78125q0 2.328125 0.59375 3.703125l0 0.25l-3.03125 0zm-4.796875 -2.203125q1.359375 0 2.578125 -0.703125q1.21875 -0.703125 1.765625 -1.828125l0 -3.46875l-2.265625 0q-5.3125 0 -5.3125 3.109375q0 1.359375 0.90625 2.125q0.90625 0.765625 2.328125 0.765625z" fill-rule="nonzero"/><path fill="#000000" d="m442.341 281.2322l-15.078125 -6.625l0 -1.59375l15.078125 -7.515625l0 2.5l-12.0625 5.6875l12.0625 5.0625l0 2.484375zm-13.734375 -17.140625q0 -1.09375 0.640625 -1.671875q0.65625 -0.578125 1.859375 -0.578125q1.0625 0 1.75 0.53125q0.6875 0.515625 0.6875 1.390625q0 0.953125 -0.90625 1.6875q-0.890625 0.734375 -0.890625 1.328125l0 0.796875l-1.46875 0l0 -0.796875q0 -1.1875 0.859375 -1.828125q0.875 -0.640625 0.875 -1.1875q0 -0.328125 -0.265625 -0.515625q-0.25 -0.1875 -0.640625 -0.1875q-1.046875 0 -1.046875 1.03125l-1.453125 0zm3.140625 5.4375l-1.46875 0l0 -1.3125l1.46875 0l0 1.3125z" fill-rule="nonzero"/><path fill="#000000" d="m460.87225 282.90408q1.546875 0 2.703125 -0.9375q1.15625 -0.9375 1.28125 -2.34375l2.734375 0q-0.078125 1.453125 -1.0 2.765625q-0.921875 1.3125 -2.46875 2.09375q-1.53125 0.78125 -3.25 0.78125q-3.453125 0 -5.5 -2.296875q-2.03125 -2.3125 -2.03125 -6.3125l0 -0.484375q0 -2.46875 0.90625 -4.390625q0.90625 -1.921875 2.59375 -2.984375q1.703125 -1.0625 4.015625 -1.0625q2.84375 0 4.71875 1.703125q1.890625 1.703125 2.015625 4.421875l-2.734375 0q-0.125 -1.640625 -1.25 -2.6875q-1.109375 -1.0625 -2.75 -1.0625q-2.203125 0 -3.421875 1.59375q-1.203125 1.578125 -1.203125 4.578125l0 0.546875q0 2.921875 1.203125 4.5q1.203125 1.578125 3.4375 1.578125z" fill-rule="nonzero"/><path fill="#a4c2f4" d="m444.32678 364.73508l0 0c0 -4.9315186 3.9977722 -8.929291 8.929291 -8.929291l59.086273 0c2.368225 0 4.6394043 0.9407654 6.313965 2.615326c1.6745605 1.6745605 2.6153564 3.9457703 2.6153564 6.313965l0 35.716187c0 4.9315186 -3.9978027 8.929321 -8.929321 8.929321l-59.086273 0c-4.9315186 0 -8.929291 -3.9978027 -8.929291 -8.929321z" fill-rule="evenodd"/><path stroke="#000000" stroke-width="2.0" stroke-linejoin="round" stroke-linecap="butt" d="m444.32678 364.73508l0 0c0 -4.9315186 3.9977722 -8.929291 8.929291 -8.929291l59.086273 0c2.368225 0 4.6394043 0.9407654 6.313965 2.615326c1.6745605 1.6745605 2.6153564 3.9457703 2.6153564 6.313965l0 35.716187c0 4.9315186 -3.9978027 8.929321 -8.929321 8.929321l-59.086273 0c-4.9315186 0 -8.929291 -3.9978027 -8.929291 -8.929321z" fill-rule="evenodd"/><path fill="#000000" d="m466.03165 391.13318q-0.234375 -0.453125 -0.34375 -1.140625q-1.234375 1.375 -3.203125 1.375q-1.859375 0 -3.09375 -1.078125q-1.21875 -1.078125 -1.21875 -2.71875q0 -2.015625 1.484375 -3.09375q1.5 -1.078125 4.328125 -1.09375l1.5625 0l0 -0.71875q0 -0.890625 -0.453125 -1.40625q-0.453125 -0.53125 -1.421875 -0.53125q-0.859375 0 -1.34375 0.40625q-0.484375 0.40625 -0.484375 1.125l-3.390625 0q0 -1.09375 0.671875 -2.03125q0.6875 -0.9375 1.921875 -1.46875q1.25 -0.546875 2.796875 -0.546875q2.34375 0 3.71875 1.1875q1.375 1.171875 1.375 3.3125l0 5.484375q0.015625 1.8125 0.515625 2.734375l0 0.203125l-3.421875 0zm-2.8125 -2.359375q0.75 0 1.375 -0.328125q0.640625 -0.34375 0.953125 -0.90625l0 -2.171875l-1.265625 0q-2.546875 0 -2.703125 1.75l-0.015625 0.203125q0 0.640625 0.4375 1.046875q0.453125 0.40625 1.21875 0.40625zm19.578125 -0.140625q0.9375 0 1.515625 -0.515625q0.59375 -0.515625 0.609375 -1.375l3.1875 0q-0.015625 1.296875 -0.71875 2.375q-0.6875 1.0625 -1.890625 1.65625q-1.1875 0.59375 -2.640625 0.59375q-2.71875 0 -4.296875 -1.71875q-1.5625 -1.734375 -1.5625 -4.78125l0 -0.234375q0 -2.921875 1.546875 -4.671875q1.5625 -1.75 4.28125 -1.75q2.375 0 3.8125 1.359375q1.4375 1.359375 1.46875 3.609375l-3.1875 0q-0.015625 -0.984375 -0.609375 -1.59375q-0.578125 -0.625 -1.546875 -0.625q-1.171875 0 -1.78125 0.859375q-0.609375 0.859375 -0.609375 2.796875l0 0.34375q0 1.96875 0.59375 2.828125q0.609375 0.84375 1.828125 0.84375zm24.648438 -3.71875q0 3.046875 -1.3125 4.75q-1.296875 1.703125 -3.625 1.703125q-2.0625 0 -3.296875 -1.578125l-0.15625 1.34375l-3.046875 0l0 -18.0l3.390625 0l0 6.453125q1.171875 -1.375 3.078125 -1.375q2.328125 0 3.640625 1.71875q1.328125 1.703125 1.328125 4.796875l0 0.1875zm-3.390625 -0.25q0 -1.921875 -0.609375 -2.796875q-0.609375 -0.890625 -1.8125 -0.890625q-1.625 0 -2.234375 1.3125l0 5.015625q0.625 1.328125 2.25 1.328125q1.640625 0 2.15625 -1.609375q0.25 -0.78125 0.25 -2.359375z" fill-rule="nonzero"/><path fill="#000000" fill-opacity="0.0" d="m434.48163 304.39633l48.314972 51.40158" fill-rule="evenodd"/><path stroke="#000000" stroke-width="2.0" stroke-linejoin="round" stroke-linecap="butt" d="m434.48163 304.39633l48.314972 51.40158" fill-rule="evenodd"/><path fill="#000000" fill-opacity="0.0" d="m464.52875 309.3962l76.944885 0l0 21.13385l-76.944885 0z" fill-rule="evenodd"/><path fill="#000000" d="m479.27875 329.03494l2.765625 -5.984375l2.984375 0l-4.34375 8.453125l0 4.8125l-2.78125 0l0 -4.8125l-4.359375 -8.453125l3.0 0l2.734375 5.984375zm10.737061 7.46875q-2.171875 0 -3.53125 -1.328125q-1.359375 -1.34375 -1.359375 -3.546875l0 -0.265625q0 -1.484375 0.5625 -2.640625q0.578125 -1.171875 1.625 -1.796875q1.0625 -0.640625 2.40625 -0.640625q2.03125 0 3.1875 1.28125q1.15625 1.265625 1.15625 3.609375l0 1.0625l-6.265625 0q0.125 0.96875 0.765625 1.5625q0.640625 0.578125 1.625 0.578125q1.515625 0 2.375 -1.109375l1.296875 1.453125q-0.59375 0.84375 -1.609375 1.3125q-1.0 0.46875 -2.234375 0.46875zm-0.296875 -8.09375q-0.78125 0 -1.28125 0.53125q-0.484375 0.53125 -0.609375 1.515625l3.65625 0l0 -0.21875q-0.015625 -0.875 -0.484375 -1.34375q-0.453125 -0.484375 -1.28125 -0.484375zm11.177948 5.1875q0 -0.484375 -0.484375 -0.765625q-0.46875 -0.28125 -1.515625 -0.5q-3.53125 -0.734375 -3.53125 -2.984375q0 -1.3125 1.09375 -2.1875q1.09375 -0.875 2.84375 -0.875q1.875 0 3.0 0.890625q1.125 0.875 1.125 2.28125l-2.625 0q0 -0.5625 -0.375 -0.921875q-0.359375 -0.375 -1.125 -0.375q-0.671875 0 -1.03125 0.296875q-0.359375 0.296875 -0.359375 0.765625q0 0.4375 0.40625 0.703125q0.421875 0.265625 1.40625 0.46875q0.984375 0.1875 1.65625 0.4375q2.078125 0.765625 2.078125 2.65625q0 1.34375 -1.15625 2.1875q-1.15625 0.828125 -2.984375 0.828125q-1.234375 0 -2.203125 -0.4375q-0.953125 -0.453125 -1.5 -1.21875q-0.546875 -0.765625 -0.546875 -1.671875l2.484375 0q0.046875 0.703125 0.53125 1.078125q0.484375 0.375 1.28125 0.375q0.765625 0 1.140625 -0.28125q0.390625 -0.296875 0.390625 -0.75z" fill-rule="nonzero"/><path fill="#a4c2f4" d="m342.32416 364.73508l0 0c0 -4.9315186 3.9977722 -8.929291 8.929291 -8.929291l59.086273 0c2.3681946 0 4.6394043 0.9407654 6.313965 2.615326c1.6745911 1.6745605 2.6153564 3.9457703 2.6153564 6.313965l0 35.716187c0 4.9315186 -3.9978027 8.929321 -8.929321 8.929321l-59.086273 0c-4.9315186 0 -8.929291 -3.9978027 -8.929291 -8.929321z" fill-rule="evenodd"/><path stroke="#000000" stroke-width="2.0" stroke-linejoin="round" stroke-linecap="butt" d="m342.32416 364.73508l0 0c0 -4.9315186 3.9977722 -8.929291 8.929291 -8.929291l59.086273 0c2.3681946 0 4.6394043 0.9407654 6.313965 2.615326c1.6745911 1.6745605 2.6153564 3.9457703 2.6153564 6.313965l0 35.716187c0 4.9315186 -3.9978027 8.929321 -8.929321 8.929321l-59.086273 0c-4.9315186 0 -8.929291 -3.9978027 -8.929291 -8.929321z" fill-rule="evenodd"/><path fill="#000000" d="m361.9509 388.63318q0.9375 0 1.515625 -0.515625q0.59375 -0.515625 0.609375 -1.375l3.1875 0q-0.015625 1.296875 -0.71875 2.375q-0.6875 1.0625 -1.890625 1.65625q-1.1875 0.59375 -2.640625 0.59375q-2.71875 0 -4.296875 -1.71875q-1.5625 -1.734375 -1.5625 -4.78125l0 -0.234375q0 -2.921875 1.546875 -4.671875q1.5625 -1.75 4.28125 -1.75q2.375 0 3.8125 1.359375q1.4375 1.359375 1.46875 3.609375l-3.1875 0q-0.015625 -0.984375 -0.609375 -1.59375q-0.578125 -0.625 -1.546875 -0.625q-1.171875 0 -1.78125 0.859375q-0.609375 0.859375 -0.609375 2.796875l0 0.34375q0 1.96875 0.59375 2.828125q0.609375 0.84375 1.828125 0.84375zm20.570312 2.5q-0.234375 -0.453125 -0.34375 -1.140625q-1.234375 1.375 -3.203125 1.375q-1.859375 0 -3.09375 -1.078125q-1.21875 -1.078125 -1.21875 -2.71875q0 -2.015625 1.484375 -3.09375q1.5 -1.078125 4.328125 -1.09375l1.5625 0l0 -0.71875q0 -0.890625 -0.453125 -1.40625q-0.453125 -0.53125 -1.421875 -0.53125q-0.859375 0 -1.34375 0.40625q-0.484375 0.40625 -0.484375 1.125l-3.390625 0q0 -1.09375 0.671875 -2.03125q0.6875 -0.9375 1.921875 -1.46875q1.25 -0.546875 2.796875 -0.546875q2.34375 0 3.71875 1.1875q1.375 1.171875 1.375 3.3125l0 5.484375q0.015625 1.8125 0.515625 2.734375l0 0.203125l-3.421875 0zm-2.8125 -2.359375q0.75 0 1.375 -0.328125q0.640625 -0.34375 0.953125 -0.90625l0 -2.171875l-1.265625 0q-2.546875 0 -2.703125 1.75l-0.015625 0.203125q0 0.640625 0.4375 1.046875q0.453125 0.40625 1.21875 0.40625zm25.734375 -3.859375q0 3.046875 -1.3125 4.75q-1.296875 1.703125 -3.625 1.703125q-2.0625 0 -3.296875 -1.578125l-0.15625 1.34375l-3.046875 0l0 -18.0l3.390625 0l0 6.453125q1.171875 -1.375 3.078125 -1.375q2.328125 0 3.640625 1.71875q1.328125 1.703125 1.328125 4.796875l0 0.1875zm-3.390625 -0.25q0 -1.921875 -0.609375 -2.796875q-0.609375 -0.890625 -1.8125 -0.890625q-1.625 0 -2.234375 1.3125l0 5.015625q0.625 1.328125 2.25 1.328125q1.640625 0 2.15625 -1.609375q0.25 -0.78125 0.25 -2.359375z" fill-rule="nonzero"/><path fill="#000000" fill-opacity="0.0" d="m434.48163 304.39633l-53.700775 51.40158" fill-rule="evenodd"/><path stroke="#000000" stroke-width="2.0" stroke-linejoin="round" stroke-linecap="butt" d="m434.48163 304.39633l-53.700775 51.40158" fill-rule="evenodd"/><path fill="#000000" fill-opacity="0.0" d="m359.91602 309.40945l66.04724 0l0 24.724396l-66.04724 0z" fill-rule="evenodd"/><path fill="#000000" d="m380.88477 336.32944l-2.734375 0l-5.3125 -8.734375l0 8.734375l-2.734375 0l0 -13.265625l2.734375 0l5.328125 8.75l0 -8.75l2.71875 0l0 13.265625zm1.7973328 -5.015625q0 -1.46875 0.5625 -2.609375q0.578125 -1.15625 1.640625 -1.78125q1.0625 -0.625 2.453125 -0.625q2.0 0 3.265625 1.21875q1.265625 1.21875 1.40625 3.3125l0.015625 0.671875q0 2.265625 -1.265625 3.640625q-1.265625 1.375 -3.40625 1.375q-2.125 0 -3.40625 -1.359375q-1.265625 -1.375 -1.265625 -3.734375l0 -0.109375zm2.640625 0.1875q0 1.40625 0.53125 2.15625q0.53125 0.734375 1.515625 0.734375q0.953125 0 1.484375 -0.734375q0.546875 -0.734375 0.546875 -2.34375q0 -1.375 -0.546875 -2.125q-0.53125 -0.765625 -1.515625 -0.765625q-0.953125 0 -1.484375 0.75q-0.53125 0.75 -0.53125 2.328125z" fill-rule="nonzero"/><path fill="#b6d7a8" d="m141.93307 128.32545l98.708664 0l0 62.33072l-98.708664 0z" fill-rule="evenodd"/><path stroke="#000000" stroke-width="2.0" stroke-linejoin="round" stroke-linecap="butt" d="m141.93307 128.32545l98.708664 0l0 62.33072l-98.708664 0z" fill-rule="evenodd"/><path fill="#000000" d="m169.74052 171.21082q-0.25 -0.5 -0.40625 -1.78125q-2.015625 2.09375 -4.8125 2.09375q-2.5 0 -4.109375 -1.40625q-1.59375 -1.421875 -1.59375 -3.59375q0 -2.640625 2.0 -4.09375q2.015625 -1.46875 5.65625 -1.46875l2.8125 0l0 -1.328125q0 -1.515625 -0.90625 -2.40625q-0.90625 -0.90625 -2.671875 -0.90625q-1.546875 0 -2.59375 0.78125q-1.046875 0.78125 -1.046875 1.890625l-2.90625 0q0 -1.265625 0.890625 -2.4375q0.90625 -1.1875 2.4375 -1.875q1.546875 -0.6875 3.390625 -0.6875q2.921875 0 4.578125 1.46875q1.65625 1.453125 1.71875 4.015625l0 7.78125q0 2.328125 0.59375 3.703125l0 0.25l-3.03125 0zm-4.796875 -2.203125q1.359375 0 2.578125 -0.703125q1.21875 -0.703125 1.765625 -1.828125l0 -3.46875l-2.265625 0q-5.3125 0 -5.3125 3.109375q0 1.359375 0.90625 2.125q0.90625 0.765625 2.328125 0.765625z" fill-rule="nonzero"/><path fill="#000000" d="m199.14677 167.49207l-15.078125 -6.625l0 -1.59375l15.078125 -7.515625l0 2.5l-12.0625 5.6875l12.0625 5.0625l0 2.484375zm-13.734375 -17.140625q0 -1.09375 0.640625 -1.671875q0.65625 -0.578125 1.859375 -0.578125q1.0625 0 1.75 0.53125q0.6875 0.515625 0.6875 1.390625q0 0.953125 -0.90625 1.6875q-0.890625 0.734375 -0.890625 1.328125l0 0.796875l-1.46875 0l0 -0.796875q0 -1.1875 0.859375 -1.828125q0.875 -0.640625 0.875 -1.1875q0 -0.328125 -0.265625 -0.515625q-0.25 -0.1875 -0.640625 -0.1875q-1.046875 0 -1.046875 1.03125l-1.453125 0zm3.140625 5.4375l-1.46875 0l0 -1.3125l1.46875 0l0 1.3125z" fill-rule="nonzero"/><path fill="#000000" d="m217.67802 169.16394q1.546875 0 2.703125 -0.9375q1.15625 -0.9375 1.28125 -2.34375l2.734375 0q-0.078125 1.453125 -1.0 2.765625q-0.921875 1.3125 -2.46875 2.09375q-1.53125 0.78125 -3.25 0.78125q-3.453125 0 -5.5 -2.296875q-2.03125 -2.3125 -2.03125 -6.3125l0 -0.484375q0 -2.46875 0.90625 -4.390625q0.90625 -1.921875 2.59375 -2.984375q1.703125 -1.0625 4.015625 -1.0625q2.84375 0 4.71875 1.703125q1.890625 1.703125 2.015625 4.421875l-2.734375 0q-0.125 -1.640625 -1.25 -2.6875q-1.109375 -1.0625 -2.75 -1.0625q-2.203125 0 -3.421875 1.59375q-1.203125 1.578125 -1.203125 4.578125l0 0.546875q0 2.921875 1.203125 4.5q1.203125 1.578125 3.4375 1.578125z" fill-rule="nonzero"/><path fill="#000000" fill-opacity="0.0" d="m191.2874 190.65617l63.84253 55.779526" fill-rule="evenodd"/><path stroke="#000000" stroke-width="2.0" stroke-linejoin="round" stroke-linecap="butt" d="m191.2874 190.65617l63.84253 55.779526" fill-rule="evenodd"/><path fill="#b6d7a8" d="m75.70998 242.06561l98.708664 0l0 62.33072l-98.708664 0z" fill-rule="evenodd"/><path stroke="#000000" stroke-width="2.0" stroke-linejoin="round" stroke-linecap="butt" d="m75.70998 242.06561l98.708664 0l0 62.33072l-98.708664 0z" fill-rule="evenodd"/><path fill="#000000" d="m107.118996 276.68533q0 3.875 -1.78125 6.234375q-1.78125 2.34375 -4.78125 2.34375q-3.203125 0 -4.953125 -2.265625l-0.140625 1.953125l-2.65625 0l0 -24.0l2.890625 0l0 8.953125q1.75 -2.171875 4.828125 -2.171875q3.078125 0 4.828125 2.328125q1.765625 2.328125 1.765625 6.375l0 0.25zm-2.890625 -0.328125q0 -2.953125 -1.140625 -4.5625q-1.140625 -1.609375 -3.28125 -1.609375q-2.859375 0 -4.109375 2.65625l0 7.3125q1.328125 2.65625 4.140625 2.65625q2.078125 0 3.234375 -1.609375q1.15625 -1.609375 1.15625 -4.84375z" fill-rule="nonzero"/><path fill="#000000" d="m133.19711 281.2322l-15.078117 -6.625l0 -1.59375l15.078117 -7.515625l0 2.5l-12.062492 5.6875l12.062492 5.0625l0 2.484375zm-13.734367 -17.140625q0 -1.09375 0.640625 -1.671875q0.65625 -0.578125 1.859375 -0.578125q1.0625 0 1.75 0.53125q0.6875 0.515625 0.6875 1.390625q0 0.953125 -0.90625 1.6875q-0.890625 0.734375 -0.890625 1.328125l0 0.796875l-1.46875 0l0 -0.796875q0 -1.1875 0.859375 -1.828125q0.875 -0.640625 0.875 -1.1875q0 -0.328125 -0.265625 -0.515625q-0.25 -0.1875 -0.640625 -0.1875q-1.046875 0 -1.046875 1.03125l-1.453125 0zm3.140625 5.4375l-1.46875 0l0 -1.3125l1.46875 0l0 1.3125z" fill-rule="nonzero"/><path fill="#000000" d="m151.72836 282.90408q1.546875 0 2.703125 -0.9375q1.15625 -0.9375 1.28125 -2.34375l2.734375 0q-0.078125 1.453125 -1.0 2.765625q-0.921875 1.3125 -2.46875 2.09375q-1.53125 0.78125 -3.25 0.78125q-3.453125 0 -5.5 -2.296875q-2.03125 -2.3125 -2.03125 -6.3125l0 -0.484375q0 -2.46875 0.90625 -4.390625q0.90625 -1.921875 2.59375 -2.984375q1.703125 -1.0625 4.015625 -1.0625q2.84375 0 4.71875 1.703125q1.890625 1.703125 2.015625 4.421875l-2.734375 0q-0.125 -1.640625 -1.25 -2.6875q-1.109375 -1.0625 -2.75 -1.0625q-2.203125 0 -3.421875 1.59375q-1.203125 1.578125 -1.203125 4.578125l0 0.546875q0 2.921875 1.203125 4.5q1.203125 1.578125 3.4375 1.578125z" fill-rule="nonzero"/><path fill="#a4c2f4" d="m216.64174 255.37288l0 0c0 -4.9315186 3.9977875 -8.929306 8.929306 -8.929306l59.086243 0c2.368225 0 4.639435 0.9407654 6.3139954 2.615326c1.6745605 1.6745758 2.615326 3.9457855 2.615326 6.31398l0 35.71617c0 4.9315186 -3.9977722 8.929321 -8.929321 8.929321l-59.086243 0c-4.9315186 0 -8.929306 -3.9978027 -8.929306 -8.929321z" fill-rule="evenodd"/><path stroke="#000000" stroke-width="2.0" stroke-linejoin="round" stroke-linecap="butt" d="m216.64174 255.37288l0 0c0 -4.9315186 3.9977875 -8.929306 8.929306 -8.929306l59.086243 0c2.368225 0 4.639435 0.9407654 6.3139954 2.615326c1.6745605 1.6745758 2.615326 3.9457855 2.615326 6.31398l0 35.71617c0 4.9315186 -3.9977722 8.929321 -8.929321 8.929321l-59.086243 0c-4.9315186 0 -8.929306 -3.9978027 -8.929306 -8.929321z" fill-rule="evenodd"/><path fill="#000000" d="m242.42471 275.55222q0 3.046875 -1.3125 4.75q-1.296875 1.703125 -3.625 1.703125q-2.0625 0 -3.296875 -1.578125l-0.15625 1.34375l-3.046875 0l0 -18.0l3.390625 0l0 6.453125q1.171875 -1.375 3.078125 -1.375q2.328125 0 3.640625 1.71875q1.328125 1.703125 1.328125 4.796875l0 0.1875zm-3.390625 -0.25q0 -1.921875 -0.609375 -2.796875q-0.609375 -0.890625 -1.8125 -0.890625q-1.625 0 -2.234375 1.3125l0 5.015625q0.625 1.328125 2.25 1.328125q1.640625 0 2.15625 -1.609375q0.25 -0.78125 0.25 -2.359375zm18.800781 6.46875q-0.234375 -0.453125 -0.34375 -1.140625q-1.234375 1.375 -3.203125 1.375q-1.859375 0 -3.09375 -1.078125q-1.21875 -1.078125 -1.21875 -2.71875q0 -2.015625 1.484375 -3.09375q1.5 -1.078125 4.328125 -1.09375l1.5625 0l0 -0.71875q0 -0.890625 -0.453125 -1.40625q-0.453125 -0.53125 -1.421875 -0.53125q-0.859375 0 -1.34375 0.40625q-0.484375 0.40625 -0.484375 1.125l-3.390625 0q0 -1.09375 0.671875 -2.03125q0.6875 -0.9375 1.921875 -1.46875q1.25 -0.546875 2.796875 -0.546875q2.34375 0 3.71875 1.1875q1.375 1.171875 1.375 3.3125l0 5.484375q0.015625 1.8125 0.515625 2.734375l0 0.203125l-3.421875 0zm-2.8125 -2.359375q0.75 0 1.375 -0.328125q0.640625 -0.34375 0.953125 -0.90625l0 -2.171875l-1.265625 0q-2.546875 0 -2.703125 1.75l-0.015625 0.203125q0 0.640625 0.4375 1.046875q0.453125 0.40625 1.21875 0.40625zm19.578125 -0.140625q0.9375 0 1.515625 -0.515625q0.59375 -0.515625 0.609375 -1.375l3.1875 0q-0.015625 1.296875 -0.71875 2.375q-0.6875 1.0625 -1.890625 1.65625q-1.1875 0.59375 -2.640625 0.59375q-2.71875 0 -4.296875 -1.71875q-1.5625 -1.734375 -1.5625 -4.78125l0 -0.234375q0 -2.921875 1.546875 -4.671875q1.5625 -1.75 4.28125 -1.75q2.375 0 3.8125 1.359375q1.4375 1.359375 1.46875 3.609375l-3.1875 0q-0.015625 -0.984375 -0.609375 -1.59375q-0.578125 -0.625 -1.546875 -0.625q-1.171875 0 -1.78125 0.859375q-0.609375 0.859375 -0.609375 2.796875l0 0.34375q0 1.96875 0.59375 2.828125q0.609375 0.84375 1.828125 0.84375z" fill-rule="nonzero"/><path fill="#000000" fill-opacity="0.0" d="m191.2874 190.65617l-66.23622 51.401566" fill-rule="evenodd"/><path stroke="#000000" stroke-width="2.0" stroke-linejoin="round" stroke-linecap="butt" d="m191.2874 190.65617l-66.23622 51.401566" fill-rule="evenodd"/><path fill="#a4c2f4" d="m133.93307 364.73508l0 0c0 -4.9315186 3.9977875 -8.929291 8.929306 -8.929291l59.086258 0c2.3682098 0 4.6394043 0.9407654 6.31398 2.615326c1.6745758 1.6745605 2.6153412 3.9457703 2.6153412 6.313965l0 35.716187c0 4.9315186 -3.9978027 8.929321 -8.929321 8.929321l-59.086258 0c-4.9315186 0 -8.929306 -3.9978027 -8.929306 -8.929321z" fill-rule="evenodd"/><path stroke="#000000" stroke-width="2.0" stroke-linejoin="round" stroke-linecap="butt" d="m133.93307 364.73508l0 0c0 -4.9315186 3.9977875 -8.929291 8.929306 -8.929291l59.086258 0c2.3682098 0 4.6394043 0.9407654 6.31398 2.615326c1.6745758 1.6745605 2.6153412 3.9457703 2.6153412 6.313965l0 35.716187c0 4.9315186 -3.9978027 8.929321 -8.929321 8.929321l-59.086258 0c-4.9315186 0 -8.929306 -3.9978027 -8.929306 -8.929321z" fill-rule="evenodd"/><path fill="#000000" d="m159.71606 384.91443q0 3.046875 -1.3125 4.75q-1.296875 1.703125 -3.625 1.703125q-2.0625 0 -3.296875 -1.578125l-0.15625 1.34375l-3.046875 0l0 -18.0l3.390625 0l0 6.453125q1.171875 -1.375 3.078125 -1.375q2.328125 0 3.640625 1.71875q1.328125 1.703125 1.328125 4.796875l0 0.1875zm-3.390625 -0.25q0 -1.921875 -0.609375 -2.796875q-0.609375 -0.890625 -1.8125 -0.890625q-1.625 0 -2.234375 1.3125l0 5.015625q0.625 1.328125 2.25 1.328125q1.640625 0 2.15625 -1.609375q0.25 -0.78125 0.25 -2.359375zm16.722641 3.96875q0.9375 0 1.515625 -0.515625q0.59375 -0.515625 0.609375 -1.375l3.1875 0q-0.015625 1.296875 -0.71875 2.375q-0.6875 1.0625 -1.890625 1.65625q-1.1875 0.59375 -2.640625 0.59375q-2.71875 0 -4.296875 -1.71875q-1.5624847 -1.734375 -1.5624847 -4.78125l0 -0.234375q0 -2.921875 1.5468597 -4.671875q1.5625 -1.75 4.28125 -1.75q2.375 0 3.8125 1.359375q1.4375 1.359375 1.46875 3.609375l-3.1875 0q-0.015625 -0.984375 -0.609375 -1.59375q-0.578125 -0.625 -1.546875 -0.625q-1.171875 0 -1.78125 0.859375q-0.609375 0.859375 -0.609375 2.796875l0 0.34375q0 1.96875 0.59375 2.828125q0.609375 0.84375 1.828125 0.84375zm20.570312 2.5q-0.234375 -0.453125 -0.34375 -1.140625q-1.234375 1.375 -3.203125 1.375q-1.859375 0 -3.09375 -1.078125q-1.21875 -1.078125 -1.21875 -2.71875q0 -2.015625 1.484375 -3.09375q1.5 -1.078125 4.328125 -1.09375l1.5625 0l0 -0.71875q0 -0.890625 -0.453125 -1.40625q-0.453125 -0.53125 -1.421875 -0.53125q-0.859375 0 -1.34375 0.40625q-0.484375 0.40625 -0.484375 1.125l-3.390625 0q0 -1.09375 0.671875 -2.03125q0.6875 -0.9375 1.921875 -1.46875q1.25 -0.546875 2.796875 -0.546875q2.34375 0 3.71875 1.1875q1.375 1.171875 1.375 3.3125l0 5.484375q0.015625 1.8125 0.515625 2.734375l0 0.203125l-3.421875 0zm-2.8125 -2.359375q0.75 0 1.375 -0.328125q0.640625 -0.34375 0.953125 -0.90625l0 -2.171875l-1.265625 0q-2.546875 0 -2.703125 1.75l-0.015625 0.203125q0 0.640625 0.4375 1.046875q0.453125 0.40625 1.21875 0.40625z" fill-rule="nonzero"/><path fill="#a4c2f4" d="m34.269028 364.73508l0 0c0 -4.9315186 3.9977913 -8.929291 8.929314 -8.929291l59.086258 0c2.3682022 0 4.6394043 0.9407654 6.31398 2.615326c1.6745682 1.6745605 2.6153336 3.9457703 2.6153336 6.313965l0 35.716187c0 4.9315186 -3.997795 8.929321 -8.929314 8.929321l-59.086258 0c-4.9315224 0 -8.929314 -3.9978027 -8.929314 -8.929321z" fill-rule="evenodd"/><path stroke="#000000" stroke-width="2.0" stroke-linejoin="round" stroke-linecap="butt" d="m34.269028 364.73508l0 0c0 -4.9315186 3.9977913 -8.929291 8.929314 -8.929291l59.086258 0c2.3682022 0 4.6394043 0.9407654 6.31398 2.615326c1.6745682 1.6745605 2.6153336 3.9457703 2.6153336 6.313965l0 35.716187c0 4.9315186 -3.997795 8.929321 -8.929314 8.929321l-59.086258 0c-4.9315224 0 -8.929314 -3.9978027 -8.929314 -8.929321z" fill-rule="evenodd"/><path fill="#000000" d="m53.895767 388.63318q0.9375 0 1.515625 -0.515625q0.59375 -0.515625 0.609375 -1.375l3.1875 0q-0.015625 1.296875 -0.71875 2.375q-0.6875 1.0625 -1.890625 1.65625q-1.1875 0.59375 -2.640625 0.59375q-2.71875 0 -4.296875 -1.71875q-1.5625 -1.734375 -1.5625 -4.78125l0 -0.234375q0 -2.921875 1.546875 -4.671875q1.5625 -1.75 4.28125 -1.75q2.375 0 3.8125 1.359375q1.4375 1.359375 1.46875 3.609375l-3.1875 0q-0.015625 -0.984375 -0.609375 -1.59375q-0.578125 -0.625 -1.546875 -0.625q-1.171875 0 -1.78125 0.859375q-0.609375 0.859375 -0.609375 2.796875l0 0.34375q0 1.96875 0.59375 2.828125q0.609375 0.84375 1.828125 0.84375zm24.648438 -3.71875q0 3.046875 -1.3125 4.75q-1.296875 1.703125 -3.625 1.703125q-2.0625 0 -3.296875 -1.578125l-0.15625 1.34375l-3.046875 0l0 -18.0l3.390625 0l0 6.453125q1.171875 -1.375 3.078125 -1.375q2.328125 0 3.640625 1.71875q1.328125 1.703125 1.328125 4.796875l0 0.1875zm-3.390625 -0.25q0 -1.921875 -0.609375 -2.796875q-0.609375 -0.890625 -1.8125 -0.890625q-1.625 0 -2.234375 1.3125l0 5.015625q0.625 1.328125 2.25 1.328125q1.640625 0 2.15625 -1.609375q0.25 -0.78125 0.25 -2.359375zm18.800781 6.46875q-0.234375 -0.453125 -0.34375 -1.140625q-1.234375 1.375 -3.203125 1.375q-1.859375 0 -3.09375 -1.078125q-1.21875 -1.078125 -1.21875 -2.71875q0 -2.015625 1.484375 -3.09375q1.5 -1.078125 4.328125 -1.09375l1.5625 0l0 -0.71875q0 -0.890625 -0.453125 -1.40625q-0.453125 -0.53125 -1.421875 -0.53125q-0.859375 0 -1.34375 0.40625q-0.484375 0.40625 -0.484375 1.125l-3.390625 0q0 -1.09375 0.671875 -2.03125q0.6875 -0.9375 1.921875 -1.46875q1.25 -0.546875 2.796875 -0.546875q2.34375 0 3.71875 1.1875q1.375 1.171875 1.375 3.3125l0 5.484375q0.015625 1.8125 0.515625 2.734375l0 0.203125l-3.421875 0zm-2.8125 -2.359375q0.75 0 1.375 -0.328125q0.640625 -0.34375 0.953125 -0.90625l0 -2.171875l-1.265625 0q-2.546875 0 -2.703125 1.75l-0.015625 0.203125q0 0.640625 0.4375 1.046875q0.453125 0.40625 1.21875 0.40625z" fill-rule="nonzero"/><path fill="#000000" fill-opacity="0.0" d="m125.06431 304.39633l-52.314964 51.40158" fill-rule="evenodd"/><path stroke="#000000" stroke-width="2.0" stroke-linejoin="round" stroke-linecap="butt" d="m125.06431 304.39633l-52.314964 51.40158" fill-rule="evenodd"/><path fill="#000000" fill-opacity="0.0" d="m125.06431 304.39633l47.338585 51.40158" fill-rule="evenodd"/><path stroke="#000000" stroke-width="2.0" stroke-linejoin="round" stroke-linecap="butt" d="m125.06431 304.39633l47.338585 51.40158" fill-rule="evenodd"/><path fill="#000000" fill-opacity="0.0" d="m219.78348 193.13124l52.314972 0l0 28.850388l-52.314972 0z" fill-rule="evenodd"/><path fill="#000000" d="m234.53348 212.76999l2.765625 -5.984375l2.984375 0l-4.34375 8.453125l0 4.8125l-2.78125 0l0 -4.8125l-4.359375 -8.453125l3.0 0l2.734375 5.984375zm10.737045 7.46875q-2.171875 0 -3.53125 -1.328125q-1.359375 -1.34375 -1.359375 -3.546875l0 -0.265625q0 -1.484375 0.5625 -2.640625q0.578125 -1.171875 1.625 -1.796875q1.0625 -0.640625 2.40625 -0.640625q2.03125 0 3.1875 1.28125q1.15625 1.265625 1.15625 3.609375l0 1.0625l-6.265625 0q0.125 0.96875 0.765625 1.5625q0.640625 0.578125 1.625 0.578125q1.515625 0 2.375 -1.109375l1.296875 1.453125q-0.59375 0.84375 -1.609375 1.3125q-1.0 0.46875 -2.234375 0.46875zm-0.296875 -8.09375q-0.78125 0 -1.28125 0.53125q-0.484375 0.53125 -0.609375 1.515625l3.65625 0l0 -0.21875q-0.015625 -0.875 -0.484375 -1.34375q-0.453125 -0.484375 -1.28125 -0.484375zm11.177963 5.1875q0 -0.484375 -0.484375 -0.765625q-0.46875 -0.28125 -1.515625 -0.5q-3.53125 -0.734375 -3.53125 -2.984375q0 -1.3125 1.09375 -2.1875q1.09375 -0.875 2.84375 -0.875q1.875 0 3.0 0.890625q1.125 0.875 1.125 2.28125l-2.625 0q0 -0.5625 -0.375 -0.921875q-0.359375 -0.375 -1.125 -0.375q-0.671875 0 -1.03125 0.296875q-0.359375 0.296875 -0.359375 0.765625q0 0.4375 0.40625 0.703125q0.421875 0.265625 1.40625 0.46875q0.984375 0.1875 1.65625 0.4375q2.078125 0.765625 2.078125 2.65625q0 1.34375 -1.15625 2.1875q-1.15625 0.828125 -2.984375 0.828125q-1.234375 0 -2.203125 -0.4375q-0.953125 -0.453125 -1.5 -1.21875q-0.546875 -0.765625 -0.546875 -1.671875l2.484375 0q0.046875 0.703125 0.53125 1.078125q0.484375 0.375 1.28125 0.375q0.765625 0 1.140625 -0.28125q0.390625 -0.296875 0.390625 -0.75z" fill-rule="nonzero"/><path fill="#000000" fill-opacity="0.0" d="m111.21393 193.13124l52.314957 0l0 28.850388l-52.314957 0z" fill-rule="evenodd"/><path fill="#000000" d="m132.18268 220.05124l-2.734375 0l-5.3125 -8.734375l0 8.734375l-2.734375 0l0 -13.265625l2.734375 0l5.328125 8.75l0 -8.75l2.71875 0l0 13.265625zm1.7973328 -5.015625q0 -1.46875 0.5625 -2.609375q0.578125 -1.15625 1.640625 -1.78125q1.0625 -0.625 2.453125 -0.625q2.0 0 3.265625 1.21875q1.265625 1.21875 1.40625 3.3125l0.015625 0.671875q0 2.265625 -1.265625 3.640625q-1.265625 1.375 -3.40625 1.375q-2.125 0 -3.40625 -1.359375q-1.265625 -1.375 -1.265625 -3.734375l0 -0.109375zm2.640625 0.1875q0 1.40625 0.53125 2.15625q0.53125 0.734375 1.515625 0.734375q0.953125 0 1.484375 -0.734375q0.546875 -0.734375 0.546875 -2.34375q0 -1.375 -0.546875 -2.125q-0.53125 -0.765625 -1.515625 -0.765625q-0.953125 0 -1.484375 0.75q-0.53125 0.75 -0.53125 2.328125z" fill-rule="nonzero"/><path fill="#000000" fill-opacity="0.0" d="m52.622078 307.67584l52.314964 0l0 28.850403l-52.314964 0z" fill-rule="evenodd"/><path fill="#000000" d="m73.59083 334.59586l-2.734375 0l-5.3125 -8.734375l0 8.734375l-2.734375 0l0 -13.265625l2.734375 0l5.328125 8.75l0 -8.75l2.71875 0l0 13.265625zm1.7973328 -5.015625q0 -1.46875 0.5625 -2.609375q0.578125 -1.15625 1.640625 -1.78125q1.0625 -0.625 2.453125 -0.625q2.0 0 3.265625 1.21875q1.265625 1.21875 1.40625 3.3125l0.015625 0.671875q0 2.265625 -1.265625 3.640625q-1.265625 1.375 -3.40625 1.375q-2.125 0 -3.40625 -1.359375q-1.265625 -1.375 -1.265625 -3.734375l0 -0.109375zm2.640625 0.1875q0 1.40625 0.53125 2.15625q0.53125 0.734375 1.515625 0.734375q0.953125 0 1.484375 -0.734375q0.546875 -0.734375 0.546875 -2.34375q0 -1.375 -0.546875 -2.125q-0.53125 -0.765625 -1.515625 -0.765625q-0.953125 0 -1.484375 0.75q-0.53125 0.75 -0.53125 2.328125z" fill-rule="nonzero"/><path fill="#000000" fill-opacity="0.0" d="m153.19162 307.67584l52.314957 0l0 28.850403l-52.314957 0z" fill-rule="evenodd"/><path fill="#000000" d="m167.94162 327.3146l2.765625 -5.984375l2.984375 0l-4.34375 8.453125l0 4.8125l-2.78125 0l0 -4.8125l-4.359375 -8.453125l3.0 0l2.734375 5.984375zm10.737045 7.46875q-2.171875 0 -3.53125 -1.328125q-1.359375 -1.34375 -1.359375 -3.546875l0 -0.265625q0 -1.484375 0.5625 -2.640625q0.578125 -1.171875 1.625 -1.796875q1.0625 -0.640625 2.40625 -0.640625q2.03125 0 3.1875 1.28125q1.15625 1.265625 1.15625 3.609375l0 1.0625l-6.265625 0q0.125 0.96875 0.765625 1.5625q0.640625 0.578125 1.625 0.578125q1.515625 0 2.375 -1.109375l1.296875 1.453125q-0.59375 0.84375 -1.609375 1.3125q-1.0 0.46875 -2.234375 0.46875zm-0.296875 -8.09375q-0.78125 0 -1.28125 0.53125q-0.484375 0.53125 -0.609375 1.515625l3.65625 0l0 -0.21875q-0.015625 -0.875 -0.484375 -1.34375q-0.453125 -0.484375 -1.28125 -0.484375zm11.177963 5.1875q0 -0.484375 -0.484375 -0.765625q-0.46875 -0.28125 -1.515625 -0.5q-3.53125 -0.734375 -3.53125 -2.984375q0 -1.3125 1.09375 -2.1875q1.09375 -0.875 2.84375 -0.875q1.875 0 3.0 0.890625q1.125 0.875 1.125 2.28125l-2.625 0q0 -0.5625 -0.375 -0.921875q-0.359375 -0.375 -1.125 -0.375q-0.671875 0 -1.03125 0.296875q-0.359375 0.296875 -0.359375 0.765625q0 0.4375 0.40625 0.703125q0.421875 0.265625 1.40625 0.46875q0.984375 0.1875 1.65625 0.4375q2.078125 0.765625 2.078125 2.65625q0 1.34375 -1.15625 2.1875q-1.15625 0.828125 -2.984375 0.828125q-1.234375 0 -2.203125 -0.4375q-0.953125 -0.453125 -1.5 -1.21875q-0.546875 -0.765625 -0.546875 -1.671875l2.484375 0q0.046875 0.703125 0.53125 1.078125q0.484375 0.375 1.28125 0.375q0.765625 0 1.140625 -0.28125q0.390625 -0.296875 0.390625 -0.75z" fill-rule="nonzero"/><path fill="#000000" fill-opacity="0.0" d="m513.27167 190.65617l-78.80316 51.401566" fill-rule="evenodd"/><path stroke="#000000" stroke-width="2.0" stroke-linejoin="round" stroke-linecap="butt" d="m513.27167 190.65617l-78.80316 51.401566" fill-rule="evenodd"/><path fill="#000000" fill-opacity="0.0" d="m412.14655 196.87827l64.566925 0l0 19.59056l-64.566925 0z" fill-rule="evenodd"/><path fill="#000000" d="m433.1153 223.79826l-2.734375 0l-5.3125 -8.734375l0 8.734375l-2.734375 0l0 -13.265625l2.734375 0l5.328125 8.75l0 -8.75l2.71875 0l0 13.265625zm1.7973328 -5.015625q0 -1.46875 0.5625 -2.609375q0.578125 -1.15625 1.640625 -1.78125q1.0625 -0.625 2.453125 -0.625q2.0 0 3.265625 1.21875q1.265625 1.21875 1.40625 3.3125l0.015625 0.671875q0 2.265625 -1.265625 3.640625q-1.265625 1.375 -3.40625 1.375q-2.125 0 -3.40625 -1.359375q-1.265625 -1.375 -1.265625 -3.734375l0 -0.109375zm2.640625 0.1875q0 1.40625 0.53125 2.15625q0.53125 0.734375 1.515625 0.734375q0.953125 0 1.484375 -0.734375q0.546875 -0.734375 0.546875 -2.34375q0 -1.375 -0.546875 -2.125q-0.53125 -0.765625 -1.515625 -0.765625q-0.953125 0 -1.484375 0.75q-0.53125 0.75 -0.53125 2.328125z" fill-rule="nonzero"/><path fill="#000000" fill-opacity="0.0" d="m513.27167 190.65617l85.98425 51.401566" fill-rule="evenodd"/><path stroke="#000000" stroke-width="2.0" stroke-linejoin="round" stroke-linecap="butt" d="m513.27167 190.65617l85.98425 51.401566" fill-rule="evenodd"/><path fill="#000000" fill-opacity="0.0" d="m564.50085 197.60892l73.22839 0l0 26.110245l-73.22839 0z" fill-rule="evenodd"/><path fill="#000000" d="m579.25085 217.24767l2.765625 -5.984375l2.984375 0l-4.34375 8.453125l0 4.8125l-2.78125 0l0 -4.8125l-4.359375 -8.453125l3.0 0l2.734375 5.984375zm10.737061 7.46875q-2.171875 0 -3.53125 -1.328125q-1.359375 -1.34375 -1.359375 -3.546875l0 -0.265625q0 -1.484375 0.5625 -2.640625q0.578125 -1.171875 1.625 -1.796875q1.0625 -0.640625 2.40625 -0.640625q2.03125 0 3.1875 1.28125q1.15625 1.265625 1.15625 3.609375l0 1.0625l-6.265625 0q0.125 0.96875 0.765625 1.5625q0.640625 0.578125 1.625 0.578125q1.515625 0 2.375 -1.109375l1.296875 1.453125q-0.59375 0.84375 -1.609375 1.3125q-1.0 0.46875 -2.234375 0.46875zm-0.296875 -8.09375q-0.78125 0 -1.28125 0.53125q-0.484375 0.53125 -0.609375 1.515625l3.65625 0l0 -0.21875q-0.015625 -0.875 -0.484375 -1.34375q-0.453125 -0.484375 -1.28125 -0.484375zm11.1779785 5.1875q0 -0.484375 -0.484375 -0.765625q-0.46875 -0.28125 -1.515625 -0.5q-3.53125 -0.734375 -3.53125 -2.984375q0 -1.3125 1.09375 -2.1875q1.09375 -0.875 2.84375 -0.875q1.875 0 3.0 0.890625q1.125 0.875 1.125 2.28125l-2.625 0q0 -0.5625 -0.375 -0.921875q-0.359375 -0.375 -1.125 -0.375q-0.671875 0 -1.03125 0.296875q-0.359375 0.296875 -0.359375 0.765625q0 0.4375 0.40625 0.703125q0.421875 0.265625 1.40625 0.46875q0.984375 0.1875 1.65625 0.4375q2.078125 0.765625 2.078125 2.65625q0 1.34375 -1.15625 2.1875q-1.15625 0.828125 -2.984375 0.828125q-1.234375 0 -2.203125 -0.4375q-0.953125 -0.453125 -1.5 -1.21875q-0.546875 -0.765625 -0.546875 -1.671875l2.484375 0q0.046875 0.703125 0.53125 1.078125q0.484375 0.375 1.28125 0.375q0.765625 0 1.140625 -0.28125q0.390625 -0.296875 0.390625 -0.75z" fill-rule="nonzero"/><path fill="#a4c2f4" d="m560.77295 250.99493l0 0c0 -4.931534 3.9978027 -8.929321 8.929321 -8.929321l59.086243 0c2.368225 0 4.6394043 0.9407654 6.314026 2.6153412c1.6745605 1.6745758 2.6152954 3.9457703 2.6152954 6.31398l0 35.716187c0 4.9315186 -3.9978027 8.929291 -8.929321 8.929291l-59.086243 0c-4.9315186 0 -8.929321 -3.9977722 -8.929321 -8.929291z" fill-rule="evenodd"/><path stroke="#000000" stroke-width="2.0" stroke-linejoin="round" stroke-linecap="butt" d="m560.77295 250.99493l0 0c0 -4.931534 3.9978027 -8.929321 8.929321 -8.929321l59.086243 0c2.368225 0 4.6394043 0.9407654 6.314026 2.6153412c1.6745605 1.6745758 2.6152954 3.9457703 2.6152954 6.31398l0 35.716187c0 4.9315186 -3.9978027 8.929291 -8.929321 8.929291l-59.086243 0c-4.9315186 0 -8.929321 -3.9977722 -8.929321 -8.929291z" fill-rule="evenodd"/><path fill="#000000" d="m582.47784 277.393q-0.234375 -0.453125 -0.34375 -1.140625q-1.234375 1.375 -3.203125 1.375q-1.859375 0 -3.09375 -1.078125q-1.21875 -1.078125 -1.21875 -2.71875q0 -2.015625 1.484375 -3.09375q1.5 -1.078125 4.328125 -1.09375l1.5625 0l0 -0.71875q0 -0.890625 -0.453125 -1.40625q-0.453125 -0.53125 -1.421875 -0.53125q-0.859375 0 -1.34375 0.40625q-0.484375 0.40625 -0.484375 1.125l-3.390625 0q0 -1.09375 0.671875 -2.03125q0.6875 -0.9375 1.921875 -1.46875q1.25 -0.546875 2.796875 -0.546875q2.34375 0 3.71875 1.1875q1.375 1.171875 1.375 3.3125l0 5.484375q0.015625 1.8125 0.515625 2.734375l0 0.203125l-3.421875 0zm-2.8125 -2.359375q0.75 0 1.375 -0.328125q0.640625 -0.34375 0.953125 -0.90625l0 -2.171875l-1.265625 0q-2.546875 0 -2.703125 1.75l-0.015625 0.203125q0 0.640625 0.4375 1.046875q0.453125 0.40625 1.21875 0.40625zm25.734375 -3.859375q0 3.046875 -1.3125 4.75q-1.296875 1.703125 -3.625 1.703125q-2.0625 0 -3.296875 -1.578125l-0.15625 1.34375l-3.046875 0l0 -18.0l3.390625 0l0 6.453125q1.171875 -1.375 3.078125 -1.375q2.328125 0 3.640625 1.71875q1.328125 1.703125 1.328125 4.796875l0 0.1875zm-3.390625 -0.25q0 -1.921875 -0.609375 -2.796875q-0.609375 -0.890625 -1.8125 -0.890625q-1.625 0 -2.234375 1.3125l0 5.015625q0.625 1.328125 2.25 1.328125q1.640625 0 2.15625 -1.609375q0.25 -0.78125 0.25 -2.359375zm16.722656 3.96875q0.9375 0 1.515625 -0.515625q0.59375 -0.515625 0.609375 -1.375l3.1875 0q-0.015625 1.296875 -0.71875 2.375q-0.6875 1.0625 -1.890625 1.65625q-1.1875 0.59375 -2.640625 0.59375q-2.71875 0 -4.296875 -1.71875q-1.5625 -1.734375 -1.5625 -4.78125l0 -0.234375q0 -2.921875 1.546875 -4.671875q1.5625 -1.75 4.28125 -1.75q2.375 0 3.8125 1.359375q1.4375 1.359375 1.46875 3.609375l-3.1875 0q-0.015625 -0.984375 -0.609375 -1.59375q-0.578125 -0.625 -1.546875 -0.625q-1.171875 0 -1.78125 0.859375q-0.609375 0.859375 -0.609375 2.796875l0 0.34375q0 1.96875 0.59375 2.828125q0.609375 0.84375 1.828125 0.84375z" fill-rule="nonzero"/></g></svg>